<mxfile host="Electron" agent="Mozilla/5.0 (Macintosh; Intel Mac OS X 10_15_7) AppleWebKit/537.36 (KHTML, like Gecko) draw.io/26.0.9 Chrome/128.0.6613.186 Electron/32.2.5 Safari/537.36" version="26.0.9">
  <diagram name="Page-1" id="HNRfKW5heZkGv1PEob-w">
    <mxGraphModel dx="1242" dy="878" grid="1" gridSize="10" guides="1" tooltips="1" connect="1" arrows="1" fold="1" page="1" pageScale="1" pageWidth="850" pageHeight="1100" math="0" shadow="0">
      <root>
        <mxCell id="0" />
        <mxCell id="1" parent="0" />
        <mxCell id="ukp5wN6on8vU--8jEoze-20" value="" style="rounded=1;whiteSpace=wrap;html=1;" vertex="1" parent="1">
          <mxGeometry x="10" y="355" width="840" height="390" as="geometry" />
        </mxCell>
        <mxCell id="ukp5wN6on8vU--8jEoze-8" style="edgeStyle=orthogonalEdgeStyle;rounded=0;orthogonalLoop=1;jettySize=auto;html=1;entryX=0;entryY=0.5;entryDx=0;entryDy=0;" edge="1" parent="1" source="ukp5wN6on8vU--8jEoze-1" target="ukp5wN6on8vU--8jEoze-2">
          <mxGeometry relative="1" as="geometry" />
        </mxCell>
        <mxCell id="ukp5wN6on8vU--8jEoze-9" style="edgeStyle=orthogonalEdgeStyle;rounded=0;orthogonalLoop=1;jettySize=auto;html=1;entryX=0;entryY=0.5;entryDx=0;entryDy=0;" edge="1" parent="1" source="ukp5wN6on8vU--8jEoze-1" target="ukp5wN6on8vU--8jEoze-3">
          <mxGeometry relative="1" as="geometry" />
        </mxCell>
        <mxCell id="ukp5wN6on8vU--8jEoze-1" value="" style="shape=image;aspect=fixed;image=data:image/svg+xml,PHN2ZyB3aWR0aD0iMjU2IiBoZWlnaHQ9IjI1NiIgdmlld0JveD0iMCAwIDI1NiAyNTYiIGZpbGw9Im5vbmUiIHhtbG5zPSJodHRwOi8vd3d3LnczLm9yZy8yMDAwL3N2ZyI+CjxwYXRoIGQ9Ik0yMzAuNzIxIDE3Mi43QzIzMC4xODMgMTcwLjY3MyAyMjkuMzEzIDE2OC43NSAyMjguMTQ2IDE2Ny4wMDhDMjI4LjM5NiAxNjYuMDkxIDIyOC41ODcgMTY1LjE1OSAyMjguNzE0IDE2NC4yMTdDMjI5LjU0MyAxNTguMjQxIDIyNy40NzEgMTUyLjc3IDIyMy41NjcgMTQ4LjUzN0MyMjEuNDUyIDE0Ni4yMjUgMjE5LjE4NSAxNDQuNjk4IDIxNi43ODQgMTQzLjc2MUMyMTguMzYgMTM3LjAxOCAyMTkuMTU3IDEzMC4xMTcgMjE5LjE2MSAxMjMuMTkzQzIxOS4xNjEgMTIwLjAzIDIxOC45ODIgMTE2LjkzMiAyMTguNjgyIDExMy44OEMyMTguNTI2IDExMi4zNTYgMjE4LjMzNyAxMTAuODM2IDIxOC4xMTUgMTA5LjMyQzIxNy40MjggMTA0Ljg0NyAyMTYuNDA4IDEwMC40MzEgMjE1LjA2NCA5Ni4xMUMyMTQuMTgzIDkzLjI3MDcgMjEzLjE2NCA5MC40NzYgMjEyLjAxIDg3LjczNkMyMTAuMjgxIDgzLjY3ODIgMjA4LjI2MiA3OS43NSAyMDUuOTY5IDc1Ljk4MkMyMDQuNDY1IDczLjQ3NSAyMDIuODI3IDcxLjA1MDggMjAxLjA2MiA2OC43MkMyMDAuMTk3IDY3LjU0MyAxOTkuMjk2IDY2LjM5MzggMTk4LjM1OCA2NS4yNzRDMTk1LjU4IDYxLjg5OCAxOTIuNTYxIDU4LjcyNzcgMTg5LjMyNSA1NS43ODhDMTg4LjI1IDU0Ljc5OTcgMTg3LjE0NSA1My44NDUzIDE4Ni4wMSA1Mi45MjZDMTg0Ljg5MyA1MS45OTQzIDE4My43NTEgNTEuMDkyNyAxODIuNTg2IDUwLjIyMkMxODAuMjQxIDQ4LjQ3NjYgMTc3LjgxOCA0Ni44MzkyIDE3NS4zMjQgNDUuMzE1QzE2MS41NDMgMzYuOTQ1IDE0NS4zODIgMzIuMTQ1IDEyOC4xMDkgMzIuMTQ1Qzc3LjgxNyAzMi4xNDUgMzcuMDU3IDcyLjkwNyAzNy4wNTcgMTIzLjE5NkMzNy4wNTUgMTMwLjIwOCAzNy44NjcgMTM3LjE5NiAzOS40NzcgMTQ0LjAyQzM3LjMxNyAxNDQuOTU4IDM1LjI0NyAxNDYuNDIgMzMuMzI3IDE0OC41MzVDMjkuNDI0IDE1Mi43NjYgMjcuMzUxIDE1OC4yMTcgMjguMTggMTY0LjE5M0MyOC4zMDYgMTY1LjE0MiAyOC40OTUgMTY2LjA4MiAyOC43NDcgMTY3LjAwNkMyNy41ODExIDE2OC43NDkgMjYuNzExNyAxNzAuNjczIDI2LjE3NCAxNzIuN0MyNC45NzQgMTc3LjI2MSAyNS4zNjkgMTgxLjM3NCAyNi44OTQgMTg0Ljk3OEMyNS4yMzYgMTg5LjY4OCAyNS42NSAxOTQuNzA0IDI3LjgwOSAxOTkuMDY1QzI5LjM3OSAyMDIuMjUgMzEuNjI2IDIwNC43MTQgMzQuMzk2IDIwNi45MTZDMzcuNjg5IDIwOS41MzQgNDEuODExIDIxMS43NTggNDYuNzgzIDIxMy44OTJDNTIuNzE1IDIxNi40MjIgNTkuOTU2IDIxOC43OTkgNjMuMjQ5IDIxOS42NzFDNzEuNzU1IDIyMS44NzMgNzkuOTExIDIyMy4yNjkgODguMTc3IDIyMy4zMzdDOTkuOTU0IDIyMy40NDYgMTEwLjA5NiAyMjAuNjc3IDExNy4zNTcgMjEzLjU5QzEyMC45MjQgMjE0LjAyNyAxMjQuNTE1IDIxNC4yNDYgMTI4LjEwOSAyMTQuMjQ0QzEzMS45MDYgMjE0LjIzNiAxMzUuNjk5IDIxMy45OTcgMTM5LjQ2NyAyMTMuNTI5QzE0Ni43MTEgMjIwLjY2MSAxNTYuODkyIDIyMy40NTUgMTY4LjcxMiAyMjMuMzQzQzE3Ni45NzcgMjIzLjI3NyAxODUuMTMzIDIyMS44ODEgMTkzLjYxNyAyMTkuNjc2QzE5Ni45MzIgMjE4LjgwNCAyMDQuMTcgMjE2LjQyNyAyMTAuMTA1IDIxMy44OTdDMjE1LjA3NyAyMTEuNzYgMjE5LjE5OSAyMDkuNTM2IDIyMi41MTQgMjA2LjkyMkMyMjUuMjYzIDIwNC43MTkgMjI3LjUwOCAyMDIuMjU2IDIyOS4wNzkgMTk5LjA3MUMyMzEuMjYgMTk0LjcwOSAyMzEuNjUyIDE4OS42OTMgMjMwLjAxNyAxODQuOTgzQzIzMS41MjcgMTgxLjM3OSAyMzEuOTIgMTc3LjI1NyAyMzAuNzIxIDE3Mi43Wk0yMjIuMjgxIDE4NC42NzNDMjIzLjk1MiAxODcuODQ0IDIyNC4wNTkgMTkxLjQyNyAyMjIuNTg1IDE5NC43NjRDMjIwLjM0OSAxOTkuODIxIDIxNC43OTUgMjAzLjgwNSAyMDQuMDA4IDIwOC4wODJDMTk3LjMgMjEwLjc0MiAxOTEuMTU4IDIxMi40NDMgMTkxLjEwNCAyMTIuNDU4QzE4Mi4yMzIgMjE0Ljc1OSAxNzQuMjA4IDIxNS45MjggMTY3LjI2MiAyMTUuOTI4QzE1NS43NiAyMTUuOTI4IDE0Ny4yMDEgMjEyLjc1NCAxNDEuNzczIDIwNi40ODZDMTMyLjU5NCAyMDguMDUgMTIzLjIyMiAyMDguMTAzIDExNC4wMjYgMjA2LjY0NEMxMDguNTkxIDIxMi44MDggMTAwLjA4MSAyMTUuOTI4IDg4LjY3NiAyMTUuOTI4QzgxLjcyOSAyMTUuOTI4IDczLjcwNiAyMTQuNzU5IDY0LjgzMyAyMTIuNDU4QzY0Ljc3OSAyMTIuNDQzIDU4LjYzOSAyMTAuNzQyIDUxLjkyOSAyMDguMDgyQzQxLjE0MyAyMDMuODA1IDM1LjU4NyAxOTkuODI0IDMzLjM1MiAxOTQuNzY0QzMxLjg3OCAxOTEuNDI3IDMxLjk4NSAxODcuODQ0IDMzLjY1NiAxODQuNjczQzMzLjgxIDE4NC4zNzggMzMuOTc2IDE4NC4wOTEgMzQuMTUzIDE4My44MTNDMzMuMTUxNiAxODIuMzA5IDMyLjQ3OTkgMTgwLjYxIDMyLjE4MiAxNzguODI3QzMxLjg4NDIgMTc3LjA0NSAzMS45NjcgMTc1LjIyIDMyLjQyNSAxNzMuNDcyQzMzLjA4OSAxNzAuOTQ5IDM0LjQ2IDE2OC44NTEgMzYuMzIyIDE2Ny4zNDRDMzUuNDI1IDE2NS44NyAzNC44MzY1IDE2NC4yMyAzNC41OTIgMTYyLjUyMkMzNC4wNTYgMTU4LjgwOCAzNS4yODkgMTU1LjEgMzguMDYyIDE1Mi4wNzZDNDAuMjIyIDE0OS43MjMgNDMuMjc1IDE0OC40MjggNDYuNjU1IDE0OC40MjhINDYuNzQ1QzQ0LjE5NjUgMTQwLjI1OSA0Mi45MDQ0IDEzMS43NSA0Mi45MTMgMTIzLjE5M0M0Mi45MTMgNzYuNTIyIDgwLjc0OSAzOC42ODMgMTI3LjQyNyAzOC42ODNDMTc0LjEwNCAzOC42ODMgMjExLjk0IDc2LjUxOCAyMTEuOTQgMTIzLjE5M0MyMTEuOTQ3IDEzMS43NzMgMjEwLjY0NiAxNDAuMzA0IDIwOC4wODEgMTQ4LjQ5MkMyMDguNDg5IDE0OC40NTIgMjA4Ljg4OSAxNDguNDMyIDIwOS4yODIgMTQ4LjQzMUMyMTIuNjYyIDE0OC40MzEgMjE1LjcxNiAxNDkuNzI2IDIxNy44NzQgMTUyLjA3OUMyMjAuNjQ3IDE1NS4xIDIyMS44ODEgMTU4LjgxMSAyMjEuMzQ0IDE2Mi41MjVDMjIxLjEgMTY0LjIzMyAyMjAuNTExIDE2NS44NzMgMjE5LjYxNSAxNjcuMzQ3QzIyMS40NzcgMTY4Ljg1NCAyMjIuODQ5IDE3MC45NTIgMjIzLjUxMiAxNzMuNDc1QzIyMy45NyAxNzUuMjIzIDIyNC4wNTMgMTc3LjA0OCAyMjMuNzU1IDE3OC44MzFDMjIzLjQ1OCAxODAuNjEzIDIyMi43ODYgMTgyLjMxMiAyMjEuNzg0IDE4My44MTZDMjIxLjk2MSAxODQuMDkxIDIyMi4xMjkgMTg0LjM3OCAyMjIuMjgxIDE4NC42NzNaIiBmaWxsPSJ3aGl0ZSIvPgo8cGF0aCBkPSJNMjIxLjc4NCAxODMuODE2QzIyMi43ODYgMTgyLjMxMiAyMjMuNDU4IDE4MC42MTMgMjIzLjc1NiAxNzguODMxQzIyNC4wNTMgMTc3LjA0OCAyMjMuOTcgMTc1LjIyMyAyMjMuNTEyIDE3My40NzVDMjIyLjg0OCAxNzAuOTUyIDIyMS40NzYgMTY4Ljg1NCAyMTkuNjE1IDE2Ny4zNDdDMjIwLjUxMiAxNjUuODczIDIyMS4xIDE2NC4yMzMgMjIxLjM0NCAxNjIuNTI1QzIyMS44ODEgMTU4LjgxMSAyMjAuNjQ4IDE1NS4xMDMgMjE3Ljg3NCAxNTIuMDc5QzIxNS43MTYgMTQ5LjcyNiAyMTIuNjYyIDE0OC40MzEgMjA5LjI4MiAxNDguNDMxQzIwOC44ODkgMTQ4LjQzMSAyMDguNDg5IDE0OC40NTIgMjA4LjA4MSAxNDguNDkyQzIxMC42NDMgMTQwLjMwNCAyMTEuOTQyIDEzMS43NzQgMjExLjkzMyAxMjMuMTk1QzIxMS45MzMgNzYuNTIzMSAxNzQuMDk3IDM4LjY4NTEgMTI3LjQyNCAzOC42ODUxQzgwLjc1IDM4LjY4NTEgNDIuOTA5OSA3Ni41MTkxIDQyLjkwOTkgMTIzLjE5NUM0Mi45MDE1IDEzMS43NTIgNDQuMTkzNiAxNDAuMjYxIDQ2Ljc0MiAxNDguNDNINDYuNjUxOUM0My4yNzE5IDE0OC40MyA0MC4yMTkgMTQ5LjcyNCAzOC4wNiAxNTIuMDc3QzM1LjI4NyAxNTUuMDk4IDM0LjA1MjkgMTU4LjgxIDM0LjU4OTkgMTYyLjUyM0MzNC44MzQ2IDE2NC4yMzEgMzUuNDIzMSAxNjUuODcyIDM2LjMxOTkgMTY3LjM0NkMzNC40NTc5IDE2OC44NTIgMzMuMDg2IDE3MC45NSAzMi40MjIgMTczLjQ3M0MzMS45NjQyIDE3NS4yMjIgMzEuODgxNyAxNzcuMDQ3IDMyLjE3OTkgMTc4LjgzQzMyLjQ3ODEgMTgwLjYxMiAzMy4xNTAxIDE4Mi4zMTIgMzQuMTUxOSAxODMuODE2QzMzLjk3MzkgMTg0LjA5NCAzMy44MDk5IDE4NC4zODEgMzMuNjU0OSAxODQuNjc2QzMxLjk4NDkgMTg3Ljg0NyAzMS44NzcgMTkxLjQzIDMzLjM1MiAxOTQuNzY3QzM1LjU4OCAxOTkuODI0IDQxLjE0MTkgMjAzLjgwOCA1MS45Mjg5IDIwOC4wODVDNTguNjM1OSAyMTAuNzQ1IDY0Ljc3OSAyMTIuNDQ2IDY0LjgzMyAyMTIuNDYxQzczLjcwNSAyMTQuNzYyIDgxLjcyOSAyMTUuOTMxIDg4LjY3NSAyMTUuOTMxQzEwMC4wODEgMjE1LjkzMSAxMDguNTkxIDIxMi44MTEgMTE0LjAyNiAyMDYuNjQ3QzEyMy4yMjIgMjA4LjEwNiAxMzIuNTk0IDIwOC4wNTIgMTQxLjc3MyAyMDYuNDg5QzE0Ny4yMDEgMjEyLjc1NyAxNTUuNzYgMjE1LjkzMSAxNjcuMjYyIDIxNS45MzFDMTc0LjIwOCAyMTUuOTMxIDE4Mi4yMzIgMjE0Ljc2MiAxOTEuMTAzIDIxMi40NjFDMTkxLjE1OCAyMTIuNDQ2IDE5Ny4yOTggMjEwLjc0NSAyMDQuMDA4IDIwOC4wODVDMjE0Ljc5NSAyMDMuODA4IDIyMC4zNSAxOTkuODI0IDIyMi41ODUgMTk0Ljc2N0MyMjQuMDU5IDE5MS40MyAyMjMuOTUyIDE4Ny44NDcgMjIyLjI4MSAxODQuNjc2QzIyMi4xMjkgMTg0LjM3OSAyMjEuOTYxIDE4NC4wOTEgMjIxLjc4NCAxODMuODE2Wk0xMTAuMTM3IDE5Ni45OTdDMTA5LjY2OSAxOTcuODE1IDEwOS4xNjggMTk4LjYxNCAxMDguNjM1IDE5OS4zOTFDMTA3LjIzIDIwMS40NDggMTA1LjM4MiAyMDMuMDIgMTAzLjIzNyAyMDQuMTg4Qzk5LjEzNjkgMjA2LjQyNCA5My45NDcgMjA3LjIwNSA4OC42NzUgMjA3LjIwNUM4MC4zNDYgMjA3LjIwNSA3MS44MDggMjA1LjI1NiA2Ny4wMjMgMjA0LjAxNUM2Ni43ODcgMjAzLjk1NCAzNy42ODkgMTk1LjczNSA0MS4zNzMgMTg4LjczOUM0MS45OTMgMTg3LjU2MiA0My4wMTI5IDE4Ny4wOTIgNDQuMjk3OSAxODcuMDkyQzQ5LjQ4NDkgMTg3LjA5MiA1OC45Mjk5IDE5NC44MTYgNjIuOTg4OSAxOTQuODE2QzYzLjg5NTkgMTk0LjgxNiA2NC41MzU5IDE5NC40MyA2NC43OTY5IDE5My40ODhDNjYuNTI2OSAxODcuMjg0IDM4LjUwMzkgMTg0LjY3NiA0MC44NjM5IDE3NS42OTJDNDEuMjc5OSAxNzQuMTAyIDQyLjQxIDE3My40NTYgNDMuOTk4IDE3My40NTZDNTAuODU2IDE3My40NTUgNjYuMjQ4IDE4NS41MTYgNjkuNDY3IDE4NS41MTZDNjkuNzE0IDE4NS41MTYgNjkuODkwOSAxODUuNDQzIDY5Ljk4NjkgMTg1LjI5MUM3MC4wMDA5IDE4NS4yNjggNzAuMDE1IDE4NS4yNDYgNzAuMDI4IDE4NS4yMjJDNzEuNTM5IDE4Mi43MjcgNzAuNjcxOSAxODAuOTEzIDYwLjMyMDkgMTc0LjU3M0w1OS4zMjY5IDE3My45NjhDNDcuOTM1OSAxNjcuMDc0IDM5Ljk0MDkgMTYyLjkyNSA0NC40ODc5IDE1Ny45NzVDNDUuMDEwOSAxNTcuNDA0IDQ1Ljc1MjkgMTU3LjE1MSA0Ni42NTM5IDE1Ny4xNTFDNDcuNzIxOSAxNTcuMTUxIDQ5LjAxNDkgMTU3LjUwOCA1MC40Mzg5IDE1OC4xMDhDNTYuNDU0OSAxNjAuNjQ1IDY0Ljc5MyAxNjcuNTY0IDY4LjI3NiAxNzAuNTgxQzY4LjgyMzkgMTcxLjA1NyA2OS4zNjgzIDE3MS41MzggNjkuOTA4OSAxNzIuMDIyQzY5LjkwODkgMTcyLjAyMiA3NC4zMTkgMTc2LjYwOCA3Ni45ODUgMTc2LjYwOEM3Ny41OTkgMTc2LjYwOCA3OC4xMTk5IDE3Ni4zNjYgNzguNDcyOSAxNzUuNzY4QzgwLjM2NCAxNzIuNTggNjAuOTA5OSAxNTcuODM4IDU5LjgxMjkgMTUxLjc1NUM1OS4wNjg5IDE0Ny42MzQgNjAuMzM0OSAxNDUuNTQ2IDYyLjY3NDkgMTQ1LjU0NkM2My43ODc5IDE0NS41NDYgNjUuMTQ1OSAxNDYuMDIgNjYuNjQ0OSAxNDYuOTcxQzcxLjI5NDkgMTQ5LjkyMiA4MC4yNzI5IDE2NS4zNSA4My41NTk5IDE3MS4zNTJDODQuNjYxOSAxNzMuMzYzIDg2LjU0MjkgMTc0LjIxMyA4OC4yMzc5IDE3NC4yMTNDOTEuNjAwOSAxNzQuMjEzIDk0LjIyOTkgMTcwLjg3IDg4LjU0NTkgMTY2LjYyMkM4MC4wMDI5IDE2MC4yMyA4My4wMDEgMTQ5Ljc4MiA4Ny4wNzggMTQ5LjEzOUM4Ny4yNTIgMTQ5LjExMSA4Ny40Mjc5IDE0OS4wOTcgODcuNjAyOSAxNDkuMDk3QzkxLjMxMDkgMTQ5LjA5NyA5Mi45NDU5IDE1NS40ODYgOTIuOTQ1OSAxNTUuNDg2QzkyLjk0NTkgMTU1LjQ4NiA5Ny43Mzk5IDE2Ny41MjQgMTA1Ljk3NSAxNzUuNzUzQzExMy40NDcgMTgzLjIyMiAxMTQuNDkxIDE4OS4zNTEgMTEwLjEzNyAxOTYuOTk3Wk0xMzYuNzY2IDE5OC40MDdMMTM2LjMzOSAxOTguNDU4TDEzNS42MTEgMTk4LjU0MUMxMzUuMjI4IDE5OC41ODEgMTM0Ljg0NCAxOTguNjE5IDEzNC40NTkgMTk4LjY1NEwxMzQuMDg0IDE5OC42ODhMMTMzLjc0MSAxOTguNzE3TDEzMy4yNTUgMTk4Ljc1NkwxMzIuNzE4IDE5OC43OTVMMTMyLjE4MiAxOTguODNMMTMyLjA2MyAxOTguODM4QzEzMS45MjMgMTk4Ljg0NiAxMzEuNzgzIDE5OC44NTUgMTMxLjY0MSAxOTguODYyTDEzMS40NjIgMTk4Ljg3MkMxMzEuMjk2IDE5OC44ODEgMTMxLjEzIDE5OC44ODkgMTMwLjk2MiAxOTguODk2TDEzMC4zODEgMTk4LjkyMUwxMjkuODU0IDE5OC45MzlMMTI5LjUwMiAxOTguOTQ5SDEyOS4zMjNDMTI5LjIxMyAxOTguOTQ5IDEyOS4xMDQgMTk4Ljk1NSAxMjguOTk0IDE5OC45NTZIMTI4LjgyQzEyOC43MSAxOTguOTU2IDEyOC42MDEgMTk4Ljk1NiAxMjguNDkxIDE5OC45NjFMMTI4LjA0MyAxOTguOTY3SDEyNy40MThDMTI2LjkyNyAxOTguOTY3IDEyNi40MzcgMTk4Ljk2MiAxMjUuOTQ5IDE5OC45NTJMMTI1LjU1MyAxOTguOTQzQzEyNS40NCAxOTguOTQzIDEyNS4zMjcgMTk4LjkzOCAxMjUuMjE2IDE5OC45MzRMMTI0Ljc5NiAxOTguOTIyTDEyNC4yNzUgMTk4LjkwMkwxMjMuODA1IDE5OC44ODFMMTIzLjY4NCAxOTguODc2TDEyMy4yMzcgMTk4Ljg1M0MxMjMuMTEyIDE5OC44NDYgMTIyLjk4OSAxOTguODQgMTIyLjg2NSAxOTguODMxTDEyMi41NzYgMTk4LjgxNEMxMjIuMjEzIDE5OC43OTEgMTIxLjg1IDE5OC43NjYgMTIxLjQ4NyAxOTguNzM4TDEyMS4xMDcgMTk4LjcwN0MxMjAuOTQ3IDE5OC42OTUgMTIwLjc4NyAxOTguNjggMTIwLjYyOCAxOTguNjY2QzEyMC40NDEgMTk4LjY1IDEyMC4yNTQgMTk4LjYzMiAxMjAuMDY3IDE5OC42MTRDMTE5Ljc1NCAxOTguNTg1IDExOS40NDEgMTk4LjU1MyAxMTkuMTI4IDE5OC41MTlIMTE5LjExM0MxMjMuNjgzIDE4OC4zMjQgMTIxLjM3MiAxNzguODAyIDExMi4xMzcgMTY5LjU3NUMxMDYuMDggMTYzLjUyNiAxMDIuMDUxIDE1NC41OTQgMTAxLjIxNSAxNTIuNjMzQzk5LjUyMjkgMTQ2LjgyOCA5NS4wNDUgMTQwLjM3NSA4Ny42MDggMTQwLjM3NUM4Ni45NzkgMTQwLjM3NSA4Ni4zNTEgMTQwLjQyNSA4NS43MyAxNDAuNTIzQzgyLjQ3MiAxNDEuMDM2IDc5LjYyNCAxNDIuOTExIDc3LjU5MiAxNDUuNzMzQzc1LjM5NiAxNDMuMDAyIDczLjI2MiAxNDAuODMxIDcxLjMzMiAxMzkuNjA1QzY4LjQyMiAxMzcuNzYgNjUuNTE3OSAxMzYuODI0IDYyLjY4ODkgMTM2LjgyNEM1OS4xNTc5IDEzNi44MjQgNTYuMDAxOSAxMzguMjc0IDUzLjgwMTkgMTQwLjkwNEw1My43NDU5IDE0MC45NzFDNTMuNzAzOSAxNDAuNzk4IDUzLjY2MzkgMTQwLjYyNSA1My42MjI5IDE0MC40NTFMNTMuNjE3OSAxNDAuNDI4QzUzLjE5OTIgMTM4LjYzOCA1Mi44NDc3IDEzNi44MzMgNTIuNTYzOSAxMzUuMDE2QzUyLjU2MzkgMTM1LjAwNCA1Mi41NjM5IDEzNC45OTIgNTIuNTU3OSAxMzQuOThDNTIuNTM1OSAxMzQuODQzIDUyLjUxNTkgMTM0LjcwNSA1Mi40OTQ5IDEzNC41NjhDNTIuNDMzNCAxMzQuMTYyIDUyLjM3NTcgMTMzLjc1NSA1Mi4zMjE5IDEzMy4zNDhDNTIuMjk3OSAxMzMuMTYzIDUyLjI3MTkgMTMyLjk3OCA1Mi4yNDg5IDEzMi43OTNMNTIuMTgwOSAxMzIuMjM4QzUyLjE1ODkgMTMyLjA1MyA1Mi4xNDA5IDEzMS44ODUgNTIuMTIwOSAxMzEuNzA5TDUyLjExNSAxMzEuNjY1QzUyLjAzNTEgMTMwLjk0NSA1MS45NjUxIDEzMC4yMjUgNTEuOTA0OSAxMjkuNTAzTDUxLjg4MjkgMTI5LjIyNkw1MS44NDc5IDEyOC43NTRDNTEuODM3OSAxMjguNjI1IDUxLjgyNzkgMTI4LjQ5NSA1MS44MjA5IDEyOC4zNjVDNTEuODIwOSAxMjguMzM0IDUxLjgxNTkgMTI4LjMwNCA1MS44MTQ5IDEyOC4yNzVDNTEuNzg5NSAxMjcuOTEzIDUxLjc2NzggMTI3LjU1IDUxLjc0OTkgMTI3LjE4N0M1MS43Mzk5IDEyNi45OTggNTEuNzI5OSAxMjYuODEgNTEuNzIxOSAxMjYuNjJMNTEuNzAxOSAxMjYuMTI0TDUxLjY5NjkgMTI1Ljk3NEw1MS42ODA5IDEyNS41MTdMNTEuNjcwOSAxMjUuMTI4QzUxLjY3MDkgMTI0Ljk3MyA1MS42NjI5IDEyNC44MTggNTEuNjYwOSAxMjQuNjYzQzUxLjY1NzkgMTI0LjUwOCA1MS42NTM5IDEyNC4zMzggNTEuNjUyOSAxMjQuMTc0QzUxLjY1MDkgMTI0LjAxIDUxLjY1MjkgMTIzLjg0OCA1MS42NDc5IDEyMy42ODVDNTEuNjQzOSAxMjMuNTIxIDUxLjY0NzkgMTIzLjM1OCA1MS42NDc5IDEyMy4xOTVDNTEuNjQ3OSA4MS4zNDIxIDg1LjU3ODkgNDcuNDExMSAxMjcuNDM2IDQ3LjQxMTFDMTY5LjI5MiA0Ny40MTExIDIwMy4yMjIgODEuMzQxMSAyMDMuMjIyIDEyMy4xOTVWMTI0LjE3NEMyMDMuMjIyIDEyNC4zMzcgMjAzLjIxNyAxMjQuNTAxIDIwMy4yMTQgMTI0LjY2M0MyMDMuMjE0IDEyNC43OTggMjAzLjIwOCAxMjQuOTMxIDIwMy4yMDQgMTI1LjA2OEMyMDMuMjA0IDEyNS4xODggMjAzLjE5OSAxMjUuMzA5IDIwMy4xOTUgMTI1LjQyNUMyMDMuMTk1IDEyNS41NzggMjAzLjE4NiAxMjUuNzMxIDIwMy4xODEgMTI1Ljg4NFYxMjUuODk2TDIwMy4xNiAxMjYuNDI3QzIwMy4xNTMgMTI2LjU4MiAyMDMuMTQ3IDEyNi43MzggMjAzLjEzOSAxMjYuODkzTDIwMy4xMzQgMTI3LjAwM0wyMDMuMTA3IDEyNy40OTlDMjAzLjA0OCAxMjguNTYyIDIwMi45NjcgMTI5LjYyMyAyMDIuODY2IDEzMC42ODNWMTMwLjY5NkMyMDIuODQ5IDEzMC44NyAyMDIuODMyIDEzMS4wNDQgMjAyLjgxMyAxMzEuMjE4TDIwMi43NjggMTMxLjYyOUwyMDIuNjc5IDEzMi40MzNMMjAyLjYyOCAxMzIuODRMMjAyLjU2NSAxMzMuMzE5QzIwMi41NDIgMTMzLjQ5MyAyMDIuNTE5IDEzMy42NjggMjAyLjQ5MyAxMzMuODQxQzIwMi40NjcgMTM0LjAzNiAyMDIuNDM4IDEzNC4yMyAyMDIuNDA5IDEzNC40MjRMMjAyLjM0IDEzNC44ODNMMjAyLjI1OCAxMzUuNDAzQzIwMi4yMyAxMzUuNTc2IDIwMi4yIDEzNS43NDggMjAyLjE2OCAxMzUuOTJDMjAyLjEzNSAxMzYuMDkzIDIwMi4xMDkgMTM2LjI2NSAyMDIuMDc5IDEzNi40MzdDMjAyLjAxOSAxMzYuNzgxIDIwMS45NTYgMTM3LjEyNSAyMDEuODkgMTM3LjQ2OEMyMDEuNzg5IDEzNy45ODEgMjAxLjY4NiAxMzguNDkzIDIwMS41OCAxMzkuMDA1TDIwMS40NyAxMzkuNTEyQzIwMS40MzQgMTM5LjY4MSAyMDEuMzk1IDEzOS44NTEgMjAxLjM1NyAxNDAuMDJDMTk5LjIyNCAxMzcuOTQ3IDE5Ni4zOTkgMTM2LjgxOCAxOTMuMjg0IDEzNi44MThDMTkwLjQ1NyAxMzYuODE4IDE4Ny41NSAxMzcuNzUzIDE4NC42NDEgMTM5LjU5OEMxODIuNzExIDE0MC44MjQgMTgwLjU3OCAxNDIuOTk2IDE3OC4zODEgMTQ1LjcyNkMxNzYuMzQ2IDE0Mi45MDQgMTczLjQ5OCAxNDEuMDI5IDE3MC4yNDIgMTQwLjUxNkMxNjkuNjIxIDE0MC40MTggMTY4Ljk5MyAxNDAuMzY4IDE2OC4zNjQgMTQwLjM2OEMxNjAuOTI1IDE0MC4zNjggMTU2LjQ1IDE0Ni44MjEgMTU0Ljc1NyAxNTIuNjI2QzE1My45MTcgMTU0LjU4NyAxNDkuODg3IDE2My41MTkgMTQzLjgyNSAxNjkuNTc3QzEzNC41OTYgMTc4Ljc3NSAxMzIuMjY4IDE4OC4yNTQgMTM2Ljc2NiAxOTguNDA3Wk0yMTUuMDA3IDE3Ny45OThMMjE0Ljk3NyAxNzguMDg3QzIxNC45MDEgMTc4LjI4OCAyMTQuODEzIDE3OC40ODQgMjE0LjcxNCAxNzguNjc0QzIxNC42MzkgMTc4LjgxNCAyMTQuNTU4IDE3OC45NSAyMTQuNDcgMTc5LjA4MkMyMTQuMzAzIDE3OS4zMzEgMjE0LjEyIDE3OS41NjkgMjEzLjkyMSAxNzkuNzkzQzIxMy44NzUgMTc5Ljg0NSAyMTMuODMxIDE3OS44OTcgMjEzLjc3OSAxNzkuOTQ4QzIxMy43MDcgMTgwLjAyNSAyMTMuNjM0IDE4MC4xMDEgMjEzLjU1OSAxODAuMTc1QzIxMi4yMTMgMTgxLjUwOSAyMTAuMTYxIDE4Mi42NzkgMjA3Ljg0MSAxODMuNzUyQzIwNy41NzggMTgzLjg3MSAyMDcuMzExIDE4My45OSAyMDcuMDQyIDE4NC4xMUwyMDYuNzc0IDE4NC4yMjlDMjA2LjU5NSAxODQuMzA4IDIwNi40MTYgMTg0LjM4NiAyMDYuMjI4IDE4NC40NjNDMjA2LjA0OSAxODQuNTQxIDIwNS44NjMgMTg0LjYxOSAyMDUuNjc3IDE4NC42OTVMMjA1LjExOSAxODQuOTI1QzIwMy44MTQgMTg1LjQ2MiAyMDIuNDc3IDE4NS45NzQgMjAxLjE3MyAxODYuNDc5TDIwMC42MTUgMTg2LjY5NkwyMDAuMDY0IDE4Ni45MTJDMTk5LjY5NyAxODcuMDU1IDE5OS4zMzUgMTg3LjE5OCAxOTguOTc5IDE4Ny4zNDFMMTk4LjQ0OCAxODcuNTU1TDE5Ny45MjYgMTg3Ljc2OEwxOTcuNjcgMTg3Ljg3NkMxOTcuNDk5IDE4Ny45NDcgMTk3LjMzMiAxODguMDE4IDE5Ny4xNjUgMTg4LjA4OUMxOTMuMzI4IDE4OS43MzYgMTkwLjU2NyAxOTEuNDExIDE5MS4xNDcgMTkzLjQ4OUMxOTEuMTYzIDE5My41NDggMTkxLjE4MSAxOTMuNjA0IDE5MS4yMDEgMTkzLjY1OUMxOTEuMjUzIDE5My44MTMgMTkxLjMyNCAxOTMuOTU4IDE5MS40MTMgMTk0LjA5NUMxOTEuNDY1IDE5NC4xNzYgMTkxLjUyNSAxOTQuMjUzIDE5MS41OTIgMTk0LjMyM0MxOTIuMjc0IDE5NS4wMzIgMTkzLjUxNSAxOTQuOTIgMTk1LjA4IDE5NC4zNTdDMTk1LjMgMTk0LjI3NiAxOTUuNTE5IDE5NC4xOTIgMTk1LjczNiAxOTQuMTA0TDE5NS44NzIgMTk0LjA0OEMxOTYuMjMgMTkzLjg5NiAxOTYuNjA5IDE5My43MjYgMTk2Ljk5NiAxOTMuNTQyQzE5Ny4wOTMgMTkzLjQ5NiAxOTcuMTkxIDE5My40NTIgMTk3LjI4OSAxOTMuNDAxQzE5OS4yMDMgMTkyLjQ2NSAyMDEuMzcyIDE5MS4yMDUgMjAzLjUyNCAxOTAuMDU4QzIwNC4zODUgMTg5LjU5MyAyMDUuMjU4IDE4OS4xNTIgMjA2LjE0MiAxODguNzMzQzIwOC4xOCAxODcuNzc0IDIxMC4wOTYgMTg3LjA5NCAyMTEuNjM2IDE4Ny4wOTRDMjEyLjM1OSAxODcuMDk0IDIxMi45OTcgMTg3LjI0MiAyMTMuNTI5IDE4Ny41ODJMMjEzLjYxOCAxODcuNjQxQzIxMy45NTIgMTg3Ljg3NiAyMTQuMjMyIDE4OC4xNzggMjE0LjQ0MSAxODguNTI4QzIxNC40ODIgMTg4LjU5NSAyMTQuNTIyIDE4OC42NjYgMjE0LjU2MSAxODguNzM5QzIxNS4zMjIgMTkwLjE4NCAyMTQuNjg1IDE5MS42OCAyMTMuMTk0IDE5My4xNDdDMjExLjc2MyAxOTQuNTU2IDIwOS41MzcgMTk1LjkzNyAyMDcuMDA3IDE5Ny4yMTVDMjA2LjgxOSAxOTcuMzEgMjA2LjYzMSAxOTcuNDA1IDIwNi40NCAxOTcuNDk4QzE5OC45MSAyMDEuMTk2IDE4OS4wNDkgMjAzLjk4MSAxODguOTEyIDIwNC4wMTZDMTg2LjI4NCAyMDQuNjk3IDE4Mi41MjYgMjA1LjU5MSAxNzguMjkyIDIwNi4yNkwxNzcuNjY2IDIwNi4zNThMMTc3LjU2MyAyMDYuMzczQzE3Ny4wODkgMjA2LjQ0NSAxNzYuNjE0IDIwNi41MTIgMTc2LjEzOCAyMDYuNTc0QzE3NS42NTUgMjA2LjYzOSAxNzUuMTY3IDIwNi42OTggMTc0LjY3NiAyMDYuNzUzTDE3NC41ODYgMjA2Ljc2M0MxNzIuODA2IDIwNi45NjggMTcxLjAxOSAyMDcuMTA0IDE2OS4yMjggMjA3LjE2OUgxNjkuMjAyQzE2OC41NTQgMjA3LjE5MiAxNjcuOTA3IDIwNy4yMDQgMTY3LjI1OSAyMDcuMjA0SDE2Ni41MTJDMTY1LjUyNCAyMDcuMTkxIDE2NC41MzggMjA3LjE0NiAxNjMuNTUzIDIwNy4wN0MxNjMuNTMgMjA3LjA3IDE2My41MDUgMjA3LjA3IDE2My40ODIgMjA3LjA2NEMxNjMuMTI5IDIwNy4wMzcgMTYyLjc3NyAyMDcuMDA0IDE2Mi40MjUgMjA2Ljk2NUMxNjIuMDYgMjA2LjkyNiAxNjEuNjk2IDIwNi44ODIgMTYxLjMzMyAyMDYuODMzQzE2MS4wOTQgMjA2LjgwMSAxNjAuODU2IDIwNi43NjUgMTYwLjYxOCAyMDYuNzI2QzE2MC4zNzYgMjA2LjY4NyAxNjAuMTM0IDIwNi42NDcgMTU5Ljg5MyAyMDYuNjA1TDE1OS41NjQgMjA2LjU0M0wxNTkuNTM5IDIwNi41MzhDMTU5LjE5MiAyMDYuNDcyIDE1OC44NDcgMjA2LjM5OSAxNTguNTAzIDIwNi4zMTlDMTU4LjMwMyAyMDYuMjc0IDE1OC4xMDQgMjA2LjIzIDE1Ny45MDcgMjA2LjE3NkwxNTcuNzg4IDIwNi4xNDZDMTU3LjY5IDIwNi4xMjIgMTU3LjU5NSAyMDYuMDk2IDE1Ny40OTggMjA2LjA3TDE1Ny40NDUgMjA2LjA1NkwxNTcuMTM3IDIwNS45NjZDMTU3LjAyNSAyMDUuOTM1IDE1Ni45MTMgMjA1LjkwMSAxNTYuODAxIDIwNS44NjhMMTU2Ljc2MiAyMDUuODU3TDE1Ni40NzEgMjA1Ljc2OEMxNTYuMzYxIDIwNS43MzQgMTU2LjI1MSAyMDUuNjk4IDE1Ni4xNDIgMjA1LjY2MkwxNTUuODc0IDIwNS41NzNMMTU1LjY3NyAyMDUuNTA0QzE1NS40ODcgMjA1LjQzNyAxNTUuMjk4IDIwNS4zNjggMTU1LjExMSAyMDUuMjk2TDE1NC45MzMgMjA1LjIyNkwxNTQuNzg2IDIwNS4xNjhDMTU0LjUwMiAyMDUuMDU0IDE1NC4yMiAyMDQuOTM1IDE1My45NDEgMjA0LjgxTDE1My43NTYgMjA0LjcyTDE1My43MjUgMjA0LjcwNkMxNTMuNjU5IDIwNC42NzUgMTUzLjU5NCAyMDQuNjQ0IDE1My41MjggMjA0LjYxN0MxNTMuMzk5IDIwNC41NTUgMTUzLjI3MSAyMDQuNDkxIDE1My4xNDQgMjA0LjQyNkwxNTMuMTA1IDIwNC40MDdMMTUyLjkyMSAyMDQuMzFDMTUyLjU5NCAyMDQuMTM5IDE1Mi4yNzQgMjAzLjk1NyAxNTEuOTYgMjAzLjc2NEwxNTEuNzg4IDIwMy42NThDMTUxLjcwMiAyMDMuNjA1IDE1MS42MTYgMjAzLjU1IDE1MS41MzIgMjAzLjQ5NEwxNTEuMzA4IDIwMy4zNDZMMTUxLjA2NyAyMDMuMThMMTUwLjkyMyAyMDMuMDc3QzE1MC43NzEgMjAyLjk2OSAxNTAuNjIyIDIwMi44NTcgMTUwLjQ3NiAyMDIuNzQyTDE1MC4yNDMgMjAyLjU2M0MxNTAuMTUgMjAyLjQ4OCAxNTAuMDU4IDIwMi40MTIgMTQ5Ljk2NyAyMDIuMzM1QzE0OS44OSAyMDIuMjcyIDE0OS44MTUgMjAyLjIwNiAxNDkuNzQgMjAyLjE0TDE0OS43MzQgMjAyLjEzNUMxNDkuNjUzIDIwMi4wNjQgMTQ5LjU3NCAyMDEuOTkzIDE0OS40OTUgMjAxLjkyQzE0OS40MTcgMjAxLjg0OSAxNDkuMzM5IDIwMS43NzcgMTQ5LjI2MyAyMDEuNzA0TDE0OS4yNTQgMjAxLjY5NUMxNDkuMTc0IDIwMS42MTkgMTQ5LjA5NiAyMDEuNTQyIDE0OS4wMTkgMjAxLjQ2M0MxNDguOTQyIDIwMS4zODUgMTQ4Ljg2MyAyMDEuMzA3IDE0OC43ODggMjAxLjIyN0MxNDguNzEzIDIwMS4xNDggMTQ4LjYzNiAyMDEuMDY3IDE0OC41NjIgMjAwLjk4NEMxNDguNDg4IDIwMC45MDIgMTQ4LjQyIDIwMC44MjcgMTQ4LjM1IDIwMC43NDZMMTQ4LjMyNyAyMDAuNzE5QzE0OC4yNTkgMjAwLjY0MSAxNDguMTkyIDIwMC41NjIgMTQ4LjEyNiAyMDAuNDgxQzE0Ny45ODMgMjAwLjMxIDE0Ny44NDQgMjAwLjEzNSAxNDcuNzEgMTk5Ljk1NkMxNDcuNTc1IDE5OS43NzYgMTQ3LjQ0MyAxOTkuNTkyIDE0Ny4zMTQgMTk5LjQwNUwxNDcuMTkxIDE5OS4yMjFDMTQ3LjAyNyAxOTguOTgxIDE0Ni44NjcgMTk4LjczOSAxNDYuNzEyIDE5OC40OTNDMTQ2LjU5NiAxOTguMzE2IDE0Ni40ODMgMTk4LjEzOCAxNDYuMzczIDE5Ny45NTdDMTQ2LjMwMiAxOTcuODQ0IDE0Ni4yMzQgMTk3LjczIDE0Ni4xNjYgMTk3LjYxOEwxNDYuMTM4IDE5Ny41NzJDMTQ2LjA3MyAxOTcuNDYyIDE0Ni4wMDkgMTk3LjM1NCAxNDUuOTQ3IDE5Ny4yNDVDMTQ1LjkxMSAxOTcuMTg2IDE0NS44NzcgMTk3LjEyNyAxNDUuODQ1IDE5Ny4wNjZDMTQ1LjgxMiAxOTcuMDA0IDE0NS43NzQgMTk2Ljk0MSAxNDUuNzM5IDE5Ni44NzhMMTQ1LjY4MiAxOTYuNzc5TDE0NS42NDcgMTk2LjcxNUMxNDUuNTggMTk2LjU5NSAxNDUuNTE0IDE5Ni40NzQgMTQ1LjQ1IDE5Ni4zNTJDMTQ1LjQyIDE5Ni4yOTggMTQ1LjM5MSAxOTYuMjQ0IDE0NS4zNiAxOTYuMTkyTDE0NS4yNzEgMTk2LjAxOUwxNDUuMTgxIDE5NS44NDhDMTQ0Ljk1NiAxOTUuMzk4IDE0NC43NDMgMTk0Ljk0MiAxNDQuNTQzIDE5NC40OEwxNDQuNDcyIDE5NC4zMTFDMTQ0LjQyNiAxOTQuMTk4IDE0NC4zODMgMTk0LjA4NiAxNDQuMzM3IDE5My45NzVDMTQ0LjMxNSAxOTMuOTIxIDE0NC4yOTMgMTkzLjg2OCAxNDQuMjc0IDE5My44MTRDMTQ0LjE2NyAxOTMuNTM3IDE0NC4wNjcgMTkzLjI1NyAxNDMuOTc1IDE5Mi45NzVDMTQzLjk0MiAxOTIuODc0IDE0My45MSAxOTIuNzc1IDE0My44OCAxOTIuNjc1QzE0My44MDggMTkyLjQ0OCAxNDMuNzQzIDE5Mi4yMTkgMTQzLjY4NSAxOTEuOTg4QzE0My42MTQgMTkxLjcxOSAxNDMuNTUxIDE5MS40NDggMTQzLjQ5OCAxOTEuMTc1QzE0My40ODcgMTkxLjEyIDE0My40NzYgMTkxLjA2NSAxNDMuNDY3IDE5MS4wMTJDMTQzLjQxNSAxOTAuNzQ1IDE0My4zNzMgMTkwLjQ3NiAxNDMuMzQgMTkwLjIwNkMxNDMuMzMyIDE5MC4xNTMgMTQzLjMyNiAxOTAuMSAxNDMuMzIgMTkwLjA0N0wxNDMuMzAzIDE4OS44ODVDMTQzLjI4MSAxODkuNjczIDE0My4yNjQgMTg5LjQ2IDE0My4yNTQgMTg5LjI0N0MxNDMuMjU0IDE4OS4xOTMgMTQzLjI0OSAxODkuMTM5IDE0My4yNDcgMTg5LjA4N0MxNDMuMjQyIDE4OC45ODEgMTQzLjI0IDE4OC44NzUgMTQzLjIzOSAxODguNzY5QzE0My4xODMgMTg0LjQ5NiAxNDUuMzQ1IDE4MC4zODggMTQ5Ljk2OCAxNzUuNzY3QzE1OC4yMDMgMTY3LjU0IDE2Mi45OTcgMTU1LjUwMSAxNjIuOTk3IDE1NS41MDFDMTYyLjk5NyAxNTUuNTAxIDE2My4xMjYgMTU0Ljk5NiAxNjMuMzk0IDE1NC4yNjlDMTYzLjQzMSAxNTQuMTY4IDE2My40NyAxNTQuMDY0IDE2My41MTQgMTUzLjk1NUMxNjMuNjcgMTUzLjU0OCAxNjMuODQ2IDE1My4xNDggMTY0LjA0MSAxNTIuNzU4TDE2NC4wOCAxNTIuNjgzQzE2NC4yNDYgMTUyLjM1MSAxNjQuNDI4IDE1Mi4wMjcgMTY0LjYyNCAxNTEuNzEyQzE2NC42NyAxNTEuNjM5IDE2NC43MTQgMTUxLjU2NyAxNjQuNzY1IDE1MS40OTRDMTY0LjkxMiAxNTEuMjc3IDE2NS4wNjcgMTUxLjA2NSAxNjUuMjMgMTUwLjg2QzE2NS4zMTkgMTUwLjc0OSAxNjUuNDE2IDE1MC42MzkgMTY1LjUxMyAxNTAuNTMyQzE2NS41NTIgMTUwLjQ5IDE2NS41OSAxNTAuNDQ4IDE2NS42MzEgMTUwLjQwOEMxNjYuMTA4IDE0OS45MTUgMTY2LjY1MyAxNDkuNTEzIDE2Ny4yNyAxNDkuMjk5TDE2Ny4zNDggMTQ5LjI3M0MxNjcuNCAxNDkuMjU2IDE2Ny40NTIgMTQ5LjI0IDE2Ny41MDUgMTQ5LjIyNUMxNjcuNTY2IDE0OS4yMDkgMTY3LjYyNyAxNDkuMTk1IDE2Ny42OSAxNDkuMTgyTDE2Ny43MTkgMTQ5LjE3NkMxNjcuODQ5IDE0OS4xNSAxNjcuOTgxIDE0OS4xMzMgMTY4LjExNCAxNDkuMTI0SDE2OC4xMjVDMTY4LjE5NCAxNDkuMTI0IDE2OC4yNjQgMTQ5LjExNyAxNjguMzM1IDE0OS4xMTdDMTY4LjQyNCAxNDkuMTE3IDE2OC41MDcgMTQ5LjExNyAxNjguNTk0IDE0OS4xMjZDMTY4LjY4NCAxNDkuMTM0IDE2OC43NzMgMTQ5LjE0NCAxNjguODYzIDE0OS4xNThDMTY5LjYwNSAxNDkuMjc2IDE3MC4zMTEgMTQ5LjcxOCAxNzAuOTE5IDE1MC40QzE3MS4xNSAxNTAuNjYgMTcxLjM1OCAxNTAuOTQgMTcxLjU0IDE1MS4yMzZDMTcxLjY2IDE1MS40MjggMTcxLjc3MyAxNTEuNjMxIDE3MS44OCAxNTEuODQ1QzE3MS45MjMgMTUxLjkzNCAxNzEuOTY0IDE1Mi4wMTYgMTcyLjAwNCAxNTIuMTA0QzE3Mi4xMDggMTUyLjMzIDE3Mi4yMDIgMTUyLjU2IDE3Mi4yODQgMTUyLjc5NUMxNzIuNDc5IDE1My4zNDUgMTcyLjYyNiAxNTMuOTExIDE3Mi43MjMgMTU0LjQ4N0MxNzIuODA3IDE1NC45OTIgMTcyLjg1NyAxNTUuNTAyIDE3Mi44NzMgMTU2LjAxM0MxNzIuODgxIDE1Ni4yODYgMTcyLjg4MSAxNTYuNTYzIDE3Mi44NzMgMTU2Ljg0MkMxNzIuODE5IDE1OC4xNCAxNzIuNTUzIDE1OS40MjEgMTcyLjA4NiAxNjAuNjM0QzE3Mi4wNDQgMTYwLjc0NSAxNzEuOTk3IDE2MC44NTcgMTcxLjk1MiAxNjAuOTY5QzE3MS44NiAxNjEuMTk1IDE3MS43NTkgMTYxLjQxNyAxNzEuNjUgMTYxLjYzNEMxNzEuNTY5IDE2MS43OTkgMTcxLjQ4NCAxNjEuOTY1IDE3MS4zOTIgMTYyLjEzQzE3MS4zMzIgMTYyLjI0IDE3MS4yNjkgMTYyLjM1IDE3MS4yMDYgMTYyLjQ2QzE3MS4wNDUgMTYyLjczNCAxNzAuODcxIDE2My4wMDYgMTcwLjY4NCAxNjMuMjc3TDE3MC41NzEgMTYzLjQzOUMxNzAuMTI5IDE2NC4wNTUgMTY5LjYzNyAxNjQuNjMzIDE2OS4wOTkgMTY1LjE2N0MxNjguNTY5IDE2NS42OTggMTY4LjAwMSAxNjYuMTg5IDE2Ny40IDE2Ni42MzdDMTY2Ljc5OCAxNjcuMDgzIDE2Ni4yMzMgMTY3LjU3NyAxNjUuNzExIDE2OC4xMTRDMTY0LjIwOCAxNjkuNjkxIDE2My44NTggMTcxLjA4MyAxNjQuMTk2IDE3Mi4xMzhDMTY0LjI1IDE3Mi4zMDQgMTY0LjMyMSAxNzIuNDY1IDE2NC40MDcgMTcyLjYxN0MxNjQuNTA4IDE3Mi43OTEgMTY0LjYyOCAxNzIuOTUxIDE2NC43NjQgMTczLjA5N0wxNjQuODE3IDE3My4xNTJMMTY0Ljg3MSAxNzMuMjA2QzE2NC45MjUgMTczLjI1OCAxNjQuOTgyIDE3My4zMDkgMTY1LjA0MyAxNzMuMzU5TDE2NS4xMDMgMTczLjQwN0MxNjUuMjQ4IDE3My41MTkgMTY1LjQwMiAxNzMuNjE5IDE2NS41NjMgMTczLjcwN0MxNjUuNjEgMTczLjczMiAxNjUuNjUyIDE3My43NTcgMTY1LjcwNSAxNzMuNzgxQzE2NS44NzkgMTczLjg2NiAxNjYuMDU4IDE3My45MzkgMTY2LjI0MiAxNzMuOTk4QzE2Ni4yOTMgMTc0LjAxNSAxNjYuMzQ0IDE3NC4wMyAxNjYuMzk2IDE3NC4wNDZMMTY2LjQ2MSAxNzQuMDYzTDE2Ni41NTEgMTc0LjA4N0wxNjYuNjI4IDE3NC4xMDZMMTY2LjcxMiAxNzQuMTI0TDE2Ni43OTUgMTc0LjE0MUwxNjYuODc0IDE3NC4xNTRDMTY2LjkzMiAxNzQuMTY0IDE2Ni45OTIgMTc0LjE3NCAxNjcuMDUyIDE3NC4xODFMMTY3LjEwOSAxNzQuMTlMMTY3LjIxMyAxNzQuMkwxNjcuMjc3IDE3NC4yMDdMMTY3LjM4MiAxNzQuMjE0SDE2Ny40NDRMMTY3LjU1NCAxNzQuMjJIMTY3LjlMMTY3Ljk5OSAxNzQuMjE0TDE2OC4xMTMgMTc0LjIwN0wxNjguMjUyIDE3NC4xOTRMMTY4LjM4MiAxNzQuMTc5QzE2OC40MTIgMTc0LjE3OSAxNjguNDQyIDE3NC4xNzEgMTY4LjQ3MiAxNzQuMTY1QzE2OC44NzIgMTc0LjEwNyAxNjkuMjY0IDE3NC4wMDEgMTY5LjYzOSAxNzMuODQ5TDE2OS43OTggMTczLjc4MkMxNjkuODg3IDE3My43NDMgMTY5Ljk3NyAxNzMuNzAyIDE3MC4wNTkgMTczLjY1OEMxNzAuMjM1IDE3My41NyAxNzAuNDA2IDE3My40NyAxNzAuNTcgMTczLjM2MUMxNzAuNzk5IDE3My4yMTEgMTcxLjAxNSAxNzMuMDQzIDE3MS4yMTcgMTcyLjg1OEMxNzEuMjY1IDE3Mi44MTUgMTcxLjMxMiAxNzIuNzY5IDE3MS4zNTggMTcyLjcyNUMxNzEuMzgxIDE3Mi43MDMgMTcxLjQwMyAxNzIuNjgyIDE3MS40MjUgMTcyLjY1OEMxNzEuNDY5IDE3Mi42MTMgMTcxLjUxNCAxNzIuNTY5IDE3MS41NTggMTcyLjUyQzE3MS44NzggMTcyLjE2OCAxNzIuMTU1IDE3MS43OCAxNzIuMzgzIDE3MS4zNjNDMTc0LjM0IDE2Ny44MDQgMTc2LjM5MSAxNjQuMjk4IDE3OC41MzQgMTYwLjg0OUwxNzguODI4IDE2MC4zNzhMMTc5LjEyNSAxNTkuOTA3QzE3OS4yNzMgMTU5LjY2OCAxNzkuNDIzIDE1OS40MzMgMTc5LjU3MiAxNTkuMTk5TDE3OS43MjIgMTU4Ljk2NUMxODAuMjIgMTU4LjE4NSAxODAuNzI2IDE1Ny40MSAxODEuMjQxIDE1Ni42NDFMMTgxLjU0NiAxNTYuMTg1QzE4Mi4xNTggMTU1LjI3OCAxODIuNzY4IDE1NC4zOTYgMTgzLjM3MyAxNTMuNTU4TDE4My42NzQgMTUzLjE0M0MxODQuMzMyIDE1Mi4yMzYgMTg1LjAxNyAxNTEuMzQ4IDE4NS43MjggMTUwLjQ4MkwxODYuMDEgMTUwLjE0NEMxODYuMDU3IDE1MC4wODggMTg2LjEgMTUwLjAzMiAxODYuMTUxIDE0OS45NzhDMTg2LjI0NCAxNDkuODY4IDE4Ni4zMzcgMTQ5Ljc2MSAxODYuNDI4IDE0OS42NTdDMTg2LjQ3NCAxNDkuNjA0IDE4Ni41MTcgMTQ5LjU1MiAxODYuNTY2IDE0OS41TDE4Ni44MzQgMTQ5LjE5OEwxODYuOTY4IDE0OS4wNTFDMTg3LjEwMyAxNDguOTA2IDE4Ny4yMzUgMTQ4Ljc2NyAxODcuMzY1IDE0OC42MzRDMTg3LjQ1NSAxNDguNTQ0IDE4Ny41MzggMTQ4LjQ1NSAxODcuNjI0IDE0OC4zNzFDMTg4LjEzMSAxNDcuODUzIDE4OC42OSAxNDcuMzg4IDE4OS4yOTMgMTQ2Ljk4NUwxODkuNDMzIDE0Ni44OTVDMTg5LjU2NyAxNDYuODA1IDE4OS43MDYgMTQ2LjcyMSAxODkuODQ4IDE0Ni42NDVDMTkyLjIxMiAxNDUuMzAzIDE5NC4xNjkgMTQ1LjIwNCAxOTUuMjk2IDE0Ni4zMzFDMTk1Ljk3OCAxNDcuMDEzIDE5Ni4zNTYgMTQ4LjE0NCAxOTYuMzM1IDE0OS43MThDMTk2LjMzNSAxNDkuNzg3IDE5Ni4zMzUgMTQ5Ljg1NyAxOTYuMzMgMTQ5LjkyOVYxNTAuMDA2QzE5Ni4zMyAxNTAuMDc4IDE5Ni4zMjQgMTUwLjE1IDE5Ni4zMTggMTUwLjIyM0MxOTYuMzE4IDE1MC4zMTMgMTk2LjMwOCAxNTAuNDAyIDE5Ni4yOTkgMTUwLjQ5MkMxOTYuMjkgMTUwLjU4MSAxOTYuMjg1IDE1MC42NDkgMTk2LjI3NiAxNTAuNzI5QzE5Ni4yNzYgMTUwLjc1MSAxOTYuMjcyIDE1MC43NzQgMTk2LjI2OCAxNTAuNzk4QzE5Ni4yNjIgMTUwLjg2NyAxOTYuMjUzIDE1MC45MzggMTk2LjI0MyAxNTEuMDA5QzE5Ni4yNDMgMTUxLjAzIDE5Ni4yNDMgMTUxLjA1MiAxOTYuMjM1IDE1MS4wNzRDMTk2LjIyNCAxNTEuMTY5IDE5Ni4yMSAxNTEuMjYzIDE5Ni4xOTQgMTUxLjM1N0MxOTYuMTgzIDE1MS40NDcgMTk2LjE2OCAxNTEuNTMxIDE5Ni4xNTIgMTUxLjYxOUwxOTYuMTI2IDE1MS43NjhDMTk2LjEgMTUxLjkxIDE5Ni4wNjcgMTUyLjA1IDE5Ni4wMjYgMTUyLjE4OEMxOTUuOTQ4IDE1Mi40NDcgMTk1Ljg1NCAxNTIuNyAxOTUuNzQzIDE1Mi45NDZDMTk1LjU4OCAxNTMuMjg0IDE5NS40MTcgMTUzLjYxMyAxOTUuMjI5IDE1My45MzNDMTk1LjEyNSAxNTQuMTExIDE5NS4wMTggMTU0LjI4NiAxOTQuOTA3IDE1NC40NTlDMTk0Ljc5MyAxNTQuNjM4IDE5NC42NzMgMTU0LjgxOSAxOTQuNTQ5IDE1NS4wMDJDMTk0LjIzMyAxNTUuNDU0IDE5My45MDUgMTU1Ljg5NyAxOTMuNTY0IDE1Ni4zM0wxOTMuNDA4IDE1Ni41MjdDMTkyLjg1MiAxNTcuMjIgMTkyLjI3OCAxNTcuODk5IDE5MS42ODYgMTU4LjU2MkwxOTEuNDk5IDE1OC43NzJDMTkxLjI0NyAxNTkuMDUzIDE5MC45OTEgMTU5LjMzNiAxOTAuNzI5IDE1OS42MkwxOTAuNTMyIDE1OS44MzRDMTkwLjQwMSAxNTkuOTc3IDE5MC4yNjQgMTYwLjEyIDE5MC4xMzIgMTYwLjI2NEMxOTAuMDAxIDE2MC40MDcgMTg5Ljg2NCAxNjAuNTUyIDE4OS43MjYgMTYwLjY5N0wxODkuMzE1IDE2MS4xM0wxODguODk4IDE2MS41NjZMMTg4LjQ3OCAxNjIuMDAyQzE4OC4xOTYgMTYyLjI5NCAxODcuOTEzIDE2Mi41ODYgMTg3LjYyOCAxNjIuODc4QzE4My41NzMgMTY3LjAzNyAxNzkuMzAxIDE3MS4xODIgMTc3Ljg1NSAxNzMuNzY2QzE3Ny43NTggMTczLjkzNCAxNzcuNjcxIDE3NC4xMDggMTc3LjU5MyAxNzQuMjg1QzE3Ny4zODcgMTc0Ljc1NSAxNzcuMzAxIDE3NS4xNTcgMTc3LjM2IDE3NS40ODJDMTc3LjM3OSAxNzUuNTg5IDE3Ny40MTYgMTc1LjY5MSAxNzcuNDcxIDE3NS43ODVDMTc3LjU1MiAxNzUuOTI2IDE3Ny42NTEgMTc2LjA1NiAxNzcuNzY2IDE3Ni4xNzJDMTc3LjgxOSAxNzYuMjI0IDE3Ny44NzUgMTc2LjI3MiAxNzcuOTM0IDE3Ni4zMTZDMTc4LjIzMiAxNzYuNTI4IDE3OC41OTEgMTc2LjYzNyAxNzguOTU3IDE3Ni42MjdIMTc5LjA3MUwxNzkuMTg4IDE3Ni42MThMMTc5LjMwNSAxNzYuNjA1TDE3OS40MDIgMTc2LjU5MUMxNzkuNDE1IDE3Ni41ODkgMTc5LjQyOSAxNzYuNTg3IDE3OS40NDIgMTc2LjU4M0wxNzkuNTMxIDE3Ni41NjZMMTc5LjU1NCAxNzYuNTYxTDE3OS42NTMgMTc2LjU0TDE3OS42ODggMTc2LjUzMUMxNzkuNzIzIDE3Ni41MjIgMTc5Ljc1NyAxNzYuNTEzIDE3OS43OTIgMTc2LjUwM0MxNzkuODI3IDE3Ni40OTMgMTc5Ljg3NSAxNzYuNDggMTc5LjkxNyAxNzYuNDY2QzE4MC4wOTMgMTc2LjQxMyAxODAuMjY1IDE3Ni4zNSAxODAuNDM0IDE3Ni4yNzhDMTgwLjUyMyAxNzYuMjQyIDE4MC42MSAxNzYuMjAzIDE4MC42OTYgMTc2LjE2MUMxODAuNzQxIDE3Ni4xNDEgMTgwLjc4NiAxNzYuMTIgMTgwLjgyOCAxNzYuMDk4TDE4MC45NjIgMTc2LjAzMkMxODEuMjgyIDE3NS44NjYgMTgxLjU5NCAxNzUuNjg1IDE4MS44OTggMTc1LjQ5MUwxODIuMDMxIDE3NS40MDFDMTgyLjA3NiAxNzUuMzczIDE4Mi4xMjEgMTc1LjM0NCAxODIuMTY0IDE3NS4zMTJMMTgyLjI5NyAxNzUuMjIzTDE4Mi4zNjggMTc1LjE3NEwxODIuNTYgMTc1LjAzOUMxODIuNzM5IDE3NC45MTYgMTgyLjkwNiAxNzQuNzg5IDE4My4wNzUgMTc0LjY2TDE4My4wOSAxNzQuNjQ4TDE4My4zNTkgMTc0LjQ0QzE4My43MjYgMTc0LjE1IDE4NC4wNzQgMTczLjg1OCAxODQuMzkgMTczLjU4M0wxODQuNiAxNzMuMzk5TDE4NC42MTkgMTczLjM4MUwxODQuNzI5IDE3My4yODRDMTg0Ljk4NyAxNzMuMDUyIDE4NS4yMTcgMTcyLjgzNiAxODUuNDA4IDE3Mi42NThMMTg1LjQ4NyAxNzIuNTgxQzE4NS41NTYgMTcyLjUxNiAxODUuNjE5IDE3Mi40NTUgMTg1LjY3NiAxNzIuNDAzTDE4NS43ODggMTcyLjI5MkwxODUuODI4IDE3Mi4yNTNMMTg1LjgzOSAxNzIuMjQyTDE4NS45NTYgMTcyLjEyNUwxODYuMDMgMTcyLjA0OEwxODYuMDM5IDE3Mi4wNDFMMTg2LjA3NCAxNzIuMDA5TDE4Ni4xMTggMTcxLjk2OUwxODYuMTMyIDE3MS45NTZMMTg2LjE2OSAxNzEuOTIyTDE4Ni4zNzMgMTcxLjc0M0wxODYuNDg3IDE3MS42NDFDMTg2LjU0OCAxNzEuNTg4IDE4Ni42MDcgMTcxLjUzNCAxODYuNjY2IDE3MS40NzlMMTg2LjgwMiAxNzEuMzU4QzE4Ni44MjcgMTcxLjMzOCAxODYuODUxIDE3MS4zMTYgMTg2Ljg3NiAxNzEuMjk0TDE4Ny4wMTkgMTcxLjE2OUwxODcuMjI5IDE3MC45ODRMMTg3LjM0MSAxNzAuODg3QzE4Ny43NzYgMTcwLjUwOSAxODguMzA1IDE3MC4wNTIgMTg4LjkxMyAxNjkuNTM3TDE4OS4xNjIgMTY5LjMyNkwxODkuNTczIDE2OC45ODFMMTg5Ljk5NCAxNjguNjNDMTkwLjU0NCAxNjguMTczIDE5MS4xMzYgMTY3LjY4OCAxOTEuNzYyIDE2Ny4xODVMMTkyLjE3MyAxNjYuODU1QzE5Mi41MjMgMTY2LjU3NiAxOTIuODgyIDE2Ni4yOTIgMTkzLjI0NiAxNjYuMDA2QzE5My4zOTMgMTY1Ljg5MSAxOTMuNTQyIDE2NS43NzYgMTkzLjY5NCAxNjUuNjYyQzE5NC4wNjYgMTY1LjM3MyAxOTQuNDQgMTY1LjA4NiAxOTQuODE3IDE2NC44MDNDMTk1LjY3NSAxNjQuMTU1IDE5Ni41NiAxNjMuNTA2IDE5Ny40NTYgMTYyLjg3NEwxOTcuODQgMTYyLjYwNkMxOTguMTA5IDE2Mi40MjEgMTk4LjM3NyAxNjIuMjM1IDE5OC42NDUgMTYyLjA1NEwxOTguODg4IDE2MS44OUMxOTkuMzY3IDE2MS41NjUgMTk5Ljg1MyAxNjEuMjQ4IDIwMC4zNDMgMTYwLjkzOUwyMDAuNTg2IDE2MC43ODZMMjAwLjgyNyAxNjAuNjM2QzIwMS4wNjkgMTYwLjQ4NiAyMDEuMzA5IDE2MC4zMzkgMjAxLjU0OCAxNjAuMTk2TDIwMS43ODcgMTYwLjA1M0wyMDIuMjY1IDE1OS43NzVMMjAyLjczNCAxNTkuNTA2TDIwMi44MjkgMTU5LjQ1NEwyMDMuMiAxNTkuMjVDMjAzLjM1NSAxNTkuMTY2IDIwMy41MDkgMTU5LjA4NSAyMDMuNjYzIDE1OS4wMDZMMjAzLjg5MiAxNTguODg4TDIwNC4xMTUgMTU4Ljc3NkMyMDQuMTkzIDE1OC43MzkgMjA0LjI3IDE1OC43IDIwNC4zNDYgMTU4LjY2M0MyMDQuODQ4IDE1OC40MTUgMjA1LjM2IDE1OC4xODcgMjA1Ljg4IDE1Ny45NzlDMjA2LjAyMSAxNTcuOTE5IDIwNi4xNjEgMTU3Ljg2NSAyMDYuMyAxNTcuODE4TDIwNi43MSAxNTcuNjc0QzIwNi44MzMgMTU3LjYzMyAyMDYuOTUzIDE1Ny41OTQgMjA3LjA2OCAxNTcuNTU5TDIwNy4xMDggMTU3LjU0N0MyMDcuMTcgMTU3LjUyNyAyMDcuMjMyIDE1Ny41MDkgMjA3LjI5MyAxNTcuNDkzTDIwNy4zMTEgMTU3LjQ4OEMyMDcuNDM5IDE1Ny40NTEgMjA3LjU2NiAxNTcuNDE5IDIwNy42OTEgMTU3LjM4OUgyMDcuN0MyMDguMDU0IDE1Ny4zMDQgMjA4LjQxNCAxNTcuMjQzIDIwOC43NzcgMTU3LjIwNkMyMDguOTQ0IDE1Ny4xODkgMjA5LjExMSAxNTcuMTggMjA5LjI3OSAxNTcuMTgxSDIwOS4zNjNDMjA5LjQ3NSAxNTcuMTgxIDIwOS41ODMgMTU3LjE4OCAyMDkuNjkgMTU3LjE5OUMyMDkuNzM5IDE1Ny4xOTkgMjA5Ljc4OCAxNTcuMjA5IDIwOS44MzYgMTU3LjIxNUgyMDkuODU2QzIwOS45MDQgMTU3LjIyMSAyMDkuOTUyIDE1Ny4yMjggMjEwIDE1Ny4yMzlDMjEwLjA0NyAxNTcuMjQ4IDIxMC4wOTUgMTU3LjI1NiAyMTAuMTQxIDE1Ny4yNjdIMjEwLjE1NkMyMTAuMjAzIDE1Ny4yNzcgMjEwLjI0NSAxNTcuMjg5IDIxMC4yOTQgMTU3LjMwM0MyMTAuNTQ4IDE1Ny4zNzQgMjEwLjc5IDE1Ny40ODQgMjExLjAxMiAxNTcuNjI4QzIxMS4xMjEgMTU3LjY5OSAyMTEuMjIzIDE1Ny43NzkgMjExLjMxNyAxNTcuODY4TDIxMS4zNDQgMTU3Ljg5NEMyMTEuMzYyIDE1Ny45MSAyMTEuMzc5IDE1Ny45MjcgMjExLjM5NSAxNTcuOTQ0TDIxMS40NDQgMTU3Ljk5N0MyMTEuODQ2IDE1OC40MTggMjEyLjE3OCAxNTguOTAxIDIxMi40MjggMTU5LjQyN0wyMTIuNDY2IDE1OS41MTdDMjEyLjU1MSAxNTkuNzE3IDIxMi42MTggMTU5LjkyNCAyMTIuNjY2IDE2MC4xMzVDMjEyLjgwOCAxNjAuNzgxIDIxMi43NTMgMTYxLjQ1NSAyMTIuNTA4IDE2Mi4wN0MyMTIuNDE1IDE2Mi4zMTggMjEyLjMwMiAxNjIuNTU3IDIxMi4xNjkgMTYyLjc4NUMyMTEuODU4IDE2My4zMDkgMjExLjQ4OSAxNjMuNzk2IDIxMS4wNyAxNjQuMjM3TDIxMC45ODEgMTY0LjMzMkMyMTAuODQ4IDE2NC40NzIgMjEwLjcxIDE2NC42MTIgMjEwLjU2NSAxNjQuNzUyQzIxMC41MDEgMTY0LjgxNSAyMTAuNDM0IDE2NC44NzcgMjEwLjM2NyAxNjQuOTRMMjEwLjE2MiAxNjUuMTI5TDIxMC4wNTUgMTY1LjIyNEMyMDkuNzk3IDE2NS40NTQgMjA5LjUzMiAxNjUuNjc3IDIwOS4yNjMgMTY1Ljg5M0MyMDkuMSAxNjYuMDI1IDIwOC45MzYgMTY2LjE1NCAyMDguNzcgMTY2LjI4MUMyMDguMTg0IDE2Ni43MjkgMjA3LjU4NyAxNjcuMTYxIDIwNi45NzkgMTY3LjU3OEMyMDYuNjEyIDE2Ny44MyAyMDYuMjQyIDE2OC4wNzcgMjA1Ljg2OSAxNjguMzIxQzIwNC45NSAxNjguOTI0IDIwNC4wMjEgMTY5LjUxMiAyMDMuMDgzIDE3MC4wODRDMjAxLjExNSAxNzEuMjk0IDE5OC45MzQgMTcyLjU4OCAxOTYuNjA5IDE3My45OTVMMTk2LjAwNyAxNzQuMzZDMTk1LjM0OCAxNzQuNzYyIDE5NC43MjYgMTc1LjE0NiAxOTQuMTQgMTc1LjUxMkwxOTMuODQ1IDE3NS42OTdMMTkzLjI4NyAxNzYuMDU1QzE5Mi45MTcgMTc2LjI5MiAxOTIuNTQ4IDE3Ni41MzEgMTkyLjE3OSAxNzYuNzdMMTkxLjg4MiAxNzYuOTY2QzE5MS43MzcgMTc3LjA2IDE5MS41OTMgMTc3LjE1NiAxOTEuNDQ5IDE3Ny4yNTJMMTkxLjMwOCAxNzcuMzQyTDE5MC44NzYgMTc3LjYzM0wxOTAuNjQ3IDE3Ny43OUwxOTAuMzc5IDE3Ny45NzZMMTkwLjEzIDE3OC4xNDlDMTg5LjcxMyAxNzguNDQ0IDE4OS4zMjUgMTc4LjcyNSAxODguOTY4IDE3OC45OTJMMTg4LjgzNCAxNzkuMDk0QzE4OC42MjQgMTc5LjI1MyAxODguNDE2IDE3OS40MTUgMTg4LjIxMSAxNzkuNThDMTg3LjkwMiAxNzkuODI5IDE4Ny42MiAxODAuMDY3IDE4Ny4zNjcgMTgwLjI5NkwxODcuMjQzIDE4MC40MDlDMTg3LjE3MiAxODAuNDc0IDE4Ny4xMDIgMTgwLjUzOSAxODcuMDM1IDE4MC42MDNDMTg2Ljk4OSAxODAuNjQ4IDE4Ni45NDYgMTgwLjY5MyAxODYuODk4IDE4MC43MzZMMTg2LjgzNCAxODAuOEMxODYuNjkxIDE4MC45NDQgMTg2LjU1MSAxODEuMDkxIDE4Ni40MTYgMTgxLjI0MkwxODYuMzUgMTgxLjMxOEMxODYuMjAzIDE4MS40ODggMTg2LjA3NSAxODEuNjUxIDE4NS45NjMgMTgxLjgxTDE4NS45MTMgMTgxLjg4MUMxODUuODI1IDE4Mi4wMDkgMTg1Ljc0NCAxODIuMTQxIDE4NS42NzEgMTgyLjI3N0MxODUuNjUyIDE4Mi4zMTEgMTg1LjYzNSAxODIuMzQ1IDE4NS42MTggMTgyLjM3OUwxODUuNTY5IDE4Mi40ODFMMTg1LjUzNiAxODIuNTU1TDE4NS41MTUgMTgyLjYwNUwxODUuNDk4IDE4Mi42NUwxODUuNDc1IDE4Mi43MTFDMTg1LjQxMyAxODIuODggMTg1LjM3IDE4My4wNTYgMTg1LjM0NSAxODMuMjM0TDE4NS4zMzcgMTgzLjI5NkwxODUuMzMxIDE4My4zNTRWMTgzLjY2OUMxODUuMzMxIDE4My42OTUgMTg1LjMzMSAxODMuNzIxIDE4NS4zMzggMTgzLjc0OUwxODUuMzQzIDE4My43OTdDMTg1LjM0MyAxODMuODIzIDE4NS4zNDkgMTgzLjg0OCAxODUuMzUzIDE4My44NzZDMTg1LjM1NyAxODMuOTAyIDE4NS4zNjQgMTgzLjk0OSAxODUuMzcyIDE4My45ODZWMTgzLjk5MUMxODUuMzc5IDE4NC4wMjYgMTg1LjM4NiAxODQuMDYgMTg1LjM5NSAxODQuMDk1QzE4NS40MDQgMTg0LjEzIDE4NS40MTMgMTg0LjE3IDE4NS40MjQgMTg0LjIwNkMxODUuNDQzIDE4NC4yNzcgMTg1LjQ2NyAxODQuMzQ3IDE4NS40OTIgMTg0LjQxN0MxODUuNTA4IDE4NC40NTkgMTg1LjUyMyAxODQuNSAxODUuNTQgMTg0LjU0MUMxODUuNTQgMTg0LjU0OSAxODUuNTQ2IDE4NC41NTggMTg1LjU1IDE4NC41NjZMMTg1LjU4NiAxODQuNjQ3TDE4NS42MzYgMTg0Ljc1OEMxODUuNjkgMTg0Ljg3MyAxODUuNzQ5IDE4NC45ODUgMTg1LjgxMyAxODUuMDk0TDE4NS44NzkgMTg1LjIwOEwxODUuOTQ3IDE4NS4zMjJDMTg1Ljk1OSAxODUuMzQxIDE4NS45NzMgMTg1LjM1OSAxODUuOTg4IDE4NS4zNzZMMTg2LjAxIDE4NS4zOTlMMTg2LjAzNSAxODUuNDIyTDE4Ni4wNjEgMTg1LjQ0MkMxODYuMDk5IDE4NS40NjkgMTg2LjE0IDE4NS40OSAxODYuMTgzIDE4NS41MDVDMTg2LjIwNiAxODUuNTEzIDE4Ni4yMyAxODUuNTE5IDE4Ni4yNTQgMTg1LjUyNUMxODYuODMxIDE4NS42NTUgMTg4LjAxNyAxODUuMTc4IDE4OS41OTMgMTg0LjM0NkMxODkuNjgyIDE4NC4yOTggMTg5Ljc4IDE4NC4yNDggMTg5Ljg3NSAxODQuMTk2TDE5MC4zNTUgMTgzLjkzNEwxOTAuNTg5IDE4My44MDRDMTkwLjc1NiAxODMuNzE1IDE5MC45MjYgMTgzLjYxNCAxOTEuMSAxODMuNTE1TDE5MS40MTcgMTgzLjMzNkMxOTMuNSAxODIuMTM3IDE5NS45ODggMTgwLjU5NyAxOTguNTYgMTc5LjA5M0MxOTguODAxIDE3OC45NTIgMTk5LjA0MyAxNzguODExIDE5OS4yODUgMTc4LjY3MkwxOTkuNzcxIDE3OC4zNjFDMjAwLjMzNSAxNzguMDM4IDIwMC45MDIgMTc3LjcxOSAyMDEuNDcxIDE3Ny40MDRDMjAyLjE4OCAxNzcuMDEgMjAyLjkxIDE3Ni42MjYgMjAzLjYzOSAxNzYuMjU0TDIwNC4xMTUgMTc2LjAxM0MyMDQuNDMxIDE3NS44NTcgMjA0Ljc0NCAxNzUuNzA1IDIwNS4wNTMgMTc1LjU1N0MyMDUuNjUxIDE3NS4yNzMgMjA2LjI1NiAxNzUuMDAzIDIwNi44NjggMTc0Ljc0OEwyMDcuMjAzIDE3NC42MTJMMjA3LjI0MyAxNzQuNTk2QzIwOS4wMTggMTczLjg5MyAyMTAuNjI3IDE3My40NTkgMjExLjkyOSAxNzMuNDU5QzIxMi4yMSAxNzMuNDU2IDIxMi40OTIgMTczLjQ4IDIxMi43NjkgMTczLjUyOEgyMTIuNzc4QzIxMi44NjcgMTczLjU0NCAyMTIuOTQ4IDE3My41NjIgMjEzLjAzMSAxNzMuNTgySDIxMy4wNDZDMjEzLjI1OSAxNzMuNjM2IDIxMy40NjYgMTczLjcxMyAyMTMuNjYyIDE3My44MTJDMjEzLjkzNyAxNzMuOTU0IDIxNC4xODQgMTc0LjE0MyAyMTQuMzkzIDE3NC4zNzFDMjE0LjQ4OSAxNzQuNDc3IDIxNC41NzQgMTc0LjU5MiAyMTQuNjQ5IDE3NC43MTRDMjE0Ljc4OSAxNzQuOTI5IDIxNC44OTkgMTc1LjE2MiAyMTQuOTc4IDE3NS40MDZDMjE1LjAxIDE3NS41MDEgMjE1LjAzOCAxNzUuNTk0IDIxNS4wNjcgMTc1LjY5M0MyMTUuMjc4IDE3Ni40NSAyMTUuMjU3IDE3Ny4yNTMgMjE1LjAwNyAxNzcuOTk4WiIgZmlsbD0iI0ZGOUQwMCIvPgo8cGF0aCBmaWxsLXJ1bGU9ImV2ZW5vZGQiIGNsaXAtcnVsZT0iZXZlbm9kZCIgZD0iTTIwMy4yMSAxMjMuNjg1VjEyMy4xOTRDMjAzLjIxIDgxLjM0IDE2OS4yOTIgNDcuNDExIDEyNy40MzUgNDcuNDExQzg1LjU3OTEgNDcuNDExIDUxLjY0OCA4MS4zNDIgNTEuNjQ4IDEyMy4xOTRWMTIzLjM1OEM1MS42NDYgMTIzLjQ2NyA1MS42NDUgMTIzLjU3NiA1MS42NDggMTIzLjY4NUM1MS42NTI5IDEyMy44NDggNTEuNjU0NiAxMjQuMDExIDUxLjY1MyAxMjQuMTc0TDUxLjY1ODEgMTI0LjUzNEw1MS42NjEgMTI0LjY2M0M1MS42NjEgMTI0LjcyMyA1MS42NjMxIDEyNC43ODIgNTEuNjY1MSAxMjQuODQyQzUxLjY2ODEgMTI0LjkzNyA1MS42NyAxMjUuMDMzIDUxLjY3IDEyNS4xMjhMNTEuNjgxIDEyNS41MTdMNTEuNjk3IDEyNS45NzRMNTEuNzAyIDEyNi4xMjRMNTEuNzIyIDEyNi41OTdWMTI2LjYyQzUxLjczIDEyNi44MDUgNTEuNzQwMSAxMjYuOTg5IDUxLjc0OTEgMTI3LjE3M0w1MS43NSAxMjcuMTg3QzUxLjc2IDEyNy4zNzUgNTEuNzcwMSAxMjcuNTY0IDUxLjc4MjEgMTI3Ljc1M0M1MS43OTIxIDEyNy45MjcgNTEuODAyIDEyOC4xMDEgNTEuODE1IDEyOC4yNzVMNTEuODE3MSAxMjguMzA2QzUxLjgyNTggMTI4LjQ1NSA1MS44MzU4IDEyOC42MDUgNTEuODQ3IDEyOC43NTRMNTEuODUgMTI4Ljc5NEw1MS44ODMgMTI5LjIyNkw1MS44ODYxIDEyOS4yNTRDNTEuODkyMSAxMjkuMzM4IDUxLjg5OCAxMjkuNDIyIDUxLjkwNiAxMjkuNTAzQzUxLjk2NTggMTMwLjIyNCA1Mi4wMzU1IDEzMC45NDUgNTIuMTE1MSAxMzEuNjY0TDUyLjEyIDEzMS43MDlMNTIuMTgxIDEzMi4yMzhMNTIuMjQ5MSAxMzIuNzkzTDUyLjI5OSAxMzMuMTdMNTIuMzIyIDEzMy4zNDdDNTIuMzc1MyAxMzMuNzU1IDUyLjQzMyAxMzQuMTYyIDUyLjQ5NSAxMzQuNTY4TDUyLjQ5OTEgMTM0LjU5NUw1Mi41NTggMTM0Ljk3OUM1Mi44NDM1IDEzNi44MDggNTMuMTk3MSAxMzguNjI2IDUzLjYxOCAxNDAuNDI5TDUzLjYyMzEgMTQwLjQ1MUw1My42NTUgMTQwLjU4Nkw1My43NDYgMTQwLjk3MUw1My44MDIgMTQwLjkwNEM1Ni4wMDIgMTM4LjI3NCA1OS4xNTggMTM2LjgyNCA2Mi42ODkgMTM2LjgyNEM2NS41MTkgMTM2LjgyNCA2OC40MjIxIDEzNy43NiA3MS4zMzIxIDEzOS42MDVDNzMuMjYyMSAxNDAuODMxIDc1LjM5NjEgMTQzLjAwMiA3Ny41OTIxIDE0NS43MzNDNzkuNjI0MSAxNDIuOTExIDgyLjQ3MjEgMTQxLjAzNSA4NS43MzAxIDE0MC41MjNDODYuMzUxMyAxNDAuNDI1IDg2Ljk3OTIgMTQwLjM3NiA4Ny42MDgxIDE0MC4zNzVDOTUuMDQ0MSAxNDAuMzc1IDk5LjUyMyAxNDYuODI4IDEwMS4yMTUgMTUyLjYzM0MxMDIuMDUxIDE1NC41OTQgMTA2LjA4IDE2My41MjYgMTEyLjE1NiAxNjkuNTY4QzEyMS4zOTIgMTc4Ljc5NSAxMjMuNzAzIDE4OC4zMTYgMTE5LjEzMiAxOTguNTExSDExOS4xNDhDMTE5LjQ1OSAxOTguNTQ2IDExOS43NzIgMTk4LjU3OCAxMjAuMDg3IDE5OC42MDdDMTIwLjI3NCAxOTguNjI1IDEyMC40NiAxOTguNjQzIDEyMC42NDggMTk4LjY1OUwxMjAuNzE0IDE5OC42NjVMMTIxLjEyNyAxOTguN0wxMjEuNTA3IDE5OC43M0MxMjEuODY5IDE5OC43NTggMTIyLjIzMiAxOTguNzg0IDEyMi41OTYgMTk4LjgwN0wxMjIuODg1IDE5OC44MjRMMTIzLjExNCAxOTguODM4TDEyMy4yNTYgMTk4Ljg0NkwxMjMuNzAzIDE5OC44NjlMMTIzLjgyNSAxOTguODc0TDEyNC4yOTQgMTk4Ljg5NUwxMjQuODE2IDE5OC45MTVMMTI1LjIzNSAxOTguOTI3TDEyNS4zMDUgMTk4LjkyOUMxMjUuMzk0IDE5OC45MzMgMTI1LjQ4MyAxOTguOTM2IDEyNS41NzIgMTk4LjkzNkwxMjUuNjY4IDE5OC45MzlDMTI2LjI1OCAxOTguOTUzIDEyNi44NDcgMTk4Ljk2IDEyNy40MzcgMTk4Ljk1OUgxMjguMDYzTDEyOC41MSAxOTguOTU0QzEyOC42MiAxOTguOTQ5IDEyOC43MjkgMTk4Ljk0OSAxMjguODQgMTk4Ljk0OUgxMjkuMDE0TDEyOS4xNjUgMTk4Ljk0NUMxMjkuMjI0IDE5OC45NDMgMTI5LjI4MyAxOTguOTQxIDEyOS4zNDMgMTk4Ljk0MUgxMjkuNTIyTDEyOS44NzMgMTk4LjkzMkwxMzAuNDAxIDE5OC45MTRMMTMwLjk4MiAxOTguODg4QzEzMS4xNSAxOTguODgyIDEzMS4zMTYgMTk4Ljg3MyAxMzEuNDgyIDE5OC44NjVMMTMxLjY2MSAxOTguODU0TDEzMS45MjcgMTk4Ljg0TDEzMi4wODMgMTk4LjgzMUwxMzIuMjAxIDE5OC44MjNMMTMyLjczOCAxOTguNzg4TDEzMy4yNzQgMTk4Ljc0OUwxMzMuNzYxIDE5OC43MUwxMzQuMTAzIDE5OC42ODFMMTM0LjQ3OSAxOTguNjQ3QzEzNS4xMDcgMTk4LjU5MSAxMzUuNzMzIDE5OC41MjUgMTM2LjM1OSAxOTguNDVMMTM2Ljc4NiAxOTguMzk5QzEzMi4yODcgMTg4LjI0NyAxMzQuNjE2IDE3OC43NjcgMTQzLjgxMyAxNjkuNTc3QzE0OS44NzYgMTYzLjUxOSAxNTMuOTA1IDE1NC41ODcgMTU0Ljc0NSAxNTIuNjI1QzE1Ni40MzggMTQ2LjgyMSAxNjAuOTE0IDE0MC4zNjggMTY4LjM1MiAxNDAuMzY4QzE2OC45ODEgMTQwLjM2OCAxNjkuNjEgMTQwLjQxOCAxNzAuMjMxIDE0MC41MTZDMTczLjQ4NiAxNDEuMDI4IDE3Ni4zMzQgMTQyLjkwNCAxNzguMzY5IDE0NS43MjZDMTgwLjU2NiAxNDIuOTk2IDE4Mi42OTkgMTQwLjgyMyAxODQuNjMgMTM5LjU5N0MxODcuNTM5IDEzNy43NTMgMTkwLjQ0NSAxMzYuODE3IDE5My4yNzIgMTM2LjgxN0MxOTYuMzg4IDEzNi44MTcgMTk5LjIxMiAxMzcuOTQ3IDIwMS4zNDUgMTQwLjAyQzIwMS4zODQgMTM5Ljg1MSAyMDEuNDIyIDEzOS42ODIgMjAxLjQ1OSAxMzkuNTEyTDIwMS41NjggMTM5LjAwNkMyMDEuNjA3IDEzOC44MjEgMjAxLjY0NiAxMzguNjM2IDIwMS42ODMgMTM4LjQ1MUMyMDEuNzQ5IDEzOC4xMjQgMjAxLjgxNSAxMzcuNzk3IDIwMS44NzggMTM3LjQ2N0MyMDEuOTQ0IDEzNy4xMjUgMjAyLjAwNyAxMzYuNzgxIDIwMi4wNjcgMTM2LjQzN0wyMDIuMDk4IDEzNi4yNTFDMjAyLjExNyAxMzYuMTQxIDIwMi4xMzUgMTM2LjAzMSAyMDIuMTU2IDEzNS45MkMyMDIuMTkgMTM1Ljc0OCAyMDIuMjE4IDEzNS41NzYgMjAyLjI0NiAxMzUuNDAyTDIwMi4yNTcgMTM1LjMzNkwyMDIuMzI4IDEzNC44ODNMMjAyLjM5OCAxMzQuNDI0VjEzNC40MkMyMDIuNDQ5IDEzNC4wODEgMjAyLjQ5NyAxMzMuNzQyIDIwMi41NDIgMTMzLjQwM0wyMDIuNTUzIDEzMy4zMTlMMjAyLjYxNiAxMzIuODQxTDIwMi42NjcgMTMyLjQzM0wyMDIuNzU3IDEzMS42MjlMMjAyLjc5MiAxMzEuMzA2TDIwMi44MDEgMTMxLjIxOEMyMDIuODIgMTMxLjA0NCAyMDIuODM4IDEzMC44NyAyMDIuODU0IDEzMC42OTZWMTMwLjY4MkMyMDIuODY3IDEzMC41NDQgMjAyLjg4MSAxMzAuNDA1IDIwMi44OTMgMTMwLjI2NkMyMDIuOTY0IDEyOS40NzggMjAzLjAyNCAxMjguNjg2IDIwMy4wNzIgMTI3Ljg5MUMyMDMuMDgxIDEyNy43NjEgMjAzLjA4OCAxMjcuNjMgMjAzLjA5NiAxMjcuNDk5VjEyNy40OTNMMjAzLjEyMiAxMjcuMDAyTDIwMy4xMjggMTI2Ljg5MkMyMDMuMTQ0IDEyNi41NiAyMDMuMTU4IDEyNi4yMjggMjAzLjE2OSAxMjUuODk2VjEyNS44ODRMMjAzLjE3NCAxMjUuNzU0QzIwMy4xNzkgMTI1LjY0NSAyMDMuMTgzIDEyNS41MzUgMjAzLjE4MyAxMjUuNDI1TDIwMy4xODUgMTI1LjM4MUMyMDMuMTg5IDEyNS4yNzggMjAzLjE5MyAxMjUuMTcyIDIwMy4xOTMgMTI1LjA2N0wyMDMuMTk2IDEyNC45NzdDMjAzLjE5OSAxMjQuODcyIDIwMy4yMDIgMTI0Ljc2OCAyMDMuMjAyIDEyNC42NjNMMjAzLjIwNCAxMjQuNTc0QzIwMy4yMDcgMTI0LjQ0MSAyMDMuMjEgMTI0LjMwNyAyMDMuMjEgMTI0LjE3NFYxMjMuNjg1Wk0xMDguNjM4IDE5OS4zOTFDMTE0LjY0IDE5MC41OSAxMTQuMjE0IDE4My45ODQgMTA1Ljk4IDE3NS43NTRDOTcuNzQ0MSAxNjcuNTIzIDkyLjk1MSAxNTUuNDg3IDkyLjk1MSAxNTUuNDg3QzkyLjk1MSAxNTUuNDg3IDkxLjE2MjEgMTQ4LjQ5NiA4Ny4wODIxIDE0OS4xMzhDODMuMDAyMSAxNDkuNzggODAuMDA5MSAxNjAuMjI3IDg4LjU1MjEgMTY2LjYyMkM5Ny4wOTQxIDE3My4wMTcgODYuODUyMSAxNzcuMzUzIDgzLjU2NDEgMTcxLjM1MkM4MC4yNzYxIDE2NS4zNSA3MS4yOTkgMTQ5LjkyMyA2Ni42NDUgMTQ2Ljk3MkM2MS45OTEgMTQ0LjAyMSA1OC43MTggMTQ1LjY3NSA1OS44MTUgMTUxLjc1N0M2MC4zNiAxNTQuNzc2IDY1LjQyODEgMTU5LjkyOSA3MC4xNjMxIDE2NC43NDNDNzQuOTY3MSAxNjkuNjI3IDc5LjQyOCAxNzQuMTYzIDc4LjQ3NCAxNzUuNzY4Qzc2LjU4MSAxNzguOTU1IDY5LjkxNDEgMTcyLjAyMyA2OS45MTQxIDE3Mi4wMjNDNjkuOTE0MSAxNzIuMDIzIDQ5LjAzOCAxNTMuMDI1IDQ0LjQ5NCAxNTcuOTc2QzQwLjMwNCAxNjIuNTM5IDQ2Ljc2NSAxNjYuNDE4IDU2LjcyMTEgMTcyLjM5N0M1Ny41NjcxIDE3Mi45MDUgNTguNDM5MSAxNzMuNDI5IDU5LjMzMjEgMTczLjk2OUM3MC43MjMxIDE4MC44NjUgNzEuNjA5IDE4Mi42ODQgNjkuOTkyIDE4NS4yOTNDNjkuMzk1IDE4Ni4yNTcgNjUuNTgyIDE4My45NjggNjAuODkyIDE4MS4xNTNDNTIuODk3IDE3Ni4zNTIgNDIuMzU1MSAxNzAuMDIzIDQwLjg2NjEgMTc1LjY4OEMzOS41NzgxIDE4MC41OTEgNDcuMzM0IDE4My41OTUgNTQuMzY4IDE4Ni4zMkM2MC4yMjggMTg4LjU5IDY1LjU4ODEgMTkwLjY2NiA2NC43OTkxIDE5My40ODRDNjMuOTgyMSAxOTYuNDA2IDU5LjU1MzEgMTkzLjk2OSA1NC43MTIxIDE5MS4zMDVDNDkuMjc3MSAxODguMzE0IDQzLjMyMjEgMTg1LjAzOCA0MS4zNzMxIDE4OC43MzVDMzcuNjkwMSAxOTUuNzI1IDY2Ljc4MzEgMjAzLjk1NCA2Ny4wMjMxIDIwNC4wMTVDNzYuNDIzMSAyMDYuNDUzIDEwMC4yOTUgMjExLjYxOSAxMDguNjM4IDE5OS4zOTFaTTE0Ny4zMDMgMTk5LjM5MUMxNDEuMzAxIDE5MC41OSAxNDEuNzI3IDE4My45ODQgMTQ5Ljk2MiAxNzUuNzU0QzE1OC4xOTcgMTY3LjUyMyAxNjIuOTkgMTU1LjQ4NyAxNjIuOTkgMTU1LjQ4N0MxNjIuOTkgMTU1LjQ4NyAxNjQuNzc5IDE0OC40OTYgMTY4Ljg1OSAxNDkuMTM4QzE3Mi45MzkgMTQ5Ljc4IDE3NS45MzIgMTYwLjIyNyAxNjcuMzkgMTY2LjYyMkMxNTguODQ3IDE3My4wMTcgMTY5LjA4OSAxNzcuMzUzIDE3Mi4zNzcgMTcxLjM1MkMxNzUuNjY2IDE2NS4zNSAxODQuNjM3IDE0OS45MjMgMTg5LjI5MSAxNDYuOTcyQzE5My45NDUgMTQ0LjAyMSAxOTcuMjIgMTQ1LjY3NSAxOTYuMTIyIDE1MS43NTdDMTk1LjU3OCAxNTQuNzc2IDE5MC41MDkgMTU5LjkyOSAxODUuNzc0IDE2NC43NDRDMTgwLjk3IDE2OS42MjggMTc2LjUwOSAxNzQuMTYzIDE3Ny40NjIgMTc1Ljc2OEMxNzkuMzU1IDE3OC45NTUgMTg2LjAyNyAxNzIuMDE5IDE4Ni4wMjcgMTcyLjAxOUMxODYuMDI3IDE3Mi4wMTkgMjA2LjkwMiAxNTMuMDIyIDIxMS40NDggMTU3Ljk3M0MyMTUuNjM3IDE2Mi41MzUgMjA5LjE3NiAxNjYuNDE1IDE5OS4yMTkgMTcyLjM5NEMxOTguMzQ4IDE3Mi45MTcgMTk3LjQ3OCAxNzMuNDQxIDE5Ni42MDkgMTczLjk2NkMxODUuMjE4IDE4MC44NjIgMTg0LjMzMiAxODIuNjgxIDE4NS45NDggMTg1LjI4OUMxODYuNTQ2IDE4Ni4yNTQgMTkwLjM1OSAxODMuOTY0IDE5NS4wNDggMTgxLjE0OUMyMDMuMDQ0IDE3Ni4zNDkgMjEzLjU4NiAxNzAuMDE5IDIxNS4wNzUgMTc1LjY4NUMyMTYuMzY0IDE4MC41ODggMjA4LjYwNyAxODMuNTkyIDIwMS41NzMgMTg2LjMxN0MxOTUuNzEzIDE4OC41ODcgMTkwLjM1MyAxOTAuNjYzIDE5MS4xNDEgMTkzLjQ4MUMxOTEuOTU3IDE5Ni40MDIgMTk2LjM4NSAxOTMuOTY1IDIwMS4yMjUgMTkxLjMwMUMyMDYuNjYgMTg4LjMxIDIxMi42MTYgMTg1LjAzMiAyMTQuNTY0IDE4OC43MzJDMjE4LjI0OCAxOTUuNzI2IDE4OS4xNSAyMDMuOTQ3IDE4OC45MTUgMjA0LjAwN0MxNzkuNTE1IDIwNi40NTMgMTU1LjY0MyAyMTEuNjE5IDE0Ny4zMDMgMTk5LjM5MVoiIGZpbGw9IiNGRkQyMUUiLz4KPHBhdGggZmlsbC1ydWxlPSJldmVub2RkIiBjbGlwLXJ1bGU9ImV2ZW5vZGQiIGQ9Ik0xNTIuMDQ3IDEwMi41NjdDMTUzLjIyOSAxMDIuOTg1IDE1NC4xMDggMTA0LjI1NyAxNTQuOTQ0IDEwNS40NjhDMTU2LjA3NCAxMDcuMTA0IDE1Ny4xMjYgMTA4LjYyNyAxNTguNzQgMTA3Ljc2OUMxNjAuNjQ0IDEwNi43NTYgMTYyLjIwNSAxMDUuMjAyIDE2My4yMjUgMTAzLjMwMkMxNjQuMjQ2IDEwMS40MDIgMTY0LjY4MSA5OS4yNDI3IDE2NC40NzUgOTcuMDk2QzE2NC4zMjEgOTUuNDkwOCAxNjMuODEzIDkzLjkzOTggMTYyLjk4NyA5Mi41NTQ4QzE2Mi4xNjEgOTEuMTY5NyAxNjEuMDM4IDg5Ljk4NSAxNTkuNyA4OS4wODYyQzE1OC4zNjEgODguMTg3NCAxNTYuODM5IDg3LjU5NjggMTU1LjI0NSA4Ny4zNTY5QzE1My42NSA4Ny4xMTcgMTUyLjAyMiA4Ny4yMzM5IDE1MC40NzggODcuNjk5QzE0OC45MzQgODguMTYzOSAxNDcuNTEzIDg4Ljk2NTMgMTQ2LjMxNiA5MC4wNDU1QzE0NS4xMTkgOTEuMTI1NyAxNDQuMTc2IDkyLjQ1NzggMTQzLjU1NiA5My45NDZDMTQyLjkzNiA5NS40MzQyIDE0Mi42NTMgOTcuMDQxNSAxNDIuNzI4IDk4LjY1MkMxNDIuODA0IDEwMC4yNjMgMTQzLjIzNSAxMDEuODM2IDE0My45OTIgMTAzLjI2QzE0NC43NCAxMDQuNjY3IDE0Ni40IDEwNC4wMDMgMTQ4LjE1MiAxMDMuMzAyQzE0OS41MjUgMTAyLjc1MyAxNTAuOTU2IDEwMi4xODEgMTUyLjA0NyAxMDIuNTY3Wk0xMDAuNjcyIDEwMi41NjdDOTkuNDkgMTAyLjk4NSA5OC42MTEgMTA0LjI1OCA5Ny43NzUgMTA1LjQ2OEM5Ni42NDUgMTA3LjEwNSA5NS41OTIgMTA4LjYyNyA5My45NzkgMTA3Ljc2OUM5MS41ODQ1IDEwNi41MDEgODkuNzQ4MiAxMDQuMzg2IDg4LjgyNzggMTAxLjgzOEM4Ny45MDc1IDk5LjI4OTUgODcuOTY5MiA5Ni40ODk2IDg5LjAwMDggOTMuOTg0MUM5MC4wMzI0IDkxLjQ3ODYgOTEuOTYwMSA4OS40NDcxIDk0LjQwOCA4OC4yODU1Qzk2Ljg1NiA4Ny4xMjM5IDk5LjY0ODggODYuOTE1NiAxMDIuMjQyIDg3LjcwMUMxMDQuMzA3IDg4LjMyMjggMTA2LjE0MSA4OS41NDI3IDEwNy41MTMgOTEuMjA2NUMxMDguODg1IDkyLjg3MDQgMTA5LjczMiA5NC45MDM1IDEwOS45NDkgOTcuMDQ5QzExMC4xNjUgOTkuMTk0NSAxMDkuNzQgMTAxLjM1NiAxMDguNzI4IDEwMy4yNkMxMDcuOTc5IDEwNC42NjcgMTA2LjMxOSAxMDQuMDAzIDEwNC41NjcgMTAzLjMwM0MxMDMuMTkzIDEwMi43NTMgMTAxLjc2NCAxMDIuMTgxIDEwMC42NzIgMTAyLjU2N1pNMTQ0LjA5OSAxNDkuMzE4QzE1Mi4yNDIgMTQyLjkwMyAxNTUuMjMzIDEzMi40MjkgMTU1LjIzMyAxMjUuOTc3QzE1NS4yMzMgMTIwLjg3NyAxNTEuODAyIDEyMi40ODIgMTQ2LjMwOSAxMjUuMjAyTDE0NS45OTkgMTI1LjM1NUMxNDAuOTU3IDEyNy44NTIgMTM0LjI0NSAxMzEuMTc3IDEyNi44NzcgMTMxLjE3N0MxMTkuNTA4IDEzMS4xNzcgMTEyLjc5NiAxMjcuODUyIDEwNy43NTUgMTI1LjM1NEMxMDIuMDg0IDEyMi41NDUgOTguNTI3IDEyMC43ODMgOTguNTI3IDEyNS45NzhDOTguNTI3IDEzMi42MzQgMTAxLjcwOSAxNDMuNTYzIDExMC40NDMgMTQ5LjkxMkMxMTEuNTk2IDE0Ny41NzMgMTEzLjIxOSAxNDUuNDk3IDExNS4yMTEgMTQzLjgxM0MxMTcuMjAyIDE0Mi4xMjkgMTE5LjUyIDE0MC44NzQgMTIyLjAxOCAxNDAuMTI2QzEyMi44OSAxMzkuODY2IDEyMy43ODggMTQxLjM2NyAxMjQuNzA3IDE0Mi45MDRDMTI1LjU5NCAxNDQuMzg2IDEyNi41MDEgMTQ1LjkwMiAxMjcuNDIzIDE0NS45MDJDMTI4LjQwNiAxNDUuOTAyIDEyOS4zNzEgMTQ0LjQwOCAxMzAuMzE0IDE0Mi45NUMxMzEuMjk5IDE0MS40MjUgMTMyLjI2IDEzOS45NCAxMzMuMTg5IDE0MC4yMzdDMTM3Ljg2NCAxNDEuNzM4IDE0MS43NzUgMTQ0Ljk5MyAxNDQuMDk5IDE0OS4zMThaIiBmaWxsPSIjMzIzNDNEIi8+CjxwYXRoIGQ9Ik0xNDQuMDk3IDE0OS4zMTdDMTM5Ljg1NiAxNTIuNjU5IDEzNC4yMTkgMTU0LjkgMTI2Ljg3OCAxNTQuOUMxMTkuOTgxIDE1NC45IDExNC41ODcgMTUyLjkyMiAxMTAuNDQzIDE0OS45MTFDMTExLjU5NiAxNDcuNTcyIDExMy4yMTkgMTQ1LjQ5NSAxMTUuMjExIDE0My44MTJDMTE3LjIwMiAxNDIuMTI4IDExOS41MiAxNDAuODczIDEyMi4wMTggMTQwLjEyNUMxMjMuNzMgMTM5LjYxNCAxMjUuNTQ1IDE0NS45MDEgMTI3LjQyMyAxNDUuOTAxQzEyOS40MzMgMTQ1LjkwMSAxMzEuMzcgMTM5LjY1NSAxMzMuMTg5IDE0MC4yMzZDMTM3Ljg2MyAxNDEuNzM4IDE0MS43NzMgMTQ0Ljk5MyAxNDQuMDk3IDE0OS4zMTdaIiBmaWxsPSIjRkYzMjNEIi8+CjxwYXRoIGZpbGwtcnVsZT0iZXZlbm9kZCIgY2xpcC1ydWxlPSJldmVub2RkIiBkPSJNODEuMiAxMTEuNjRDODAuMjMxMiAxMTIuMjg4IDc5LjExNzMgMTEyLjY4NyA3Ny45NTcyIDExMi44MDFDNzYuNzk3MSAxMTIuOTE2IDc1LjYyNjcgMTEyLjc0MiA3NC41NSAxMTIuMjk1QzczLjY4OTMgMTExLjk0IDcyLjkwNzIgMTExLjQxOCA3Mi4yNDg4IDExMC43NTlDNzEuNTkwMyAxMTAuMTAxIDcxLjA2ODQgMTA5LjMxOSA3MC43MTMgMTA4LjQ1OEM3MC4yNjcgMTA3LjM4MSA3MC4wOTM1IDEwNi4yMTEgNzAuMjA4MiAxMDUuMDUxQzcwLjMyMjggMTAzLjg5MSA3MC43MjE5IDEwMi43NzcgNzEuMzcgMTAxLjgwOEM3Mi4xNDg4IDEwMC42NDIgNzMuMjU1OCA5OS43MzMzIDc0LjU1MTIgOTkuMTk2N0M3NS44NDY2IDk4LjY2MDEgNzcuMjcyIDk4LjUxOTcgNzguNjQ3MSA5OC43OTM1QzgwLjAyMjMgOTkuMDY3MiA4MS4yODUzIDk5Ljc0MjcgODIuMjc2NCAxMDAuNzM0QzgzLjI2NzUgMTAxLjcyNiA4My45NDIyIDEwMi45OSA4NC4yMTUgMTA0LjM2NUM4NC40ODgzIDEwNS43NCA4NC4zNDc3IDEwNy4xNjUgODMuODExMyAxMDguNDZDODMuMjc0OCAxMDkuNzU1IDgyLjM2NTQgMTEwLjg2MSA4MS4yIDExMS42NFpNMTgyLjYxMyAxMTEuNjRDMTgxLjY0NCAxMTIuMjg4IDE4MC41MyAxMTIuNjg3IDE3OS4zNyAxMTIuODAxQzE3OC4yMDkgMTEyLjkxNiAxNzcuMDM5IDExMi43NDIgMTc1Ljk2MiAxMTIuMjk1QzE3NS4xMDEgMTExLjkzOSAxNzQuMzE5IDExMS40MTggMTczLjY2MSAxMTAuNzU5QzE3My4wMDMgMTEwLjEwMSAxNzIuNDgxIDEwOS4zMTkgMTcyLjEyNSAxMDguNDU4QzE3MS42OCAxMDcuMzgxIDE3MS41MDcgMTA2LjIxMSAxNzEuNjIxIDEwNS4wNTFDMTcxLjczNiAxMDMuODkxIDE3Mi4xMzUgMTAyLjc3NyAxNzIuNzgyIDEwMS44MDhDMTczLjM2NCAxMDAuOTM2IDE3NC4xMzMgMTAwLjIwNSAxNzUuMDMyIDk5LjY2NThDMTc1LjkzMSA5OS4xMjY5IDE3Ni45MzggOTguNzk0MiAxNzcuOTgxIDk4LjY5MTdDMTc5LjAyNSA5OC41ODkxIDE4MC4wNzggOTguNzE5MyAxODEuMDY0IDk5LjA3MjhDMTgyLjA1MSA5OS40MjY0IDE4Mi45NDcgOTkuOTk0NCAxODMuNjg4IDEwMC43MzZDMTg0LjY4IDEwMS43MjcgMTg1LjM1NSAxMDIuOTkgMTg1LjYyOCAxMDQuMzY1QzE4NS45MDIgMTA1Ljc0IDE4NS43NjEgMTA3LjE2NSAxODUuMjI0IDEwOC40NkMxODQuNjg3IDEwOS43NTUgMTgzLjc3OSAxMTAuODYxIDE4Mi42MTMgMTExLjY0WiIgZmlsbD0iI0ZGQUQwMyIvPgo8L3N2Zz4K;" vertex="1" parent="1">
          <mxGeometry x="50" y="585" width="60" height="60" as="geometry" />
        </mxCell>
        <mxCell id="ukp5wN6on8vU--8jEoze-10" style="edgeStyle=orthogonalEdgeStyle;rounded=0;orthogonalLoop=1;jettySize=auto;html=1;" edge="1" parent="1" source="ukp5wN6on8vU--8jEoze-2" target="ukp5wN6on8vU--8jEoze-6">
          <mxGeometry relative="1" as="geometry" />
        </mxCell>
        <mxCell id="ukp5wN6on8vU--8jEoze-2" value="" style="shape=image;aspect=fixed;image=data:image/svg+xml,PHN2ZyB2aWV3Qm94PSIwIDAgMzIgMzIiIHhtbG5zPSJodHRwOi8vd3d3LnczLm9yZy8yMDAwL3N2ZyIgeG1sbnM6eGxpbms9Imh0dHA6Ly93d3cudzMub3JnLzE5OTkveGxpbmsiPjxsaW5lYXJHcmFkaWVudCBpZD0iYSIgZ3JhZGllbnRUcmFuc2Zvcm09Im1hdHJpeCgxODkuMzggMCAwIDE4OS44MSAyNTI0My4wNjEgMzg1MTkuMTcpIiBncmFkaWVudFVuaXRzPSJ1c2VyU3BhY2VPblVzZSIgeDE9Ii0xMzMuMjY4IiB4Mj0iLTEzMy4xOTgiIHkxPSItMjAyLjkxIiB5Mj0iLTIwMi44NCI+PHN0b3Agb2Zmc2V0PSIwIiBzdG9wLWNvbG9yPSIjMzg3ZWI4Ii8+PHN0b3Agb2Zmc2V0PSIxIiBzdG9wLWNvbG9yPSIjMzY2OTk0Ii8+PC9saW5lYXJHcmFkaWVudD48bGluZWFyR3JhZGllbnQgaWQ9ImIiIGdyYWRpZW50VHJhbnNmb3JtPSJtYXRyaXgoMTg5LjM4IDAgMCAxODkuODEgMjUzMDkuMDYxIDM4NTgzLjQyKSIgZ3JhZGllbnRVbml0cz0idXNlclNwYWNlT25Vc2UiIHgxPSItMTMzLjU3NSIgeDI9Ii0xMzMuNDk1IiB5MT0iLTIwMy4yMDMiIHkyPSItMjAzLjEzMyI+PHN0b3Agb2Zmc2V0PSIwIiBzdG9wLWNvbG9yPSIjZmZlMDUyIi8+PHN0b3Agb2Zmc2V0PSIxIiBzdG9wLWNvbG9yPSIjZmZjMzMxIi8+PC9saW5lYXJHcmFkaWVudD48cGF0aCBkPSJtMTUuODg1IDIuMWMtNy4xIDAtNi42NTEgMy4wNy02LjY1MSAzLjA3djMuMTloNi43NTJ2MWgtOS40NDFzLTQuNTQ1LS41Ni00LjU0NSA2LjY0NSA0LjAxMyA2LjkxMiA0LjAxMyA2LjkxMmgyLjMxN3YtMy4zNjFzLS4xMy00LjAxMyAzLjktNC4wMTNoNi43NjJzMy43NzIuMDYgMy43NzItMy42NTJ2LTYuMDkxcy41NzItMy43MTItNi44NDItMy43MTJ6bS0zLjczMiAyLjEzN2ExLjIxNCAxLjIxNCAwIDEgMSAtMS4xODMgMS4yNDR2LS4wMmExLjIxNCAxLjIxNCAwIDAgMSAxLjIxNC0xLjIxNHoiIGZpbGw9InVybCgjYSkiLz48cGF0aCBkPSJtMTYuMDg1IDI5LjkxYzcuMSAwIDYuNjUxLTMuMDggNi42NTEtMy4wOHYtMy4xOGgtNi43NTF2LTFoOS40N3M0LjU0NS41MDggNC41NDUtNi42NTUtNC4wMTMtNi45MTItNC4wMTMtNi45MTJoLTIuMzQ3djMuMzE3cy4xMyA0LjAxMy0zLjkgNC4wMTNoLTYuNzY1cy0zLjc3NS0uMDU3LTMuNzc1IDMuNjU1djYuMTMycy0uNTcyIDMuNzEyIDYuODQyIDMuNzEyaC4wNHptMy43MzItMi4xNDdhMS4yMTQgMS4yMTQgMCAxIDEgMS4xODMtMS4yNDR2LjAzYTEuMjE0IDEuMjE0IDAgMCAxIC0xLjIxNCAxLjIxNGguMDN6IiBmaWxsPSJ1cmwoI2IpIi8+PC9zdmc+;" vertex="1" parent="1">
          <mxGeometry x="240" y="495" width="60" height="60" as="geometry" />
        </mxCell>
        <mxCell id="ukp5wN6on8vU--8jEoze-11" style="edgeStyle=orthogonalEdgeStyle;rounded=0;orthogonalLoop=1;jettySize=auto;html=1;entryX=0;entryY=0.5;entryDx=0;entryDy=0;" edge="1" parent="1" source="ukp5wN6on8vU--8jEoze-3" target="ukp5wN6on8vU--8jEoze-7">
          <mxGeometry relative="1" as="geometry" />
        </mxCell>
        <mxCell id="ukp5wN6on8vU--8jEoze-3" value="" style="shape=image;aspect=fixed;image=data:image/svg+xml,PHN2ZyB2aWV3Qm94PSIwIDAgMzIgMzIiIHhtbG5zPSJodHRwOi8vd3d3LnczLm9yZy8yMDAwL3N2ZyIgeG1sbnM6eGxpbms9Imh0dHA6Ly93d3cudzMub3JnLzE5OTkveGxpbmsiPjxsaW5lYXJHcmFkaWVudCBpZD0iYSIgZ3JhZGllbnRUcmFuc2Zvcm09Im1hdHJpeCgxODkuMzggMCAwIDE4OS44MSAyNTI0My4wNjEgMzg1MTkuMTcpIiBncmFkaWVudFVuaXRzPSJ1c2VyU3BhY2VPblVzZSIgeDE9Ii0xMzMuMjY4IiB4Mj0iLTEzMy4xOTgiIHkxPSItMjAyLjkxIiB5Mj0iLTIwMi44NCI+PHN0b3Agb2Zmc2V0PSIwIiBzdG9wLWNvbG9yPSIjMzg3ZWI4Ii8+PHN0b3Agb2Zmc2V0PSIxIiBzdG9wLWNvbG9yPSIjMzY2OTk0Ii8+PC9saW5lYXJHcmFkaWVudD48bGluZWFyR3JhZGllbnQgaWQ9ImIiIGdyYWRpZW50VHJhbnNmb3JtPSJtYXRyaXgoMTg5LjM4IDAgMCAxODkuODEgMjUzMDkuMDYxIDM4NTgzLjQyKSIgZ3JhZGllbnRVbml0cz0idXNlclNwYWNlT25Vc2UiIHgxPSItMTMzLjU3NSIgeDI9Ii0xMzMuNDk1IiB5MT0iLTIwMy4yMDMiIHkyPSItMjAzLjEzMyI+PHN0b3Agb2Zmc2V0PSIwIiBzdG9wLWNvbG9yPSIjZmZlMDUyIi8+PHN0b3Agb2Zmc2V0PSIxIiBzdG9wLWNvbG9yPSIjZmZjMzMxIi8+PC9saW5lYXJHcmFkaWVudD48cGF0aCBkPSJtMTUuODg1IDIuMWMtNy4xIDAtNi42NTEgMy4wNy02LjY1MSAzLjA3djMuMTloNi43NTJ2MWgtOS40NDFzLTQuNTQ1LS41Ni00LjU0NSA2LjY0NSA0LjAxMyA2LjkxMiA0LjAxMyA2LjkxMmgyLjMxN3YtMy4zNjFzLS4xMy00LjAxMyAzLjktNC4wMTNoNi43NjJzMy43NzIuMDYgMy43NzItMy42NTJ2LTYuMDkxcy41NzItMy43MTItNi44NDItMy43MTJ6bS0zLjczMiAyLjEzN2ExLjIxNCAxLjIxNCAwIDEgMSAtMS4xODMgMS4yNDR2LS4wMmExLjIxNCAxLjIxNCAwIDAgMSAxLjIxNC0xLjIxNHoiIGZpbGw9InVybCgjYSkiLz48cGF0aCBkPSJtMTYuMDg1IDI5LjkxYzcuMSAwIDYuNjUxLTMuMDggNi42NTEtMy4wOHYtMy4xOGgtNi43NTF2LTFoOS40N3M0LjU0NS41MDggNC41NDUtNi42NTUtNC4wMTMtNi45MTItNC4wMTMtNi45MTJoLTIuMzQ3djMuMzE3cy4xMyA0LjAxMy0zLjkgNC4wMTNoLTYuNzY1cy0zLjc3NS0uMDU3LTMuNzc1IDMuNjU1djYuMTMycy0uNTcyIDMuNzEyIDYuODQyIDMuNzEyaC4wNHptMy43MzItMi4xNDdhMS4yMTQgMS4yMTQgMCAxIDEgMS4xODMtMS4yNDR2LjAzYTEuMjE0IDEuMjE0IDAgMCAxIC0xLjIxNCAxLjIxNGguMDN6IiBmaWxsPSJ1cmwoI2IpIi8+PC9zdmc+;" vertex="1" parent="1">
          <mxGeometry x="240" y="625" width="60" height="60" as="geometry" />
        </mxCell>
        <mxCell id="ukp5wN6on8vU--8jEoze-6" value="" style="shape=image;aspect=fixed;image=data:image/svg+xml,PHN2ZyB4bWxucz0iaHR0cDovL3d3dy53My5vcmcvMjAwMC9zdmciIHdpZHRoPSIxMTMuNzgiIGhlaWdodD0iMTI4IiB2aWV3Qm94PSIwIDAgMjU2IDI4OCI+PHBhdGggZmlsbD0iIzIwMUQxRSIgZD0iTTEwOC42MzQgMjU0LjQzNmM5LjA4IDAgMTYuNDQgNy4zNjEgMTYuNDQgMTYuNDQycy03LjM2IDE2LjQ0LTE2LjQ0IDE2LjQ0cy0xNi40NDItNy4zNi0xNi40NDItMTYuNDRzNy4zNjEtMTYuNDQyIDE2LjQ0Mi0xNi40NDJtOTEuMjE2LTI5Ljk5OGwxNi4yNDcgNC44MTRMMjAzLjIgMjcyLjc4YTguNDcgOC40NyAwIDAgMS04LjcgNi4wNDZsLTMuOTgzLS4yNzNsLS4wOTguMDhsLTQxLjM5LTIuOTA0bDEuMTUyLTE2LjkwNmwyNy44MDggMS44ODdsLTE4LjIwNS0yNi4yNjJsMTMuOTI2LTkuNjU2bDE4LjIyOSAyNi4yOTV6bS0xNzYuODM3LTMwLjA5bDE2LjkwMyAxLjE5N2wtMS45OCAyNy44MDRMNjQuMTUgMjA1LjEybDkuNjc3IDEzLjkxbC0yNi4yNDggMTguMjQ4bDI2Ljc5MiA3Ljg5NWwtNC43OSAxNi4yNTVsLTQzLjczMi0xMi44ODVhOC40NyA4LjQ3IDAgMCAxLTYuMDU4LTguNzI2ek0xMzIuMTUgMTcwLjY3bDMwLjUwOCAzNi44MzJsLTEzLjc1IDExLjM4OWwtMTguMTU2LTIxLjkybC01Ljg4NiAzMy43MDJsLTE3LjU4Ny0zLjA3NGw1Ljg5Mi0zMy43NTVsLTI0LjQ0MiAxNC40MTJsLTkuMDYzLTE1LjM4M2w0MS4wNzktMjQuMmE4LjkzIDguOTMgMCAwIDEgMTEuNDA1IDEuOTk3bTg1LjM1NC0yNC43MWwxNS4yMzktOC4yOTJsMjIuMiA0MC44MDVhOC42NzUgOC42NzUgMCAwIDEtMS45MjYgMTAuNjlsLTMuMTQxIDIuNzE0bC0zMi4wNSAyNy44OTNsLTExLjM4Ni0xMy4wOWwyMS41NDgtMTguNzQ3bC0zMi4wOTUtNS43ODFsMy4wNzgtMTcuMDc0bDMyLjA3MyA1Ljc3OXpNMzcuNzgyIDEwMy4yOThsMTEuNDggMTMuMDA4bC0yMS4yNTEgMTguNzQzbDMyLjE1NiA1LjYxNGwtMi45OCAxNy4wOTFsLTMyLjE5Mi01LjYxOGwxMy44MjcgMjQuOTk4bC0xNS4xOCA4LjM5OGwtMjIuNTU4LTQwLjc3NmE4LjY3NSA4LjY3NSAwIDAgMSAxLjg1LTEwLjcwM3ptMTA4LjY5NC0xMy40MmwzMC40MDQgMzYuNzM0bC0xMy43NTMgMTEuMzg0bC0xOC4xNTItMjEuOTNsLTUuODg2IDMzLjcxMmwtMTcuNTg3LTMuMDc0bDUuODcyLTMzLjYyNGwtMjQuMzQ5IDE0LjI3NGwtOS4wMjctMTUuNDAzbDM3LjQtMjEuOTI5bC4wMzgtLjE0MmwuMTY1LjAyMWwzLjQ4NS0yLjAzMmE4LjkzIDguOTMgMCAwIDEgMTEuMzkgMi4wMW0zOS4xOC0xOC4wNjVsNi42NS0xNi4wMjRsNDMuMDEyIDE3Ljg1YTguNjc1IDguNjc1IDAgMCAxIDUuMjE4IDkuNTE3bC0uNzE2IDMuOTgybC03LjM0NSA0MS43OGwtMTcuMDg2LTMuMDFsNC45MjQtMjcuOTY4bC0yOC41MzcgMTUuNzcybC04LjM4Ni0xNS4xODhsMjguNTkxLTE1Ljc4NHptLTgxLjkzOS0zMS41NzdsLjc0IDE3LjMzNGwtMjguNDE0IDEuMjE0bDIxLjQzIDI0LjQ5bC0xMy4wNTYgMTEuNDI0TDYyLjk1IDcwLjE3M2wtNS4wMDEgMjhsLTE3LjA3OC0zLjA1NGw4LjE4NC00NS43NTlhOC42NzQgOC42NzQgMCAwIDEgOC4xNy03LjEzOWw0LjAyLS4xOGwuMDktLjA2NXptNTguMTIxLTM2Ljk2NWwzMC4yNjcgMzYuOTY1bC0xMy44MTQgMTEuMzFsLTE3Ljk2NC0yMS45NDNsLTYuMDU5IDMzLjY2OGwtMTcuNTctMy4xNjJsNi4wNjgtMzMuNzQzbC0yNC41MjYgMTQuMzRsLTkuMDA3LTE1LjQxNUwxNTAuNDI4IDEuMjJhOC45MyA4LjkzIDAgMCAxIDExLjQxIDIuMDUyIi8+PC9zdmc+;imageBackground=light-dark(#000000,#FFFFFF);" vertex="1" parent="1">
          <mxGeometry x="416.5" y="493" width="57" height="64" as="geometry" />
        </mxCell>
        <mxCell id="ukp5wN6on8vU--8jEoze-7" value="" style="shape=image;aspect=fixed;image=data:image/png,iVBORw0KGgoAAAANSUhEUgAAAOEAAADhCAMAAAAJbSJIAAAAwFBMVEX07+v/lDn/lDj17+r/lDf17uzy8Oz/lDbz7+317+jz8Or+lDv27ur/lDXy8O3/kzr/kTL/jyz/ixzx9fT8ljnw9fb/jif47ub7q2n+ky//jyL08Of/jir07u/w8er/ixj6vI/30LD7tXz8sHP8mEH04tP9pFn128L4y6f207Tz59z9nUj5t4T7w5n6oFP0zqfz3sj4x5v7kBX7rWz51cH6xJ722b7z18X5qF74xZf149j6toT5u5Tz59X2y5z08/koN1U4AAAL80lEQVR4nO2dDVfaPBvH27RN06RNXxJa0q4UEBBBfXCbTHffPn7/b/UEfVSgdEJ5sezkt3N2zjbU/JvkesuVTtMUCoVCoVAoFAqFQqFQKBQKhUKhUCgUCoVCoVAoFAqFQqFQKBR/CRRRhL56EDtjuU7uIs1FlkarPgMNZGgu61z2xlcTZiDsQuuUY9wPC2oupAxSI8mqPmMYidN66sepEHExHUPDcs5IoWPAzrg/Gl1fMVj1mTyDzzeFr5u6bQ+89PaJQveUY9wPyMZpHAR2GHuXrOIz2H2+Tn1P1wEgHiFBOMQnHWN9sIZwqx0D/QVQ/IdZG1eqy8aFvkQw6Jx6qDWBltXqh4C/jbyYa8amz3WGKV9WSOLrSqvULJCLLmPvY+ReONk4cnrrm8sKdZ5WWqVmkVHaFjZ5H7gZDJwN/k4uZA5WFHqidx6TiDInXRk5CaYTlkgzYuVI4lrQsXD2EOqrmLrXPROF2u8VhbbNg7jHEMYONiTYgVprNvD0dYh9cR4KNW0YrY7c5DwdXTKDGjI+gzlqDS8iUBJomuJHlWdpFiibrCgk3CSAmCm/uZzIKdRmd7dRwM2SRE7E7XkotLLWQHpwc10BCONIcBHFoV2av5d/t3XBsOZ89fg/R0aX3dAkZJMKD+jBRnmLudZB/ITpRt/ZLDJL+sPFgDfNE9ms/BUzHkP3DBIpmQdBQeyyKXmR6JVW7xu2jE3lRjyP/IJdhH+Yqj9QzKrzyUaBrkJS9ndb4N2yM7A0CyYRqFyNf1QY3rEzWaYPAf9cTxnipbPzWKZ0LGqtUl/n32co0XKXvqTDjmYhjSYazGHD0mO0FrhtDwDxvIXc5HU7JjQxEkSR5jZtezpsIGpK1O2in7HcffH8yNAYhdlwQpsWzyH073pytDXcE3F32MoXdVQDsqebQRRF4sewWRodOIvrKpSAIJ1e9+azea97m4bmy98U1y25IRsE45uDmu0wgReEcZqG4UcMlPabZG3yTOtXhthbICM4YAPueZz4b39HoqsGmRsL5/N9lqlUyKVDlTrBe/jHdVFZXT49Hc3opDKn3UNkGZ5eNScawNjA7eCwCgkQjapUOTKsqRWaViKT5ybVcRwDTYpyJWMfbNO7aJBCCbv19nEYJYgfNGqVSoU39mH3IY/mDStxzKKDrlLgDZq1SKW/qJUiVissZvlXa1rF6FzXzi9K6mwAil7Tzvlh/jP9fOzbStTTedagkOaFDBsHm0MC0ktKm2VJF7Epvdgn+l5G8AlK5K+v1rRKlmtX3yqq+zsBSDh1Nh2yfjVWgp0ImHsr5CAcoQQ2zI4uyCHNR3atktsKXnjRyV3cwF4b7GA4rl2t+SC+Zm6WNyH5dbGluTBf7qdAvyN7P7dvgmjMnIb0aFiZ4+TG6ukYmwZ77UMi0vmz0ZTzqBzTVguzlRNO1N0vSfTiGe5oTjOapdjsehqL9h1e9st0lu4zhwGf5NRyO0e0Mq7jQOy0UE4hRjiptNiGBi+iwNS9QKRjRt/Ngtupb0xNLm4nLefIp94IIQPSYW/c+2UxalUGhhjevpTWiA5A1KcfT4L1aysk0g22EuvIRtR1KbznURyG8ff+hFbaNNh+tShSoU3Su/eFmsCr2kXFoi93oEWPbGUcOhzE3qLlx9SDYlyVgdKfEX+xKIvyLfGK9ydhQFxXYfTYcrHhHHMO5RZ00fD7R83ZTm9Yp2y5XQ05XOjvNRnTDu/fJxG+zO5OPpFwj3h+VPk4DweF1J2I4H3kxCNFjzqlZ4oQa4fLXSSe3X4bnYFhTwBzp73IibkoyZwgVXINt9UXH52wvnRtxa9y37bB+kK65o8nwQF/U+hSPImIv9McAo8EYtg5QS5hOa2nQv/o0OK+nKa0tHhQ5yIGMkV9n0OwpBC5Wus22C1y4yQcPKFTRNrUpXff1n66tCL97Nl1IbQW8VnmSkc/DVcFAF08LD0G9Ci4r28J8Lnnx6MTJYPSUZROyDghQXqTMQyxVIme2awf2dK2rHwGBMsN2zL63lqgPvBMnv4wTpTtGga7XVcodxQwRdS+v0ycZDLvTouASwu0UtuWGetKNzPj29cyTGlE/3nGJ4pDkVVWSIgpF5IpRFqkaREH3qL1yV7rDjLj4fIkWP+Kze2WG+B6cUcRPlEuIb1hu04lSa6zlTlA8+2KijYBwE97J6xWGBqtdVLt8emqR2HbZVCE23r66/mkmRL7UWsOvX9WvHXC+lvVMrhneqfxEm8gh01rpa/xeDUegT+3ik2JmCbVsf1RwLRWzdqLL1etPXW+f/Y1HBBbjLQT10QRvqzXnBY5K30vrvX86WqXoWh60cInLtujVrdWLRAMWivROc3geD02Kn2NHncp3nzH7Xhgq14VKbhYzVotnE8+WwxmcfecnbTmizOE8jtRq9Yp7ul6/sFGwqz8XoRwM52zE99CwG7mZnG9Eks6p+s5JB0HfvU384JwRk9tZbDG6EiQ7UPmZYUJWl9v6Kng1esh4BPqWic+l8gTeh3aXq1ap6BWaT7Y1K/sPAlvM/lI6BH7Dh2IXOTKn5FZLxYCO9TIWb/uCXXQRrBkE/HdZrPsc+kl8uoq5YFwZS6LNMNytM7rH6XYUe1Do/AGWqX5gBV936YfXVN67C1oaIhCxqBmOc7iBiSl+D4Nah83xHNcrgAmrdFGSxOk/32mx3eDbHbfHrVvLjWWQ8rYvCvSP9/A+iPREJUsjVwUw2LDZ8H3qxwbVnlVHw4s15P7owgkYZpO2/32NI7D+u1oxCZiU52Tap1uaq7eFOI6EEOKjpztYuhMBuHrnVzu2yLwvL2OpYFujjYpTBBmF+t3twVPtM1X9Q+I/MG3Qn+tBPoml0vT3+tE0yThxv7BHDrQ6a+WpNIR1BBKjiwxoeN00Uz9Ojq5irz9+gnBWhXqHRc5sNUT394NWFB0ZaDmSl91XIXU4FtXibbB9NNhle1H0iONeSREEIpC/OOcJlWis/igHZJcTyvnxFgcY+BJ7/7xcTxjp7rvC3vhQVskiX3bqlRoaDKtQoZmIKadrPvAOETDyxKm+KeyGkgNA+FFQ4NjYLn/TjSH6Co+7J0IMW5aA+Hv6LC92NGsYffpjedS4X4/4gZdvnoB57O6lz03AgalCsYXAw32GOn1cvlNiP7RU6EdSZDbGhf7xaIrCsdGw/ahjDOszrD+nd110hlqmELL6TgWhv1DbcZ40rBF+ga7CsXiKt2+8c1Hi0LjwMnDN2JWV223JLjoNGyRvkNp5yby9lYYjjtuUyU6iA4He8eo8RXsNKSfdxNQ66dAr38/wuM8SvKGOfwVDItdpUH1O4A+hXg6RFoDbw28AQ0LP7Xr5xpEFz8YbrJCBy7Kpff1r0Wa4gZlqMnLVGJpbMgXrtEc7CzQ89OfTUsOy7gWxvQi8jzT37lCReyoqRHNEo6rUdS6Srlu77xYORGVNZrmABNkORbNHuLdnT/w2g3fg0sgOI5sXyc7HWD44U3zF+k7LlpEODtWi+PeGSmkeU6vi2A3hdHkq4e9A1miYTYXO1WpPHFur8fv5MlDDMjWJsccsTNTmMDFm9W374sKu+f01vgF1LJy+DTdOqWK5/TMFGYuyvIcX294qfFmhbOmVRK3hP0Sgps6+FRnzM5tDt/IcDse+OCzrCp4YG6D8/s/AS0qDc6nNjXs0mOfWB8Ly6Do9/TTJrBvPWqc6SpdgGA34jqonEegm9Hvc3MWK2SUzXkIqs83TBIj59Q9oocEOwihiz9cKjDNhxY+Z4UWSmDGepWBKjHDR402thq8JVbSmoxCwG1S7qwFflHZR3M+0Fyj9LEwfcBLsaoJRmdQwfgM10EupsOp2HSvN/rdkPeP7IM0la4DaadflE/hll4y8BfQkpmx//8b0J7O+eJFXNf5OfyfBtsCUfYjFa8VY7A4dDSjLuqcs6dYx7Go9BvfXrw/AcSO+YxaWdK0Rpo9sDLNyp3H6cv7QMLitseMHObGX6TwFcQm8/G4d5m0/iYbs4qlIQQh/uvm7gMs5Rny968ex/FYXCJyXeNM83qFQqFQKBQKhUKhUCgUCoVCoVAoFAqFQqFQKBQKhUKhUCgUe/A/Y8rY5gY8vCMAAAAASUVORK5CYII=;" vertex="1" parent="1">
          <mxGeometry x="415" y="625" width="60" height="60" as="geometry" />
        </mxCell>
        <mxCell id="ukp5wN6on8vU--8jEoze-12" value="News Data" style="text;html=1;align=center;verticalAlign=middle;resizable=0;points=[];autosize=1;strokeColor=none;fillColor=none;" vertex="1" parent="1">
          <mxGeometry x="40" y="635" width="80" height="30" as="geometry" />
        </mxCell>
        <mxCell id="ukp5wN6on8vU--8jEoze-13" value="Preprocessing" style="text;html=1;align=center;verticalAlign=middle;resizable=0;points=[];autosize=1;strokeColor=none;fillColor=none;" vertex="1" parent="1">
          <mxGeometry x="220" y="675" width="100" height="30" as="geometry" />
        </mxCell>
        <mxCell id="ukp5wN6on8vU--8jEoze-15" value="Vector Embedding" style="text;html=1;align=center;verticalAlign=middle;resizable=0;points=[];autosize=1;strokeColor=none;fillColor=none;" vertex="1" parent="1">
          <mxGeometry x="210" y="545" width="120" height="30" as="geometry" />
        </mxCell>
        <mxCell id="ukp5wN6on8vU--8jEoze-16" value="Pinecone&lt;div&gt;Database&lt;/div&gt;" style="text;html=1;align=center;verticalAlign=middle;resizable=0;points=[];autosize=1;strokeColor=none;fillColor=none;" vertex="1" parent="1">
          <mxGeometry x="410" y="555" width="70" height="40" as="geometry" />
        </mxCell>
        <mxCell id="ukp5wN6on8vU--8jEoze-17" value="MotherDuck&lt;div&gt;Database&lt;/div&gt;" style="text;html=1;align=center;verticalAlign=middle;resizable=0;points=[];autosize=1;strokeColor=none;fillColor=none;" vertex="1" parent="1">
          <mxGeometry x="400" y="685" width="90" height="40" as="geometry" />
        </mxCell>
        <mxCell id="ukp5wN6on8vU--8jEoze-18" value="Workflow 1: Combine News Headlines and News Description to perform vector embedding" style="rounded=1;whiteSpace=wrap;html=1;" vertex="1" parent="1">
          <mxGeometry x="500" y="505" width="240" height="70" as="geometry" />
        </mxCell>
        <mxCell id="ukp5wN6on8vU--8jEoze-19" value="Workflow 2: Save a copy of data from Hugging Face into MotherDuck" style="rounded=1;whiteSpace=wrap;html=1;" vertex="1" parent="1">
          <mxGeometry x="500" y="625" width="240" height="70" as="geometry" />
        </mxCell>
        <mxCell id="ukp5wN6on8vU--8jEoze-21" value="Assignment 1 Part 1" style="text;html=1;align=center;verticalAlign=middle;resizable=0;points=[];autosize=1;strokeColor=none;fillColor=none;fontSize=21;fontStyle=5" vertex="1" parent="1">
          <mxGeometry x="320" y="355" width="210" height="40" as="geometry" />
        </mxCell>
        <mxCell id="ukp5wN6on8vU--8jEoze-23" value="" style="shape=image;aspect=fixed;image=data:image/png,iVBORw0KGgoAAAANSUhEUgAABLAAAAFXCAYAAACyWLdSAAAAAXNSR0IArs4c6QAAIABJREFUeF7s3QmYHFXVN/D/qaqunpkkk216JhtkZYtBEQQEEUISQEQSFCOIghuK+IIbKvihIm6voL7uvogbbqigJAEBgQwgIiiKoC87WSGEzPRkX2a6uqrOZ02CEEgyPd23qqu7/+Xj4+OTqnPP/d07M92nqu4V8KAABShAAQpQgAIUoAAFKEABClCAAhSgQIoFJMW5MTUKUIACFKAABShAAQpQgAIUoAAFKEABCoAFLE4CClCAAhSgAAUoQAEKUIACFKAABShAgVQLsICV6uFhchSgAAUoQAEKUIACFKAABShAAQpQgAIsYHEOUIACFKAABShAAQpQgAIUoAAFKEABCqRagAWsVA8Pk6MABShAAQpQgAIUoAAFKEABClCAAhRgAYtzgAIUoAAFKEABClCAAhSgAAUoQAEKUCDVAixgpXp4mBwFKEABClCAAhSgAAUoQAEKUIACFKAAC1icAxSgAAUoQAEKUIACFKAABShAAQpQgAKpFmABK9XDw+QoQAEKUIACFKAABShAAQpQgAIUoAAFWMDiHKAABShAAQpQgAIUoAAFKEABClCAAhRItQALWKkeHiZHAQpQgAIUoAAFKEABClCAAhSgAAUowAIW5wAFKEABClCAAhSgAAUoQAEKUIACFKBAqgVYwEr18DA5ClCAAhSgAAUoQAEKUIACFKAABShAARawOAcoQAEKUIACFKAABShAAQpQgAIUoAAFUi3AAlaqh4fJUYACFKAABShAAQpQgAIUoAAFKEABCrCAxTlAAQpQgAIUoAAFKEABClCAAhSgAAUokGoBFrBSPTxMjgIUoAAFKEABClCAAhSgAAUoQAEKUIAFLM4BClCAAhSgAAUoQAEKUIACFKAABShAgVQLsICV6uFhchSgAAUoQAEKUIACFKAABShAAQpQgAIsYHEOUIACFKAABShAAQpQgAIUoAAFKEABCqRagAWsVA8Pk6MABShAAQpQgAIUoAAFKEABClCAAhRgAYtzgAIUoAAFKEABClCAAhSgAAUoQAEKUCDVAixgpXp4mBwFKEABClCAAhSgAAUoQAEKUIACFKAAC1icAxSgAAUoQAEKUIACFKAABShAAQpQgAKpFmABK9XDw+QoQAEKUIACFKAABShAAQpQgAIUoAAFWMDiHKAABShAAQpQgAIUoAAFKEABClCAAhRItQALWKkeHiZHAQpQgAIUoAAFKEABClCAAhSgAAUowAIW5wAFKEABClCAAhSgAAUoQAEKUIACFKBAqgVYwEr18DA5ClCAAhSgAAUoQAEKUIACFKAABShAARawOAcoQAEKUIACFKAABShAAQpQgAIUoAAFUi3AAlaqh4fJUYACFKAABShAAQpQgAIUoAAFKEABCrCAxTlAAQpQgAIUoAAFKEABClCAAhSgAAUokGoBFrBSPTxMjgIUoAAFKEABClCAAhSgAAUoQAEKUIAFLM4BClCAAhSgAAUoQAEKUIACFKAABShAgVQLsICV6uFhchSgAAUoQAEKUIACFKAABShAAQpQgAIsYHEOUIACFKAABShAAQpQgAIUoAAFKEABCqRagAWsVA8Pk6MABShAAQpQgAIUoAAFKEABClCAAhRgAYtzgAIUoAAFKEABClCAAhSgAAUoQAEKUCDVAixgpXp4mBwFKEABClCAAhSgAAUoQAEKUIACFKAAC1icAxSgAAUoQAEKUIACFKAABShAAQpQgAKpFmABK9XDw+QoQAEKUIACFKAABShAAQpQgAIUoAAFWMDiHKAABShAAQpQgAIUoAAFKEABClCAAhRItQALWKkeHiZHAQpQgAIUoAAFKEABClCAAhSgAAUowAIW5wAFKEABClCAAhSgAAUoQAEKUIACFKBAqgVYwEr18DA5ClCAAhSgAAUoQAEKUIACFKAABShAARawOAcoQAEKUIACFKAABShAAQpQgAIUoAAFUi3AAlaqh4fJUYACFKAABShAAQpQgAIUoAAFKEABCrCAxTlAAQpQgAIUoAAFKEABClCAAhSgAAUokGoBFrBSPTxMjgIUoAAFKEABClCAAhSgAAUoQAEKUIAFLM4BClCAAhSgAAUoQAEKUIACFKAABShAgVQLsICV6uFhchSgAAUoQAEKUIACFKAABShAAQpQgAIsYHEOUIACFKAABShAAQpQgAIUoAAFKEABCqRagAWsVA8Pk6MABShAAQpQgAIUoAAFKEABClCAAhRgAYtzgAIUoAAFKEABClCAAhSgAAUoQAEKUCDVAixgpXp4mBwFKEABClCAAhSgAAUoQAEKUIACFKAAC1icAxSgAAUoQAEKUIACFKAABShAAQpQgAKpFmABK9XDw+QoQAEKUIACFKAABShAAQpQgAIUoAAFWMDiHKi6wPwjHhrlD8lMD+HsI9ApqjIZgpGiaFWgFYIWKJpF0KyqLkRcKGyg/787DgkgGkClCFEPigIgvYBuE2AboJsVshGCLoRYCbGWi1V8PLOl+fFr792rt+oITIACFKAABShAAQpQgAIUoAAFKECB3QqwgMXJkZjA3JlLptmOvFwh0wGdroqpKpgsilxiSeyyIVkNhCsALIFaT1hW8FBgy8PX3zJ1KSBa3dzYOgUoQAEKUIACFKAABShAAQpQgAIsYHEOxCIw97jHxkmYmQ6Rg4DwWKi8BsDwWBqLLahsFeg9oehdIvKPUOxHb7h14goWtWIDZ2AKUIACFKAABShAAQpQgAIUoMAuBVjA4sQwInDyzMfbbCszBRKeoJC3A9jXSOD0BemG4Leq9m8dDZfZoyevuvZaCdKXJjOiAAUqEXCyuW8oxKkkxnPXqsrm0Ov6pIlYjEEBClCAAhSgAAUoQIFGFWABq1FHvsJ+z5x5hzMM+42wnb5ZUP2EAodUGLJWL+8B8G0JrJ8Fw9Z233DDq7bVakeYNwUo8LyA7bZHa+g1GTERdAeFfIeRWAxCAQpQgAIUoAAFKECBBhVgAatBB77cbs+fr3Zx7bJPqeACAEMBcA5tx1RAQgC3uS1N51x7w7inyjXmdRSgQPUFWMCq/hgwAwpQgAIUoAAFKEABCrxQgMUHzocBBU488cms4+ECC9b7AB0HSGbAixr+BFkr0PtssS/+3eJJDzQ8BwEoUGMCLGDV2IAxXQpQgAIUoAAFKECBuhdgAavuh7jcDqo1d9byU0VwnkIPEWBIuZEa/DpV6HJLcJOVabrsupsnrGpwD3afAjUhwAJWTQwTk6QABShAAQpQgAIUaCABFrAaaLBL6eqbZi2bGArOB/TNCkws5RqeU7JAEcAfRcIfPL1+44L7739V9P95UIACKRRgASuFg8KUKEABClCAAhSgAAUaWoAFrIYe/u2dv+QStf51z4rXhkH4PgjeAsDIzluk3aPASoF+LxPYP7v2zslraEUBCqRLgAWsdI0Hs6EABShAAQpQgAIUoAALWA08B945c3nTegfHQMMvonF3Eaz2DPCg+K5m9HvX3zJtSbWTYfsUoMB2ARawOBMoQAEKUIACFKAABSiQLgEWsNI1HolkM/+Ip5sLQ7xZonolIOMSaZSNDCSgAK4rqlxw0+2TnwIk+v88KECBKgmwgFUleDZLAQpQgAIUoAAFKECB3QiwgNVAU6P/VcF7V84Mg2ABgNYG6npNdVUgtwncty7oHL+OhayaGjomW0cCLGDV0WCyKxSgAAXqRMDOtJ8F0Z8a647I9UGhe56xeAxEAQpQIGYBFrBiBk5L+LnHLX2VhLgRQA4Axz0tA7P7PAqALmi1h57981vHbE1/usyQAvUlwAJWfY0ne0MBClCgHgRYwKqHUWQfKECBSgRYyKhErwauPXnm4/tbthPdqTmUhasaGLCXprhBgB8v7Jx6QU1mz6QpUKMCLGDV6MAxbQpQgAJ1LMACVh0PLrtGAQqUJMACVklMtXfSCSc8ParJL3wdkNMAZGuvB8z4RQJPiVqXLLx90k/5WiHnBgXiF2ABK35jtkABClCAAoMTYAFrcF48mwIUqD8BFrDqb0wxb/aSDwLWZwAdXYfda+wuCW6FOh9Z1DnxkcaGYO8pEK8AC1jx+jI6BShAAQoMXoAFrMGb8QoKUKC+BFjAqqPxPOXYJYfAku8rcEgddYtd2YWAQD9TcPWbN9+8zyYCUYAC5gVYwDJvyogUoAAFKFCZAAtYlfnxagpQoPYFWMCq/THEiSc+2Zot2h9U1c/XQXfYhdIFnpBQz1h4x7T7S7+EZ1KAAqUIsIBVihLPoQAFKECBJAVYwEpSm21RgAJpFGABK42jMoic5s1ZeiBUbgO0YxCX8dQ6EhDg8g2Bdcmdd07uq6NusSsUqKoAC1hV5WfjFKAABSiwCwEWsDgtKECBRhdgAauGZ8Dc45ZeJoqPQWHVcDeYugEBEeRH+NbeV7GIZUCTISgAsIDFWUABClCAAmkTYAErbSPCfChAgaQFWMBKWtxAe/NPeHqU53t3ATIdUI6hAdM6CeFB9OJFi6d+jTsV1smIshtVE2ABq2r0bJgCFKAABXYjwAIWpwYFKNDoAix+1NQMUDll9vJ3K/TrAIbVVOpMNjEBAW7rdXpPv+WWGesSa5QNUaDOBFjAqrMBZXcoQAEK1IEAC1h1MIjsAgUoUJEAC1gV8SV38fyZ3UM9Z/O3oHhXcq2ypRoWWBoK3nnD4ql313AfmDoFqibAAlbV6NkwBShAAQrsRoAFLE4NClCg0QVYwKqBGfDG2Uv3VcXVKjikBtJliukR6BXIhxd2TrkyPSkxEwrUhgALWLUxTsySAhSgQCMJsIDVSKPNvlKAArsSYAEr5fPilOOWztYQ1wFoTXmqTC+lAirynU3+5I/ceaf4KU2RaVEgdQIsYKVuSJgQBShAgYYXYAGr4acAASjQ8AIsYKV2CqjMO3bZh2Hhf1KbIhOrJYGHdUjrEddfn9tcS0kzVwpUS4AFrGrJs10KUIACFNidAAtYnBsUoECjC7CAlcoZoDJ3zrJfiuKtqUyPSdWogBbCIJhww5379dRoB5g2BRITYAErMWo2RAEKUIACJQqwgFUiFE+jAAXqVoAFrJQN7fz5D7neuqYHADkAAMcnZeNT++nIVst2Xr3g1r0fqv2+sAcUiE+ABaz4bBmZAhSgAAXKE2ABqzw3XkUBCtSPAAskKRrL+Sc+m/OK2+6BYlqK0mIq9SewxYK8aUHnlNvqr2vsEQXMCLCAZcaRUShAAQpQwJwAC1jmLBmJAhSoTQEWsFIybnOPXbafWHojgKkpSYlp1LdAnwXr/Qs6J/+0vrvJ3lGgPAEWsMpz41UUoAAFKBCfAAtY8dkyMgUoUBsCLGClYJxOnbPilb4GNwEYk4J0GiYF2waGttpwM4IwBAp9IbZuDaHaMAQFCM5dtHjqTxqmx+woBUoUYAGrRCieRgEKUIACiQmwgJUYNRuiAAVSKsACVpUH5pTjVx6iQfEPgLRVOZW6bj4qVk2aksU++2cx4xXN/f/bMcZ5SZ+LRcXqVUUsfdLDYw/3YfnSAp5e4aGvrz6rWgIUYen7Ft427aq6ngDsHAUGKcAC1iDBeDoFKEABCsQuwAJW7MRsgAIUSLkAC1hVHKB5s1dOh/h3QzGyimnUddOtw20c+uoWnHn2KIwYaZfV16KnuO3mzbj1xk14eqWHICgrTGovEpFQVc5Y1DnpGkDqs1KXWn0mllYBFrDSOjLMiwIUoEDjCrCA1bhjz55TgALbBVjAqtJMmHvcU+MkLD4GYFiVUqjrZm1HMHPOUPzXR3OwLHNd3bA+wFc+34XHHikg8Ouq1qMq9snXL554E4tY5uYLI9WuAAtYtTt2zJwCFKBAvQqwgFWvI8t+UYACpQqwgFWqlMHz3nbik61bivazUG0xGJahdgiMzjn4+hXjET19FdcRPZX1sf96BiuXe3E1UY24itB+w6I7JkXrsfGgQEMLsIDV0MPPzlOAAhRIpQALWKkcFiZFAQokKMACVoLYUVNvOnHVhMArPApgaMJNN0RzR80civM+lkNTU/xTO1rs/aF/9uKyS7uwZXNYF779a2Jp+IaFt+9za110iJ2gQJkCLGCVCcfLKEABClAgNgEWsGKjZWAKUKBGBOL/ll8jEEmkOX/W0+M9Kf4dUO42GAP4Sae04l3vHw3HSXZar1sb4Mpv9eAvf94aQ6+qEFKwSS05+fpbp9xVhdbZJAVSIcACViqGgUlQgAIUoMALBFjA4nSgAAUaXSDZb/oNrD3/xCdzxaL9R1U9oIEZYuv68ScNw/vOb0u8ePVch3xfcd2vN+Dqq9bH1seEAz9jSXDcgsX7Rk8L8qBAwwmwgNVwQ84OU4ACFEi9AAtYqR8iJkgBCsQswAJWzMBR+PlHPN3stRSixbFnJtBcwzWx3/QmXHrZGDQ1G1ytvUzFO2/bgm9e3o3o9cKaPxSP+c3OkTfeOLFuqnI1PybsQGICLGAlRs2GKEABClCgRAEWsEqE4mkUoEDdCrCAFfPQXoJLrAdnvf3nEOuMmJtqyPCZjOCHv9obw0fEt2D7YGH/75+9uPSiNfCL9VDFknsPOmryUZdeKvWxyNdgB5PnN6wAC1gNO/TsOAUoQIHUCrCAldqhYWIUoEBCAixgxQw9b86yL0D14pibacjwIsBFl3bg8COHpK7/D/2rD5/9xLOIXi2s/cP69aLOSWcAUg+dqf3hYA8SEWABKxFmNkIBClCAAoMQYAFrEFg8lQIUqEsBFrBiHNZTjls6W0MsjrGJhg6d63Bw5S/2RlTISuNx642b8b1v5IE6KPuo4NTrF0+9Lo3OzIkCcQiwgBWHKmNSgAIUoEAlAixgVaLHaylAgXoQSOlX/9qnPfnk1S1Wb18eqi2135v09SAqWl3xs73RMdZJX3IvyOjKb/fgpkWbUp1jSckJQktxwILOqU+UdD5PokCNC7CAVeMDyPQpQAEK1KEAC1h1OKjsEgUoMCgBFrAGxVXaydsXbfeWARhT2hU8a7ACe01y8e0fThjsZYmfH71C+LlPrsG/HuhNvG3zDcraYrBtxk13zlhjPjYjUiBdAixgpWs8mA0FKEABCgAsYHEWUIACjS7AApbhGTBzpjqt9tLfCmSe4dAM9wKBD34ih1nHD6sJk65ni/jI+5/Btq11sA666C3uyKknXXutBDWBzyQpUKYAC1hlwvEyClCAAhSITYAFrNhoGZgCFKgRARawDA/UvFlPng2xfmA4LMO9QKB1uI2rrp0Iy6odljtv24JvXNZdOwnvKVORjy9aPOWr9dEZ9oICuxZgAYszgwIUoAAF0ibAAlbaRoT5UIACSQuwgGVQ/JTjnjgIat+vihoqrRgESCjUoa9uwcVfqK23M4NA8ckPr8YTjxYSUoqzGfVh20ctunXyX+NshbEpUE0BFrCqqc+2KUABClBgVwIsYHFeUIACjS7AApahGXD88f8c0hIO/YsqZhgKyTC7EXjveaNx0inDY/FRBbZu3YotW7ai4HmwLQtNTVm0trbCdTMVtfnM00X817uerihGei6WR91tmUOuvXeveljcKz2szCQ1AixgpWYomAgFKEABCuwQYAGLU4ECFGh0ARawDM2AU+Ys+5aqnm8oHMPsQeD7v9gbHWPM7T4YhiE2bNyIq6/+Hb7zvR9iyZJo/f2dD8uyMGvW0fjkhR/Goa96JVpamssao0s/+Swe+Ft91HwssX6yYPHkd5cFwYsokHIBFrBSPkBMjwIUoEADCrCA1YCDzi5TgAI7CbCAZWBCnHzck8fYat+uqnx10IDnnkJE61/97HcTjbWyatVqnPiG0/DEE0sQBKWtS57Nuph78on4yY++0/901mCOjRsCvOstKxHWw3ruIiGCwmEL7zjg/sEY8FwK1IIAC1i1MErMkQIUoEBjCbCA1Vjjzd5SgAIvFWABy8CsmDd76RIAUw2EYogBBKYf2IQvfX2cMafzzv8ErrjyqrLijRwxHF/76hdw1pmnlXx99IrihR98pk7Wwurv9qpFnVP3KhmAJzaKgDQ3j9urGPr7SYh9VHS8irRBtRWADREXqtGCcL2i2Aix8qq6UlRXDBnS/NDGjU+trzYUC1hxjMC0rOtunRJKsLeGOl4E7VDJqYVhUAwF1AakCaIOFFsAKUKwSVQ2igRdocoqy3FWNNnW8s2bn1kbR4aMaURAhg0bN7rXL+6vvkwR0fFQdKhgBIBmQByIulBsA7BNFBsg6FLIKsu2nhg+ZPijPT2PbzaSCYNUSWC667o9+wfAFEt0L1WMUZGRULQCmoFgKFQ8QD1AekV1PUQ2iIbPqCWrHLEe7+vrWgmgDm73mR0CFrDMesYXLfp7t3mfQDDFCnWCCsaoYjQkHAZIdsffOoEiei2jDyKbo5+DUOVZscJVttrLPG/Yk8CSelg8Nz7mGovc1DRmUjEMDxLo/qqyN0RHQrQZsFxAg53/Lso6VX1GbGuFA2tpX9+z0e9EHgBYwKpwGsybs/THULyrwjC8vESBY48bhg9dmCvx7IFPKxQKmD7jCKx8atXAJ+/mjLee/iZc9ePvwrbtkmLku3y87+1PISpm1cUh1k8W8VXCuhjKMjohrtsxwxc9TlSPBDARgrFQaQN0cI8n7tz4FgBdALoBWQbV2wMnuA296xJbRI4FrDJmQ1SdaB493gvsmaL6KhXsByAH9M+HkUD05dXY546tANYp0C3AGgH+pYK7g9GZO7F6dVQY4RG7wHzbabr7NWHoHy3AYQDGAugAMBpAS4XNbxKgSwXPAngSInc22bht69bu6PcCj5QIZDJjDgus8LWieiiA6GbWc+MfFSsrPaIC9npR6VHRLkCWQHB3BvYfG/mLHAtYlU4ro9fbmUzHoYGl0c/Awf2fgfr/5vX/Dox+Bkx8z94IILphE21lvkqB+y1b/uT3dv/ZaE8YzLjAyJFThm/ctvntojhBgH0UmABEN+vKPnwI1gF4LCjkjyk7Sh1caOIHqw4YyuvCG+esOCDUIHp9qrwFkcprtqGvetNpI3DWe0cZNfj1Ndfh7We+v6KYJ5/8Ovz2Nz8puYh19lufQk/er6jNFF0cBhb2//1tU59MUU5MJSYB1x0z3UdwsgBHQ3AotP/DWhJHVPJdBsg9sHBbMEwXIJ+PCl2xHCxglcI63XWyPcf+u8B4tIocCugMaH8Ro5pHKMAjCvwDij8GGf0DtvWsrmZC9dN22zA7ax8LhHNE5TBF/xe2ynY3GRxONLZPKnAvYN0WeMXfA+s2DS4Ezy5foGOInQ2PkVDmQHC4Ql8BYEj58Sq4UvAMVO5X6D224pZiMf9gBdFq6lIWsKo5XBNG2W5hFgQzReVQhR5Yve+A4gn0nyr6d6jVGTS5d2DTqqi4waOaAiNHDre2Zd5mQU9TxVEA4lheaHXg5cdXs5vVbpsFrDJH4JJL1Hrg7uVPCnRKmSF4WRkCZ75nFE59q4kbezs3ftLJp+OWW28vI6PnLznjrafiZ1f9b0kxrrpyHRZes6Gkc2viJMESd2vXy6+998j6WKG+JtCTSzJ6yipEeFIIvFWA6EtLGo7o1ZLrALk68PQ2wGwxiwWsXQ9xNpvbxw/1GIicAuDEmD6cmZxfAQT3WMC1RciNKHS/dJcOk63VW6yhY3K2Fx4P6KkAXle9L2u7gpUCoNfv+B2w2PTvAAwdk0PguMaGtHdV9PRYbd25GtrRbnuYDYTPjX91ClYDDoI+JYJfI8BNvt8TPZmSNmcHzROip9MqPqywcKoovllxoOcCCG4NrGy8G/LYxSK2dEVPENXaIcjmplmhHCsWToPqaxMu2g/GqwigE5ZeF8BejL6u5YO5OOXn2mieMMZYjtIXYltP9HSvuaNpzCQnDN6rwAcrfMqqlJxYwCpFiee8VOCU45adqaH+1NDjoSQuUeA9HxiNk980vMSzSz/t0ceewGGvnoPe3r7SL9rFmT/6wbfwjrNOHzDG5k0h3jl/BUpcN37AeGk4QVTOWnj7lJ+nIRfmYEIgetpCortHF0PxGhMR44sh60TwZd9yfoPe1U+ZaIcFrBcqjsnZbnAMIBcA+moTvlWKoRDcKqL/7fc13QesYsF9lwMxLes0bzpYA5wPaLTIYxx3kE1PgU0KfClr+7/q7V1v5HeA47bfqwbnuw17huetedh0x83Hm+5mmtceHAZ6LqBnADC37bP5ZF8aUbHWsqzPFQU3pOVLvOuOeVmA4KEkup/GNgT4p+/lD0pjbrvMqb9wK8cA/gWAHF4zeT+fqEL0doH1Zb+gfzFe3E8apHnc3nZQNLn+04bAy0fLGhg4RrVarn2+AJ8C0GQgYCkhWMAqRYnn7CzwxtmPjg7h9tAleYFyC1hf+eq3sd++0zDz2KPQOmzYLhP/3Be+gs99/isVdSpa2H31qkeQyQz8VsUH3vk0Vq+KbpjUyyGB5wZjb755n3y99Kgx+zFyeCaTOT0U/R8D69gkTRiK4lt+MfNFYHVFv6NZwIKF5lHjbd/5FETPrpEixmDm2wbAOTvw5GaAa2Zth8sNtV379dDg24gW2K/ZQ38e2OH/Q++6ZwCUvdpk4xWwxrXYbnAcEF4BwNzTDlWcR/9em+0m37LOQ5UXhGcBqyYKWNL/Ny90PgPV99TP3zwtiuCTfqHpJ0CNvmKYzgKWlcm0HRSKdU+Fa76W8xuSBaxy1Br9mrmzl35DgA81ukM1+l9OAatQ8NDWMa3/6apoofUPnPsefO0rn4Nl7XxTueB52GviDKxbV9mrfWe/6+244orou/+ej8s+24V7747WIa6nQ7+yqHPaJ+qpRw3UF3HcjosV4aV18MFN/721z2d9r+eLAIJyxrChC1gtbeMsX24UoHbumJczyNuv2QLRtwaFnhsrKXaU33wqrhQrkztfBNEfrtJ2I0lF2gMm8ePAy50LPOINeOYuTmigApbYbsfpgP4Y0KSeIChnSMq/RmRZUHAOrFaxmgWslBewhk5td7xNdyn6Nx6p30PkB0GhO1r0t7Z290x8c3NEAAAgAElEQVRfAcuys+1XQPW9VZosLGBVCb5mm33jnCcOCNWOHgHn+mFVGMUz3jkKb3n74NbA+uCHLsL3rvjxTtk2NTVh+gH74ddX/wBTpkz6z7913n4XTjjxzRX1LHr6Kt/1BIYO2fNSEZ23bMa3v1J3DysFVqAHLbhzWsM+Kl/R5KnSxXZT7h1QfBWKtiqlEE+zgh4R63S/r6tzsA00YgFr2LBxbdu84jXYvvDowI+RDhY1veerAI/7js4yvi5GevscZSaZbPt7Q+gX6+5n/3n3zSpyYVjoLm2ByheMl+O236PQI0wNYRpfIXSyudep4kc7dpCs98+1gQB/9b3iScCGyu5UDnJSsICV0gJW87i9naB4gwIz6uDGXamzcgsUPwmK+Y+Ue4Ov1IaMnZeqAtaYnOMGf6pysZMFLGOTq0ECzZ29ZKFA5jVId1PXzWj9q+gprMEc++z3KixfseslMaKnsKZP3w8f+dC5OPPtb4GqYu4b34ZbbqlsQfc/3v57vOY10a7iuz/W9vh4z+lGluoYDEcS5y5Y1Dn1TUk0xDYqFHDH7e+geI0C0U469XpEi/n+Lhg35J1YsaLkRe4arYBlZzq+DQnfmcDioymeZ+qJyP/6hfzHUrgItFG3TKbtVSrWTxU63WjgdAZTQP4auNZcbFlT8l0jJ5u7QxUzTXUpXQWs6EtYuEih0fo+tbDGmalhiOJsEuBbvpf/bFJf4FnASlsBa++Rttv7AwBvAJA1OblqKNbTAD4eePnfpD7nlBSwMpncK0MLv4diXJXNWMCq8gDUVPNzj1vymn9vH3x3TSVdZ8ke8dohuPCS0jdy2bx5C3Jj9oHvD/wW0cSJe+G0t5yCU980F4cfcVxFcvNOPhG/+220xv+ej7NOXYlNGwfObaA4Kfv3wBJ/5oLF+/FnJWUD83w6E5qdjPd5FY12S2mIJ20EeMJX+0wU19xXyrA0SgHLcXJHw8IPFdinFJcGOeeewM6+Bb2rojWU6uzIDbWz8hWovq8BCxe9KnJBWOiO1ngacG2sOi1giZVtP0dULwew6wVB62zG7647AvxdFO8rFvMPxN1lFrDSU8Cysu0fFeAiqObiHveaiC+yKLCC/0Lv2vT+vUtDActpf41t4XpAR6VgXFnASsEg1EwK82YvjR7LObZmEq7DRCdOdvHNH0wouWc//8U1eNd7ziv5/OhE13XhODa2bSt/g6ro+i0bn4bj7HnzngvOfQZLnywMKr9aOFmBu6/vnBptN8wjZQKZTO4gFVypwKEpSy2JdLZB5f1BsfsXA32Brf8C1rSs4276pEIvSQK+Btt4RmyZ7/d231uDue8yZcdpOwaWfL/Krz6kgfOngafnAz2b95RM3RWwWieMsvu87wD61jQMQkpy2KIinyjnFdPB5M8CVgoKWNn2qTZwJVRnDWbsGuJcQRcU5wde/tpU9rfaBazMmMNsCW4BMLg1bOLDZAErPtv6inzKrCePV7GiycujigKuK/jloknIZEpbquHdZ5+Pn/28Ok/Hdq1+DKNH77lQ/6XPdOG+e+ptIff+CaKh4OgbFk/lU1hV/Hl5cdO223EGEF4JYM8LtKUo5xhSCQW42PfyX93Ta2J1XcDq3yI8vArAiTH41lPIrSJ4s1/I/6HGOyVWtu3DonJZozxxOdB4CeQ+33bmo3f1bt/jr6cCVjabm1ZUWSSN8croQMO/q3//SeDtfQ5wfyxbQ7OAVdUClm27uWhx21/W2SYV5czzPV0Tqso3wmL3hal7hb6aBazmUXvZgf1oyj43s4BlevbXa7xTZi/tVIBV+xQM8Je+Pg7TDyxto5zXHnMS7v3L36qS9cpl/8T48WP32Pa3Ls/j9lv3eBO4KrkbaVTkwUWLp7zSSCwGqVTAsTLt3xDR/6o0UL1cL8CXfS//GQC7/MJStwWspjGT7DC4A8Dzu1fUy6DG0w9fBCfXbhFrQrPjFhYocEI8PDUcVdAVqD0L3ppHdtWLeilgue6Y6QGC6GbSyBoerdhTF+Axv7n5SGx8ar3pxljAqlYBq2OInQ0vh+IDpse0XuMJ8JDfUnwtNiS70cEePatVwOp/arXvWUDclI03C1gpG5BUpjNvztIDofhXKpNrwKROectwvPN9pS3kftAhx+Chh6LCefLH8iUPYK+9xu+x4R99by1uuG5j8skl06KGtj/9hlv3eyyZ5tjKrgXGtThu8R98beilOiLydb/Q/fFdLeRblwWs7cWr6G9ZQ699U8ZvikIg+nIUep4o49rqXdL/4buwHEBr9ZJIfcubHdFXFXYxtnVRwMrmptkqDwOati9gaZ0Ya4OMvAxbu7tMJsgCVjUKWKNaHdf+qwL7mxzLBolVCDKYhK35Nanob1UKWIdknMxTf1ZJ5XIbLGClYmKmPIl5c5YuhmJ2ytNsmPT23T+Ly7+z58LQcxive/18LO78Y1VsnnnqIXR0tO+x7Z/9cB2u+3WiuzknayFYsmjxlH0BGXDB3GQTa5DWho0fbXveo1BwsdLdDLkIvuUX8h968T/XXQGrpW2s7UtUzR/eILPfdDc3Bd7wdmBJbSxa2DR2oh36DzX2rpIlT4EtGas4o69vw8oXXlHzBaxs+xRb9XEAe16Ms2SmhjlxfZDBdJNf3lnASraA1dQ0dmIx9O8HUNrd7oaZ2oPpqEQ3bmagkF8ymKtiObcKBSzHzX1Kgc/H0p/Kg7KAVblhfUc4ZebyEWqHzwIo7Z21+uZIRe8cR3DVbydi6NCBd37+yAUX49vfiXbKTf7YvGElmpub99jw1VetwzW/qOMCFuCHQfPYG+4c15P8CDR4i82jx9uB3API3g0uMVD3VYAv+V7+Uy88sa4KWCMmjbC3bV3GV4gGmgoD/LtgdVAYMhVY0VdhpHgvdztm2NA/pmS3pHj7ai76xsDRA7CtJ/q813/UcgErm52wj6+FaHe9Rl7vsPzZIVgWFIqHAGZeo2IBK7kCViaTe2Uo6OTfu/Kn/wuu3GCpzi4We/5hJFq5QRIuYDnZ9jmqGq19aZebcszXsYAVM3DNh583e8mvADm95jtSZx2Y++bhePf7B76x0nn7XTjhxGjtxmSPl7/8ZfjH36JlZvZ8/PTKtVhwTd2+QtjfeQFuW9g59fiBLPjvBgW2Lzp5J4ApBqPWc6giLJwb9OV/9Fwn66eAlRtqu4he4y3tsdV6HmUzfftx4OXPHmgXSzNNlRElkzvIFtwMYEwZVzf6JZsC19oHW7q6Iwgn236Lqhr722XDnuF5ax6OHXlIboxdlL8CypsXFWAL8Dffyx8FwKsgTP+lLGAlU8BymkbP1tBawNfkK52xL7he0RUAr0Mx/6DBqIMLlWgBK/rMpA8BMnFwSSZ6NgtYiXLXYGPz5ixdB+XCl2kbulyHgx/8cuDPZmEYYsToKdi2bVuiXfjf734V7z37rAHbvPLbPbhp0aYBz6v1E9zAGnvtnZPT8S59rWMOlH/z6PFOYN2mwAEDncp/30lgc6A4+rkPafVRwJrQbLuFxQCO5FibExAbr/V78+nbYXX7h/w/A5hgrreNFkmeCrKZg7H5mbVOtv1mVX2dKYGECliW7eZuRPSFk4cBAVkYeN1vrDQQC1jxF7AymbaDQ5Ho9x/fmKl0wr70+qcDO3PUnnZtNd/kCyImWMCys+3/C9X3x9qfyoOzgFW5Yf1GOGX2srcr9Of128Pa7tnFXxiDQ1/dMmAnXnX4bDz44P8NeJ6pE2zbwrOrHsWoUQNv+PPtr+TReUud7kK4E6hcvKhzypdMGTPO7gQ6hjhueI8CL0+B0VoRPKqKJ1XkUUH4uBXKU5mMdm3bNnT9f17Dmj7dHf7MliF9fdtyQSBjVDBVRPdXWPsJov/FtMQe4+5/RSw/ObrjXg8FLMdt/6xCL6niXNgqwDIFVgF4ViBPqeoqWFa3FaLbsuwNtu1tamnBlp6eEd6L15fK5XJDt23D0GIxHBla0qGhNV4QTlHINBFM1ugJQ8W47Q96JngIng4KwQxgXYruPvT/7N+fos0afIE8rsASAZ4MBUssYIWl/irHsdaNGOFuXL16de9zT7J1dHQM2bpVWjxP2kKr2K6BTBbBVIVMEUT/G/0e0IEfuzYxDURuCwruPCfrXVdrBSzLbf+EQC8zwVBGDIVglYRYqoIVAl2maq0QDZ+2LO3KZKz1w4dnNq1evfqFdxQzo0aNau7tbRrh+8VRoYWxGoaTLMueqqqTnx/76r0KKZALfa/78jI8/nMJC1j4u+/lD63EcE/Xum7HgQGC+wHJxNXGIOKGgD4tai1V0RXR7z8FllpqPWVZmm9pKa5dv3599DOwfQfk/3wG6hsZWOjQQPcWWPsodF8Rjf7O7QNFtKBusn/nXtRhAR71PetQoGvrICzMnJpQASvTMubQ0A/vroFNL1jAMjOz6i/KzJnqDLeXrgOEuzWldHiHj7Dxk2smwhpgKayrrvoVzj7nJWs0x9ar6dP3x4P33wlroMQAXHZpF+79U/J/C2Lr/O4Dh9pXHHH9n/dvhGpdFXj7mxTHbbtXIYdXKYFAgCUqcqcVWj8qFtf8zUgeo0a12pvt+bDwNgAzYl+QXnVxUOx5ne22bwHUzJ1cQXdQyHcY8SgxiNPUdoyGEr1GmtQRfXmNnrJ8QlQ7LViLPK87unMQ7wYOzeP2dkL/NFU9JfoqAGBEEh1WxXlhMf/dJNoqoQ1x3Nx9CryqhHPjOsUXYLkC90Osq4PC0TcB1wYmG4uKACGC0xU4Adt3Fovt85lAooLFaxV6hKk+xP4EVrZtX1sles1nz4tvmupQ/18dRFvMP2xBFxat7EL0rnrGZPgdsRynacxRqv5potbR0Rf7hBemLzgi0wuF7mgdwbIOFrD6X8c8rCy8gS5qHreXHRQfqeqGFYKnATxsQRYUM7LwudeQB0q91H/PZnPTAsV8FZwI7f87l0wx/0UJiuBPfiF/dKl5GzsvoQKW4+aim0AHG8s7vkAsYMVnW9uR3zDr6fGOVYzuFg+8Unhtd7Wms//kZztw+FEDr1F6wIwj8OSTS1/SV8vKwLaysCwXljiwrCzczHBkMs9/B9LQh+9vRqG4HqH6CEOv/79B2AfVcKeYjuMg2n1w9OhRJbl+5uPP4l8PRDeh6/8IgZNv6Jz6+/rvaVV6KHam/TsQ/UAVWt8ICzcHjvUh0x/adtEXsd3cqYB8GdBofYJYdtdS4NMCfAaAmbu5iRew+l8djHYOip5OivvYKCJ/tTJygbelK9r1rpqHbWXbzxHViwGMjfmOdW8wxB+L9eurvYih2JncNyE4vzrwshbQRYGjn8a2ntVJ5pBpyr1DQ1yokKk1cMcccRew7GzuDihmJjAGvdHTGGKH5xZ7196XQHs7N5HLDbU3yVehePOOjQoSeDJFegOvZVS5GziwgBVXASs31HERFe+TXjJBAVkH6G2unbmwt3f1Uwn+HIiTzZ0Alcv+/ZbQ1KQ3aoie6g69nmh3vnhvTr0QNIEClu22nQ7IrxIcx+gGTy8EfdBonT0t/vtpz+gL4VaIbIPqMO2/SaNO/5OFAhfa/3ps9N/uwMs39LqmCfzST3AqGGxq3uwlVwByjsGQDBWTwC8WThpwR8LfXLMAbztz+3AOad4Le4+Zi3G52WjOVvb9rmfDfVjVdTOe7bkdQVjAnFlH4w83/7bknn7ovauwcnnF64OW3F6VT/zTos6pyd+5qXKnk2jeaRpzrIbB7Um09YI2fBH5f36h+6uJfpD5TwKTmpzs1r+pYkbC/R58cwkXsJym3H9riIsGn+hgrhAPlvX+oG/NVdUZ/z3n6jS3H6FB/y5CrYPp1WDONfFq0WDa2+W5LWMOtf3grzEX63bV9BaR8I1+YW20xlqVj1Gtdtb5KbY/hZfaI84Clp3NvR6KaO2reA+RK4NCd2o+G9vNuTcjwNXGbjbsQU8gn/e97ujGxuCP7U8JRV/6Kz8EU6GIFpc3cgjwOATR78oYD33aL/R8zXQDtpuLCg5Jb7S1zFL7rcXimuSLt7sAdNzcJxWI5lZSO+ZpINgPhfyTpsdzt/GSKGBlc89C4978RKJXR38nlv7Q78vfVaafNDePm9Dbuzp66q9hDxawdjH08+csHe4p1ib4y6BhJ6CJjkdPYEVPYu3uWLO6iGt/uR5/uPEpWFYLbMvMW0EvbC96EssPtmDylFacflY7jjx66ICvNkbXv+stK7F+ndG3LEyQxhbDsvXABbdOq/ZTGrH1ryqBs+1TbNXH43oaaRd9CgW42PeC76VgDSBB05iJThguVOgrquJfSqMJFrBaWtrGFXyJXnXJlpJaGeeEYuEzfp/1jaqshTGohMe1WE3+RRLqpwd1Weknrwq8/F6ln274zJa2cbYv0aPF5v+o7T7VZyy1Ti0Wu+4H4BvuUSXhBENyHXYxevVP316Fgt6AucdZwHLc3GOxrn8muC7IWOcm8JTtgI4vPWFcSyZbfE+o+FYZFw/mkuiL+74o5KOnW6t22Jn2syD6U3MJyK8Cr/sMc/GSieS47Z9Q6JcT+1kX3OYAHygU8itS9rsPQP9uwycCiOZFEq8Qbw2y7sRos4tERjvmAlamqf2sMNToZpzpukj0lNpNllqfLzY5S7D5meiJ7TT93Uxk+OJoxPRAxZFj4jHfNGf5qwMN7028YTZYtsCFl3TgiNc+/yrhmmd9/OZn6/HI//Wiu8uHJvega38fhgyxMHmaizeeNgKHHLbrheb9ouItJy1HuPNbiGUb1MKF/x6Hz15/+9RLayHX2shxXIvtFv+J7Qudx38I/pAR+9y+vjXRB7g0Ha7ttr0JkB9UdR2M3YkkWMCy3dyvAZwWx+BI/1o31mmet+bhOOLHFdPJth+vqtHTKXG8cnp64OV/E1fue4hrOW7uZgWOT6Zt8SzRjxYL1lVpL1y6bseMEHq1Qg9Mxqa0VuIqYDlO7ii18EcAcSx5UYRYbw4KXdHPT6rvtmWzbfv6ik5AYtuFUwS3+YV8Qj9zu55XLGABmUzulaEg2gl24J2cSvvx3O1ZArlPFO8rFvvXdEz3J/bWCaOcgvcuVY2ejI/5kKsDrztamzT+I9YCVv+SCz0m55JAHoletQxc+4/YsiYfP1DjtcAC1i7G/JTZS3+iwDsbbzrUbo+bmgRf/Po4rF5VxC2/34yH/9WbeNFqd3rj98pgzonD8Pq5w5Ftev5HbvlSDx85J9qcq6GOFYs6p0wBJOGSYn0aO277lxV6YQK9C1XkA2Gh+8f/2TkngUYH3UTT2ImO+leqJvWlvsQMkypgNY2daId+9DReDE9fyYKgufAebNy4vsRep+o0x2k/Qi2NHtk3W8QS3BwU8q9PurO22/42QH+RRLsi0mkD5xQK3S9dSDKJBMprw7Hc3McEeikgbnkhzF4VUwErWsD/Ed2+qL3ZQ3WdY+HIQqEn+p1SK4dtu+1X7XgKL5acxbKP9fvWJLlBxk79YAEL2DHn4133StANCx8Meqtyg6Kiueu6o/cPxPoeFMdWFGiAi0XkBL/QfWucbfTHjrGAZXbtK7lFBF/1C92daVxaIfZxSrABFrBehL3j9cGoWmpm8d4EB7PRm3IyguipprQeQ4dZOPX0kTj51FY4jmDxHzbjO19tvMK8Qmdd3zntjrSOU63k5Ti5o9VCtO5VvOseCJ6x1TrR87qiu4+1cGQcN/d5BT4Wu02pGgkVsGw3dy0QLWxs+pBFgeecAayO1m+o2cNp6pilYRh9sDR5bAi8/h0mE1zMsL3DdvEwoHHvRKUCfNH3cp8HHkmwf+aGx2kaM1PD4GcAqveq547uxFLAihY039i/kL7pIt3qoc3ejI01WrC2s21XQGNax1ZwR1DIzzI3SwcXqdELWE429w1VxL21+G8C1/pgOl+ZLX2+WG7uQgEuifG1wqWBp68EeuLdYTy2AlbHENsNo92Th5au+tIzBbhfBZ8OCvloLbn0fhGtpJMpu5YFrBcNyNzZy44TaPzV5JRNBKaTnMCQoRbO/1gOf//rNiy+Od7f+cn1alAtfX9R59T3D+oKnvxiAddyc/cIcEjMNH8JvL2PBu4vxtyO8fBWNne+KC6L8YNb6TknUsA6JGO7T3UDeH4L1dIz3O2ZAjzme9mDgVV1sV2qnc19G4rzDNC8IIR1RuB1JbZ7UTx9eInIFkDeGXjdvzNrlXy05uaRexeDzA0KfXnyrT/fYhwFLMtt/7RAP2e4XxuaXWu/LVu6ot8nNXvYbi5a0+YdcXTAsq0jir1df4kj9kAxG7qA1Txqgh3YT8T4d30rLOsjQV9XtBxBXRw7XjGOlhaIZdc6BS4OvfyXYsWKqYDlZNuPU63oO/8WBb4cevloLbZUv2Id6/hUITgLWC9CP2XO0q+r4sNVGAs2SYFGEeBrhBWOtOXmPilAvB8YRDuDQs+cClOt6uW2O3oeYEWFhSQWNd19XxMoYDnZ9o+r6uWGwTcHXr4t2aeLDPfgpeEc223vAnSUsZZEbgsK3cmsi5PN7WMrHo336UJZZwPHel73v4wZVT3QqFbHtf+mwL7VSiWGApZju21bDb8iGULx7qCYN7hIeLXEYdnZ3F1QvMZ4BoIfBYX82cbjlhCwgQtY0euhywDduwSmwZ8S/Z0Gjkp0d73BZ1nmFa2jHNe9SyEvKzPAni7bGHjuVCDGBd3jKWCNttzc3wV4ZRkm0dLKD4ZDg5lYt25TGdfzkgoFWMDaCVBl3uzlqwEdU6ErL6cABfYgYFt61HW3TfszkcoR6F+4PVo8bWQ5V5dyjQhu9Qv5E0o5N+3n2Nm2N0BlgfG1jwbT8fgLWNEXtS4oomKTqUNhW2cEvV3Rndu6OjLZ3PlmdyyTFYHXPTkJJNvN3QT07zYV17Eh6+jLtm3rWR1XA9WLOy1rZzetgFbnM57xAtb2XSifMeqpsjgodh9nNGY1g7W0jbV9azmghtcFlL7AaxkJrOhLunsNW8Bqyr3WDhGtY2j+EFkTFNwp9fKk8W6AMo7bfrdCDzMPiJ8GXj6+taNjKGBZqseFIn8rwyKEyA+CQjffJCkDz9QlLGC9QHLunBWvFA3+YQqXcShAgd0K/HJR59Roq3MegxSIb52j7YmIaqdf7Im+INfca4O7ozS7SOcgB6wfFd1BoX+dpJiOSU22uzV6H9nYAuUCPOR7+VTt4mYQT+xsrttgwa8QePkmg/ntMlQ22z7FV30ypt3mojZ9G9bBNbTeXRnkh2Ts7FNPQxHjz+Ou0zJdwHKa24/UQI3eCJJQjvT97rrahdt2O+YB4cIyJsseL1HBh8JC/lum4w4UrzELWNGNO399DGu9Yftr8vno9eK6+cyz+zk0LWu7m/4I6OEDzbNB/ntvMNLKoatr6yCvK+108wWsAILopt+40hLY6axo5+FruNZVGXIGL2EB6wWYc2cvuUAgCWw9anAEGYoCtSnwxKLOqfvVZupVzHr48JF2r/tsPLvM9a88+VjoBYcD9fdItJVt+4io/E9VRi/mApbjtn1aIUbXwRELx/h9+XjudldlEHZu1M7mbje5Q5NY1my/ryvaVCG2w87k7oBgZlwNiMhxfqF7cVzxUxO3efR4O7AeMr1e3ED9M17ActsuV8jHB2q31H8XyF99r/vVpZ5fQ+dlLLf9foGaLcgL7goK+WOSdmjEApaVbTtHVK4wbS3A330vc0ytb1AyOJfcUNvtfw19wuCuG/Ds3wRe/vQBzyrnBPMFrHKyCMUKj/P71sb6d76cxBrxGhawdi5gLRTIvEacCOwzBRIW8C1bxy+4dVpNLxKbsFn01MgdUMT1gXlrxnJe1tf37MqE+5VUcxnbbf9xnNur77Yj8RawHNvNrQMwzBSkAP/0vfxBpuKlMY7d1PFehOGVpnITxbf8Yj6+nbFGjWq1t9hdAGJ50ktFzgkL3cY8TLnGFcd2c9FundFd9MQ+B8dQwHrI5Jo2AuvTvtf1hbjMqxk3k2l/RSj6oOEctgXjhozGimRfI2y4Ataw8aPtgrfc5N+4HfPg70GzdzxqdKfNyubyqFbbdaL1xEzuZLsx8D4wCrg0rCy3XVxd/QJWaKl1ZLHY9VfjfWPAsgQS+8NdVnaJXqQyd9ayLhHkEm2WjVGgcQUuWdQ51ehTI3VN2f8hrhit0Wd6u/R+NrFwtN+X/1NdG2L4SDvrPgJFsuscxlnAGtLeYRc12gba2CGQz/he9+eNBUxloLaxttu/fpCRz0ECedj3umfE1VXbzUW7Ab4pnvjyy8DrjtYv8eOJn86odjb3AygSW4jbbAFrumu7+WhnUMuUrljWHL+vq9NUvJTFcexs7kkoJpnNS84MvO5fmI2552iNVsCysu3vE9XvmzWWlRnLmtnXt2aF2bg1FC3btp+t/WtAmbv5JXq5X+i50LhCdQtYgaXWUcVidXYdNW5ZJwGNfHCrB4t5c5YeCEUqd9xRDVD018MrrkPR3wxVH7bVhExmBNxMGxx7SD0MAfvQYAICfXRh57TpDdbtcrsrtpuLnhaInhowfojgMr+Q/2QjvNPvuqOmB7D/z+QXvwEHJMYCVibTcXgoocnt3IPAzk5E7yqzi0MPiJT8Cbab2wBguJGWBfmgkI8Ko+bvPgOZHU/ZDTWS685BNgZecRKwIbJosCN6CsGOXiXcK4mOGy1gxVC4zljOpDp+AheZzOjDQrGi35Umv/vcFHj5k5KYP8+10VgFrAnNtus9CuhEg8YFsTHH783fbTBmTYbKZHPnhYpvGvw8tHHHzsVmb4ZUr4BVhOibg0LP9TU5wHWctMlf4jXNNG/O0o9AUZ31UfYgV/C6sGHzgwiC3W900tK0N4YNPaC/qMWDAjUksGFR59TYdtKrIYeBU43hy8oLGl0eePl9AAQDJ1IfZ9jZ9u9D9X2J9SbGApaTbbtc1dw6OAD+Enj5IxKzqWJDtptbCmCKoRQ2BF4+eoLb7Ad3AHEtQh39zFsZvKq4NW/61SpDpPGHsd32U5/MqHsAACAASURBVAH9bfwtASYLWDsW9I/mr7Ej8IY0V2NXPWMdGDhQ9Lr1WgCtA59a8hlLdvz9LPmCSk9spAKW7eZOA2B0J1wVOTcsdBtfT6vSca3W9bbbvgjQuabaDxwcjG35B0zF649TnQJWKMBXfC9/kdG+MJgRARawdjDOm7302riebihvpBQbN/8LW3tLe7pVxEFu5NFwHGNPgpaXNq+iwCAEgmZ3wu9/v1fdP+kxCJJdnmpl2z4qKl+rNM5Lrxcv64STtm3riRaGb6jDzuZWQzE2kU7HWMCy3Vy0K900U/0Q4LJG+cDmuLkHFXiFIbutgZePCvKmd7KybbctD4jxYr8I7vKrsAi1IW9jYWy3/V5AY1+83GQBy3XHvCxAED09ZuwIvHz0OqIaC5jCQI6bu16Bkw2mtiXw8ol+8G6kApaTbe9U1VmmxkuAv/he/jUxPSlrKs1E47S2Thi1ta8QrX1q6AlfXRl4PZON/i6pRgFLtDMo9MxJdDDYWMkCLGA9X8CKqsWpWbR2/ca/obewuuSBjE4UsdDRdiIsMbaT+qDa58kUGLSA4uuLbp/60UFf11AXRNtHF7cYfu3hOcGfBV7+HQ3FuaOzttv+RkCvS6TvsRWw2obZrmwy2wc5NfC6k3Exm/igozlu7j4FDh30hbu8QAqB1zocWFIwE29HlO075q0yGnN7sKjgFn3xruuCRSlumcyYw0IJYl+c12QBK5PJHRQKjD7lsNe4Ic0rEl6QvJTxMXlOHG6OZPYvFFY/bjLPPcVqlAJWNtu2r69i1DXIYCy25o2uGZnUuMfZTibb9uFQ5eum2ggcHY9tPYP7ErunxpMuYPUvCTB8L+N/z00BM47R98BrlnP+/Pm2t+6/NwHSkoZOFLw81m64t6zPldGTWGPaXgcROw1dYQ4U2KOAQNa94qjJuUsvlTjWjakLfaepbaaGckcMnXk28IZPbuQ/0I6b+7sCh8Rgu3PImApYcXzAz1j25EZZ2NbwE1h+4A0ZZvoVLCubOz/a4dD0HI1910TTCccbz7Lc3N8EODjOZswWsMzvqtcoP/u2295jcvc1S6yPFgtdxr78DzQHG6WAZWfbroDKOQN5lPrvKvhQWMgb/11aavspPy9jublHBZhqJE+13hsUu35oJFYUJOkCFnBa4OWjdWd5pFSAT2ABmH3knYcObd7rvjSMkSJEV88tCEOv7HRGtL4S0bpYPCiQdgEBipmgd9S1d86InjDisQsB223/HaDGdx8TkQv8Qnfq1v1LchI42fbjVfWW2NuMqYDlOO2vUUtNLkQbLcA6qlFerzD8+qUGXnYIsCraGc7UYdnZ3EooJpgK2B+n/+5yZhKwepvRuDUcLJNpOyQU+XucXTBZwHLdMdMDBA+bzFescI7ft7ZedyH8D5Xl5h4Qo29cyMLA636jybHYU6yGKWCZXaNw/Y41Chtmrc/Bzkfbzc0HYKZoI1gTFPLR3y0z3okWsPQXgddzVllPkQwWneeXLcACFoDXz/zHpzL28FRsGR4EW9G1dnHZAxpdGC3m3tF2fExvHFWUGi+mwIsFtM+zx9/yp0kNtwZTSVNh++tDTxncIea5ZpcFXu4A4JHyK+UldSD9J9nZ3J+gOCrWTGMqYJl+DVIgf/G97oZYwL3/b6WbWw9ghKmxD7xsi8kCVjabm+YrojXOjB4i8nW/0M1Xt3dSnZa13Y3RfGg2iv2CYCYLWHHMjX/fULrY9/Jfiqv/aYlrZ3PfheID5vKRlYHXPclcvD1HaogCVnP7a+zA5M0Z622B13V1UmNUm+2Ma7GzxcegZnZltREe4HlrHzNikVwBqxhY1n7o61puJG8GiU2ABSwAJx37r0WONcTYDgyVjNaWrU9g09ZHKwnRf23H6ONg26l4I7LivjBAfQuIyGkLF08xc9enzqjsptw7EeInprulgvPCQv67puPWYjzb7TgDCH8Za+4xFbCcbPvHVPUrBnO/KvDy7zIYL72hYlhbynQBK6Yd8noDO9gXveviWFcrveNdQmaZptx7whDmXnt5UZsmC1hoaRtr+2JujZkoV8Gfg0I+3mJ+CeMQ9ymZ5jGHhYF/nrF2VDYFxfz5ST2x0QgFLNvNRTuDnmpojFYEXj5aVJzHAAK223Y6IL8yAqXW2UGx60dGYiVUwFLgotDLX2YkZwaJVYAFLABzZz3xoIhtaieiigZs3cZ70VforihGdHFu5DHIZIzdWK44HwagwO4EBLpoYee0Uyj0UgHbzf0+qrEbtRHpCQoyCejaajRu7QazbDcXbfe6V2xdiKmAZfpJAoF81ve6L43NIUWBnWz7Bar6VZMpxVDA+gWgbzOZY7QlfeDl32o4Zp2Em+7abn4jgKY4OmS0gIWOIbYbmn71Xi3FwcVi/sE4+s+YZgQao4DVvhJQI2uhCKxP+17XF8zo13mUYePa7EIx+hJacX1ABH/yC/mjjYglUsASL8joRC7yb2TEYg9S8QSNPcMEGpg76/HlIk5ij//uqUs96/8Er7iu4l63jXwt3Ey0lAkPCqRbQAReZuT9Ldde+xYz78qnu7uDyC431HYRvdJidFtRAS7yeYdpp3Fw3PZPKDS+u25xFbDcXLRboLm1VxTvDop540/8DWLSJ3aq4+YeUKPr4ACGC1iO7eY2ABhiFEVwUlDI32Q0Zv0EE9vNPQFgWhxdMlvAil6BNbsY+Y4+3xx4+dfH0X/GNCNQ9wWsoWNythdEOwVaBsQ2Bt7eOeD+ooFYDRHCdnO/BnCaic4GrtWBLV2VP5WRQAGLT1+ZGPHkYrCAtf0JrHUi9sjk2Hff0vpNf0dv3zMVp9I+6lg4TmvFcRiAAkkIWLZ2LLh1WuV/5JJINqE2jD7K/XzOGohMQ6F7WULdqI1msm372irRWg3x/E2Mq4CVbfueqJh7etjSi/2+njtrY9AqybK/OBzdKcpUEuXF1xotYGVyB9mCB0zmB8i6wDs3B1zKXV93A2s3dbwXYXilWfft0cwXsHLXAzjZfK7WKYHXtch8XEY0IVDvBSwnm/uyKi40YQXIgsDrNr4JjpncUhqlaexEO/SjNaAq/zwk1ryg0BX9nqrsSKCAFWQzOWxe3VNZorw6KYHKJ2dSmcbYztxZjxVFMkafcig33b7CM1i3sfKNcMa0nQjLcstNg9dRIFGBMAxn3HDHPkZ3VEq0AzE0Zru56EmYdxoNLbIoKHTzdc1doNrZ3B+hMPO4+4vjx1TAMjo3GieYOG77XxR6mOkumyxg2Zn2MyH6M5M5iuAyv5C/yGTMOoxl224uejXP+GuEpgtYVrb9HFG9IoYx2By06nj09GyOITZDVihQ5wWs6CnIaH2+cRUy7bhc3hh43QvNxGqUKONabNdfD2jFXyJF9HK/0FN5MTL+AtZvAy8f7cLIo0YEGr6A9YpX/M/4iW0nrxIjT6pWPuqheliT/0NFa0E2Zcdg1PDDK0+GESiQnMBxizqnVrb9ZnK5JtKS4+YeUeAAk42JhWP8vvxdJmPWSyzbzUWPzEePzps/WMAyb1pmRDvbMRcaLjD0espOWZgsYDnZ3DdV8cEyu7nLy8TSYxvjCbvK1Bw394QC+1QW5aVXmy5gue7YAwL4j5jOsz+eoCsYEuyLdes2xRKfQcsWqPMCVmbH7rAmXp3eFHj5NgB8fXCQs81xc/9Q4JWDvOwlpyvwj9DLH1JpHMRbwAqCbGYMn76qeJQSDdDwBawjX/H943Ntc25JVH2AxtZuvBeFChZybx81C44zLE1dYi4U2KOApfKpBbdP+SKZnhPoaLfd8FnTX7IDzx8BrI8WKebxYoGmjsl2GMbzaiULWOmYb5mxB9vi39f/NlcMh8kClu3m/gzgSINp+kGrjuJTNQOL2m77dYCaW1tuR5OmC1jAhFG2W1g7cI/KPmOTWDrX7+v5Y9kReKFxgXouYLW0tI0r+BI9gWXi++kNgZdPxQ7zxidBzAHtpva3IdRfGGjGDzy/reLPnXEWsAQ9QSHfAYCv1hsY8KRCmPgFkVSusbRzzKG/PndE66HfiyV4mUEVAbp6bkEYDv6mwZDmiRg+LFoSpeGHtkx9XlYlgRsWdU7lB43nvuhkcu+GwMz2wztiWrCuLXpdb6nS+NZCs9FuhEsBmN/QgwWsqo+/k20/QVWjRe9b4krGYAErWsA9WqPL5J2oGwMv/4a4+l5Pcc0XCLbrmC9gQZxs7nFV80+LvXA8ReVrftH/HMCnsdIwz83PT/lV4HWfkYa+OW7uIgX+20QuArnQ97ovNxGr4WJMmNBsdxeipy8rXl5HRF7nF7ore1AkxgKWilweFrorf82x4SZJdTvc8FWOYw9fdHnr0Bkfr+4wvLR1r9iDdRv+ilD9klPLZtowemR0w7bhh7VksyDYiqK/CUV/I/xgC4KgD6pFKEJYkoFtN8OxW5HJDEfGGQHbMr4sRsm51vWJgmcXLZ5qaM2D2pey3dxvABgtNlkqBxWL3f+sfZ34emC57Z+QOHYjZAErvkEbMPKEZsctfESBz5t+ovHFTZsqYGWz7VN91SUDdm1QJ1hvC7yuqwd1SYOePGzYsLZthaYu0/MlhgIWdrwSm8SC66sAuSjw3OuAVb0NOjVS0e06L2A9rsC+JqDF0ll+X88dJmI1YgzbbV8LaMXb2Qvkc77XfUlFhvEVsIpBtO7OplXRDSMeNSTQ8JWOY1+96BetQ2a8LY1jFhVW1m+8D36wdY/piVhoyo7DyNbKXzNOo4PpnFR9RAXCTVseQdEfzBqlgqZsB4YN2R8ZZ7jptBo+nhv0Drv2zhnR4rkNfzhu7gEFDjIIUQw8HQ1wUd49mmZz+9iKJwy6bw/FApZx0hICWk5z+6sR6I8U2L+E8ys+xVQBK46ihA3rQM/reqjiTjZIADubewZqaiHp7WhxFLCinTRtN7chzicLdxpyQRdUPxp4VifQHRX5eCQsUL8FrGjx8OKev/AMwjpw7XZsWZMfxCU89QUCtpuLdiI08ES6LAy87speyY6vgLU88PJTOPC1J9DwBaxZr75+8bAhL5ud5qHbum0pNm97cvuTQfrcK7oCERsZZ1h/4cq2Tax3mGYFE7kpCl4e6zb+9QWO5cWNnsYaPeLVsKxseQF41UsEfPhTb+zcL541iGrM287kuiHIGUtbpDsodI+paHcIY8mkOdDwkbbrmr8TxwJWgoM+LYth2ybbnv8HqE5MsGGYKmA52faPq6rRV18Cz20DnolzvaQkqWNvy87m7obiNSYbiqmABSfTdpuKzDGZa4mxbrBhX+R5uhLoMlZ4KLHthj2tbgtYQ3Jj7CKitT8rP7Z/5onWNeJRpoDj5v6uQMVPRgjwqO/lp5eZxvbL4ipgCW4OCvnXV5QbL66KQMMXsI49fOFfWoceGNuWfdEralu2LUWhmEf05I9tNaMlOwEtLVFR2xrkoCv6/6M+RBxI/6uCDT+EJRoqetb/GV7R5Od3Qduo18J1RpaYA0/bk4CoHL7w9inRAsuNfYyYNMLetnW9SQSBfMb3uqNXqHjsWUBst30boGbfFWYBK4F5N67FcYsXKxAtCZBJoMGXNGGqgGVn2/4XKu832IetgZcfajBe3Yey3Vy0I2m0M6mxI64CFoYPH2n3ut0m1qspo7MKIADkPrGsT/l9a/jKVhmIg7mkXgtY2Wzbfr7KY4Ox2O25gruCQv4YI7EaNEjGzV0VAu8w0H0/8PKV/U2OqYBlqZxVLHb/3EAfGSJhgYavfsw8/HePDh96kPHXCwpeFzZs/ieCYNdLBUSv/UVP8YwafigsrqsU67QPQw/59XfudiwqaTwax1GthyKbjR5u4VGJgNj6+oW3Tru5khj1cK3t5uYDuMZgXzTIZtq5RXBponY290Mo3lPa2SWexQJWiVCDOy2bbZ/iQz8ClbmAtgMwW3gcXDrGnsCy3Vy02Hxlr1zslLssCrzuUwbZnYY+3XFzX1Tg/5lEiK2AFb2emG1bDJU0vE0QPYmVB+RPYslVfl9XtINhYNKx0WPVawHLdnNRwTgqHBs45OeB132WgUANG8Jxc9ENoS+YALAhr/C87n+VHSueApYGQ/yRWM+ducselype2PAFrGMOu2bViGGHjDc3BooNmx7Atr6nSwppWS5Gth6MrMsnXUsCG+RJcRavnkslehqubeSRyPBJrEGOzs6nK+TM6zunmNi2t6I8qn2xnW3/HlTPNZjHxsDLjzAYr65DOc6YY9UKbjfaSRawjHC67tgDQoSnqITHYfvOa9Hf7tR8jjH3BJbZ19dUcF5YyH/XyCA0SBA7034mRH9msrtxFrDQ0jbW9vufXmk1mbOBWFsEslKBJ1SwOAP8oVDo5lIBFcD+f/a+O06q6uz/+9xzy2yvd3ZBVGCxISBKs4uCPQomITExMeZN0eRN750kP5M3JkFMMYlpJqZLIkUjFhaJglhA0diiUmJdZpa+be7ce59fzgIGZcvcmXNnZ2bv+Xz48Mc+53ue5zlnbvnep5QsgWXFrwfzh3NwzWtTiWiBm0p8RgXWcMUwYvYVvo8bldivaR/0erb+ImusUAgsesFzEnktM5C1/dHEgzxQMA9+Q7U3p075w8sNtScq6362u+OJ3pTBIEMjHfW1M2AajUGmRbKDeEB2Eky03w3P7wndV4ZeDbt+ZiG9S4Vus+oFCPz5Ja3jlNZ9Ua1jPvB0017PwAkK19riOckxCvFKHKq3kKxsHy2UGRoRWIFdWVbWcIjjaSfL1GLWcBzAE8Eo6C89qggs3bSfVll4XtNxQror+WjgTRjGE/Qy+1T2cJ9KF4RKYMn8QTM+/z9lJr6uUucQsBiENjD+SURPMGO1Z9IadGyVKZDRyMADpUpg6ab9MANTM3DBoCIEmu86iW8OKhgJ9OsBUd50MVxfTYdTwvVeKvmRrN0dBoFF+IeXSsoXt2gUoQeGPYF1ygm/frmx7gwlBFaPsxXbdz6Q1THQRQXiDWdlURcrq+VKfpIkr7bvuB8ppTWvBnZbdeUxqCxX0v235PenTwMZC5eubPnU8DT+v1ar6/yyF5OIWt1UYigK/BbrVsquXrIGmbrOGBGBNcBZmGLA3NIiII4m8LEMmgriKWAcWmwHSBWBJSx7KxgyJVLFYM/UmiOCIJgry8pGHup46ReCzRpYOmwCS5LuumWvYsapKvXOAxbT3git1SDtAc/zHkH68H8C69N5WLvolihRAksTZrxTWf1J4huI8Kei29wCUthncQKxf60SlRh3e+nkOVljhUFgAb/1nOQVWesUTRxSDwx7AmvGcT9+urnxfAU1sBjJ7auQduWH++xGVcWRqKo4JrvJ0azXeaCzezN27ck+3Tobd+qiHPGGs7OZGs3pZVrwx6UrWi4b7s5Q/PIKgvZl19n67eHu1wD2C2HGEwDXB5gzsGhEYO3zT02dacZGeeQdRkwnMeF0ME4cqqLryvZ3H5AyAsu0ZfFMVfW8PM9xbGCX0sYQqn1XgHiSyE6pDKvOA4EFxJpHC897AFTY0YoZ7HcK4Dug4TbNMzakY9pm7Im6aEq/lSaBVVsrTCO6RmXwwyhGEQLWu04y++i6EAgsAr7sOsno2bgYD5TKG3OR2o9pExc+NDJ+0bRcy2jI7nbtO1bn5Ia9UVhRoEROTgTgeh1IbGvNFSar+Xb96VEtrKw81/sLvHtJa0v2X2iyXLfQpgnTlix4lSq9SNApbnfiflV4wwCHhGW/BIaSyNxefw1LAqupAmXpeh36YXBxCWu4BMxjS/n8qCGwelNYZSFsVSPtOdwAtO9RBThccIRp71JZUyovBJZMJSyLn8Qeyzp+qkjQgthyAj3hA7/Tof3dMZFAR9v24VggviQJrNiIw4XvbimIgxYpEYYHNntOMvv7fwgEluwy6zlJlQ2TwvBbhNmPB4Z9BNb0iQuWN9sXnkeUW4fPPZ3PYk/n0zkdNNnRboR9UU4Y0WRg2861SDlDU04hZo1Afc30aBuy8ACBH1nSOm5KFlNLaoowbUdhRIrvOTNNYFHUBSrAKdGNeCsTy5xuNaP0CSz5LKFXVNgN3S5dBuarCBinxnnFg6KCwKqoiDf1pLlNndXkeI7sMPJKlzrM4YEkLPtFMEapsjZfBJbU1zAapvmkyZoWmir9CxCnC0S/Faz92HHqnweecgH4BainUpVKkcAyzfgkD/yYUkdFYIXkgR2ek8w+qj0EAktj/8R0etuDheSkSJfMPRARWBMW/DJun/c+oeX2oWrnnkfR1Z17uYSmhlkQojLzHYwkX+eBnlQbtu8auuuREOVoitIIszyV/OzS1nFHZTm5NKbVHFYnurvlV2VFg7Z5TiLqDhHQm8KyfwjGRwNO61+8NAksMspHTva99P8CuADc2/2sfDhHdqsgsEyz4RgP2lPKzh4o5TnVNcDzMh0uGgE8oJv2Mwwouyflk8CSZu4jBWTx/lImsaSpDKAHhN0ALdPhL0il2v8VYKuLSrQUCSy9LH4ye7ymqDYiUjaIB3zPSWbfGCcEAssU/qju7m0vBzEiki0cD0QE1sQFn7frZ31H13PL2Nmxex26e3L/Hdj1Z8DQo4732f5EktvvyakOWbbr7p+naSaaG8/PFWZYzieiV5esGKsubasIvWiUN0zzXe0hhapv9JzksIuEydV/hhX/sM98fa44r80vFQLLHHm0zumrQDiTgcMARDerAw6JCgLLMOzjfcIjys4ekPKcpPwqJqNTohHAA7oZ38Dg4wJMGVA03wRWrzJW45GCSUZi1amyoyhwCEkwNjLhzzXlVb/ZsWOTTActiVGSBJYVn83Md5fEBkVG9OkBQxNjenrasksTDYHA8pyaWPRhp3gP67AnsKZOvHaOXXfqEtNoyGkXd3X8E51dm3LCkJObGy+ApuWWzpizEkUK0N3zEnbsXj+k2hPpGGFfOKQ6FO3ihN1LV7TUFK3+ChQXZfbb4OEvCqB6IQh4xHWSwz4tM6g/dSt+DjPfGXRev/JFS2CNN4WZvATAmwGaDvDhpRJhRcA6BsUBlkSckqGGwGo60Sd/rRKF9oL07COwojTigE7VzfiDDFZWE2BICCxpc0W8SXfxO2Yepl1myCHgUR+4M6b7N3R1tb8S8CgUlHgpEljCjL8Z4L8VlKMjZZR6gDRtttuzNbsCxcoJLJlan7CUGhiB5dUDEYE18dqxtZXHbqwozy1Ioavn39i5e0NOmxdF7+Tkvn1dIIf2I1tUxyynPexZ2tpSlhNCkU82rMZP+EwLlZlBuNdLJc9QhjdMgEyz4WgPWm5FDQ/0VTERWI2NVWK3uADgOQC/SWVDgQI5PkxE17kp+qpu+msYUBZhU8AEVsVwqA2k+nzpZnwtg2WXTCVjyAisvdoL3Yp/kpm/qrIwvRLH5BmECP/wQX/2TWNRMXY2LEUCy4jZ7/N9/DLPRyFaLo8e0IivTKfaf57VksoJLOz2nOSw/mCe1T4U0KRhT2DJvTht6h+c+poTcwp78v0ebN12N5izrx9pmY1oqD2lgI5H8ajSk3oF23c9POQKEwmMsOU7n9rBnIaT3gHP6wYRQYiK3lRTuV4pjaWtLcP6mqSb9v8x8AWFe3qH5ySjnNagDq2vrxYdQh0bXvgEFvXWIPH5nWC8R8ZsBHVZEci7INwjWHzCcdp6a0zppr0hIrCKYOeGSMUSI7B6vWhZjUe60H4E5mHf8RdANwi/1Hy+KZ1uXzdExyzwsqVIYOlW/FPMvCCwM6IJReMBAn3TdRLzs1JYPYG103OSwyutOivHF+6kYf2yuH9bpk+6LjnCflNjb8JNDmPXnn+iszvbNEKCXXcaDCP6PWWzBe077u0leMIflAI4BVAVwAcdGNUphAwf3T0vYteexw8iR3VRjtrqE5Br+mv4Pst8heFOYAmr6Rdg//2Ze2xQyb94TvLSQaUigYM8IExbfo3I7aawH7VQCayqQxrMlHOWR5BF65tL9BhIInK1TvzpNxZ2HkYElqyBFaUQBjzgJZNC2IfdeqzxDPh0AwNHKrvOBfRvgYnfrzF/NJ1ul53wCvq3UpIElhn/GoO/UWBnIlJHoQc0op+nU4krs4KMCKys3FbKk9Q8nBe5h6ZNuvbZeP2sI/Qcu//5voPE9rvh+8FrpZbFDkVd9QlF7smhUd/zu7G1XdZ+lI1oQhhEHpF40DKqP3ffuit6u6Scf/4PrfYXvauJ+EoGXusAIOuXyTpmagb31vQarDlAXc0UlFnKOn2rUT1LlGFPYJlNNwP+vCzdd/A0wi+9VPIDyvCGEZAw7bQM0lFicsERWKNrNbPz0wR8RYl9hQeSBmEXg7/lp9p/AsDpS8XCJLAaT/CJVBZzlEXc5T1KnudoBPBASRRxH8RePdZ8Jvv+bwA+RKYZBnBPqYo+LyDmOE7bM4WadluaBJb9bQa+WKqHKrKr92vgLa6TfEtWvogIrKzcVsqTIgILwLSJ166tr5l+YswakfNeu14nEttWBMKRETSNdTJ1MNqOQI7bJ9y+czUcZ1s2UzOaY1n2mavXvesfAB3EkM2cOT/Wub1mLRiTJZimWWhuPC8j3MGE9nQ+gz2dg3eCllFfzfb5oBLolB0RWPGlAF882NnI9O9E+KGbSn48U/lI7r8eEGa8G+CYEp8UDIE1Twhz1a8AXKaMnFPiIGUgnQTtO65jLABeSg32AlqIBJZljTzK5bR8eVY0KOU5jdXAU32SeIoWKUkY3bSfZuBoVcYNcQ2sgczQyspGjkr76d8z4zRV9hYxjv+fTqv/8Kp4Dtrb9xSaHSVJYFn2dcyInlUK7bAp1IdAa10ncXJWkBGBlZXbSnlSxJgAmD7h2u+Wl4/5bE3VJCV77XldkCltni+fnwcelWVjUFV5bMnVMhrMbpV/fzV5G5jDifg29fo5ax69YtlA+s6cvLC20/OfBGikEGVoalBTWqKtfTlkVF8mo0Qi+LqXtraUZ2Jvqcroln0nM9QcIEmJRwRW1kel1Ags3Ypfw8wyzkpUXQAAIABJREFUfL+kCpcS6CEG/cAT6fvQvb0tSKRRIRJYZWUNhzie9lLWB/egibLbklkLvNStDnN4IAnLfgGMQ1VZW8AE1n4TCRXxuEjTLBAvAHOpphVnuqW7Cfi26ySvyXRCPuQiAisfXo7WUO0BAp5wneTErHAjAisrt5XypIjAAjDjuAVnArGVqiJn5IGRxdxTTltvBE3a3X3QGSqLHYLK8nEwdPkuEW1Dtj+y3R1PoaPruWynDzhPF7EXRjmNRyx66m2DskjTJix4F4h+Z+hVsOvPylmfHqcN23c+mDGOSuIs40VVCxJtX7pibINq2GLCiwiswtmtUiGwdCt+NjPLNLrcWu0WyNYQ8DTAi6BhpavrT6GjLZmtaoVIYAEjy4WZ7szWpj7muZ7D9UDhRZIotDEUKGHasrBmrSrwIiCwDjRVM82Go5i0WcyQpRImqPJDkeEwCKu9Wu18bN2q8neZtRsiAitr10UTh9ADBDzjOsljslIhIrCyclspT4qYE/lUP+6HVl25u8OuPb0sjCLqnt8DGZUF+CAyoIsKyLSvTIcs5J1KbUXKSUDWe2JmaJoOQ1QjFjsEudbuylSPQpOTUVcySims6CsrNvJ/Vj986Y2Z2H3qxJ/UpdDTXh47VJOF1XMde2tfZf4RXmXqYq66Zz2f6IWlK8YenvX8EpgozCiFsFC2sfgJrNpaYeo/AuhdheLTLPRwCZDtZf/BoAc94a5D9/bML4yDLFiYBBYgzLhsFmJm4a++pnie49jArnx0OVGkckHA6MK0ZRi9pkqbIiOwXme2ZcVbXJ9PA9FsEM4Bs63KL0WCs4N8zHHd5H1DrW9EYA31DkTrZ+MBAp51neRR2cxFRGBl5bZSnhQRWPt2d9rEazdUVRx5XFVFduRwWIdEdqCTtZDcXgKsr0Eos0agqnJ8LzE2nIaT3ob2HavDMtmvMCuaVq2/sj3TBaZNvPbfddVTDiuL5V5QPbn9nj4j9/rTRWgxNDWem6mqhSr3z6WtLWryeAvVwkH0EsqLuNPPvWy7vhSpD1WprZREyHMNLMNomsHk37Svw5gql4SNI7s+bgboSQI2gLDGTemrgVf6u/nlrE/BEliWvRWMeM4G7gVgz9Sa0bE1oQhvWMCUldWPcjzxokpji5nAeoMfNMNoPIGJZjPoRADHAyxTLUv/nYLpPV468bvwugYNfuJKksAyoyLug+980Us87znJI7KyIiKwsnJbKU8q/ZtNhrs3fdLC3wpRcXm8flaGM8IWY+zc/Si6ejJ7fpIRXQ11J8PU68JWrEDwGYltrZBF88MYBNHTMOqI2uXLLxi8kNk+BaZPunZTc+MFY2SUXa4jSP0ruVZJpBCCVi1tHXtmrr4r5vnCit8A5g8qtOFmz0m+XSHesIESpi0L66mJvsgjgSWM+LtB+KXCCJ4w9lw2xGgD+AUQPQGm2z0ndg/wQl6jhAqVwNJN+xkGsvtS3cduCYOOczoTj4exkaWKqev2qaxBabRNCRFYB297bMThGnsXEOMcAo9jQEZTv9ahuZTOicb8yXS6/QdDRWKVJoEVn8/gr5fSOYlsOcgDGz0nmV0pg4jAio7TGzwQEVj7HDJj0sK3+syLGutOhewKONRjx+6H0d3zSiA1iDTEG2ZBaKVfB9t19yCxfWUg/wQRNo3aZWse+Z85mc9hOnHyzzqbGs4py3xO35I+O2hLLj/gj73dD10iaMzcZ5trmUYq917l8P0UepwEHCcJmcZqmXHEzDg0TU1jtoN15b8sbR13qUobig1LtxqvYabPKdT7ds9JXqgQb5hANVYJkw4uXpit9fkhsEgz4/MJPD9bNUOclwZhBzFeAGiRIdw/ditMBcxW7wImsO5n4KRs7XrjPCb6kJ9K/EwV3nDAEbH4u+CzjLRRNkqawOrDS4bROJWJ3gzQm5g4Du6tJ2Ypc+gQAmnEn0yn2q8bChVKkcAyrMZP+EwLh8Kf0Zp580BEYOXN1aW/UERg7dvjKVNuMDSnq7PMGmHU1Uwb0p130u1o37EmKx0IhGb7wpLvarhrz2Po7N6SlY8Gn0Robjrt8FtXTH1hcNm9ElOmfL+xDE3JhtrsOsQeuE5n92bs2vO4DMb3hGb+XFDD1Wsefccr8zFfu/O4+Dzfd37K4NeF2sXMJtTXykh+NWN355Po6Hy+T7DKiiNQXTFezUIHoBDwgyWtLZ9QDlxEgLoV/wwzf0+ZyrIVeCo5UxneMAGyrFHjXE6p6w4RPoFFhmn/0QcKiQD2QPQi+/g/P11+E7Clp9COT6ESWMKMLwZ4rkJ/LfKc5NsU4pU8lG7Gv8Hgr6k0dLgRWH34TtNjzaez730YoIsBlsVg+/wop9LvIWK93XOSN4eI3yd0SRJYMfsK30dGNWcz8TeBvk+M32ciG8nkxwNEXspxtj2T1WpRBFZWbivlSRGBdcDuTpu04A6Cfu4IWwYsDI1rZPfCvYXJ3azPXV31CSiLKev8nLUeYU30vG5s3XZ3eNHbpCUffvwTgeqPnDhp4QlVlZPWl5eNztns9h33yaL/q2NUdtGqDe/d+UbAmTPn653t1Z8F0bf3/626cjwqy7NLLX8jfibRf+Wxw1BbfXzOtr4OgPizS1eM+75a0OJCE2bT2wH/zwq1Xuc5yaFl5BUaky8oPdZ0Fvt+q7L1QiawDMv+pc/4nyG7cb3mKOom4p+7wPVI4VUg2aHMhyEAFSyBZcR/CuKrFJrc4TnJ6vBumgo1LRAoYdp/gmJCOCKwXre5OlBbCVMbqUNcxsB7AYwokO3PVI1uUxhHd3e/kvHHzkyBB5IrRQJLWI0XgWmZCv9IDAK+6jrJq1XhRThD7IGIwBriDSi85YeGpSk8P/RqNH3Cwo8y8Q8ry8eiunLikGjpeZ3Yum1FTmtrZKDZPn/o32VysqL/yR1dz2F3x1MhoUN2dVy8dsMH3xxkgRnH/fjdTQ1n3xSku2Tf+LK214pElV8+9q7HLx+wwNf0iQuuYexNN7Prz4Ch597tu7N7I3bteSIj0+uqp6IsdkhGspkIaeB3LG4dp5K8yWTZgpIxjIYZPmkPKFQq+6KZCpUoNijDil/pM6tLuQqRwNIs++PEGJJUlr37StsI+K4G7TbHiW0qxEir/s5foRJYuhn/HIOvUfm78RyzEXh5m0rMUsYSpi3D4HMPqT7ASRGBNeCJIVQ2N5qOP8JjngKCfAabDSCsmgVKjm9OndWy1KAUCSzVH40I+JbrJL+SpYujaYXmgYjAKrQdGXJ9IgLrgC2YcuwPDtM0b7PQLK2p8bwh2RzZcXBP579yXrup4WwIUXq1sHxOS4IHvu/k7KO+Acivr5x81J1rz+w7f66fVc868dafVFWM/1CuSjEz7+haN/W+By59ZDCsk066tsztwJNEYoyqqMGt2+6CjHDLZJhGHRrrTs9ENCMZBp2zrHWsDK0bxuOQBmE6GXe+HNRRhHYvlRxu7c4HdctgAroVX8DMnxpMLuO/h0Rg6bHmM9n35G8m32k4XSD6DRH/2e05di2wKvuQ4YydqF6wUAksYcbnArxYpcUC4ljHaQvvy49KZQsAS1j2i2Dk3lL4AFsiAivoxk4xTPPlIzx4xxLhZDCdzeBjg6KELk/0Cy+VUNl8ZUCVS5HAUv3xjgg/cFPJYV2SIvRzn88FIgIrn94uirUiAusN2zRt4rW3AzhfZUpWkJOwbef9SDnJIFP6lLXrT4dRgh0JO7s3Ydeef+bsn/4ASNOfeOixjwUKv5s/f7724MpzN1pmU875g57f5XTwuppVq96bUb2Y6ZMWXC20qi+rKOAui7a3td+ZcZaJpplobpSRfmqGptPkxXeOfUwNWvGiCNNOA5C1QVQM13OS8gu27KgXjQw9oFv2Xcw4O0PxwcXCILDKDhklfGcdGE2DK6BGgoB/+UQ/9039Jux5RR3Rqka9wCiFSmCZZsPRHrSnAxs08IQhqdej2IY8wY2uFWanjFZT04V0n9YRgZX79lVU2M09aZwGxmlEOIMBSWjlm8B/oyFpQxNH9vS0hVWY9XXrlSKBZZoNx3jQFBLs9AfPSbwr9xMXIRSEByICqyC2oZCUiAisN+zG1EnXvYXY/6tMBRvRm4an9Pll0L2X9Y+c9PZB5QYTaKw7DaZRP5hYkf3dR2LbPXC98MqqWGb9Z1avv2JBEMecNvX3p9RVT19NlPszVHfPi2vvWjMz47SFacdd9/aY3vjn+trcG1Z1dG3E7o7M0gelf6S9I+w3BXHVgLJCT4285c7xryoDLFIgYdp7AFSqUl9jnpZOt69ThTcMcEiY9osA1OXHqiewNGHaf1Bdo6e/vWXQU6Tx97yepFxTEqwlMQqVwJIv5MK0ZRdMZWHUBFrmOokAnXVLYouzMkKUNb4DHv0xq8kDTIoILNUelb+QxhGGR/N8ny4Gsaz3KGu95X0w8IzvJOXHz9CjUUuRwEJ540jh0svKNo6o1UslZApqNErBAxGBVQq7qNSGiMB6gzunTPlOjZY2XwWjrLK8BdWVE5Q6fDCwHbvXo7vnpcHEBv17vP5M6PqQ3McH1S1bgTxEX7WfX/fREd9YRYEeQC48Y8MNul6lIHycsWPnA+feu/5dd2Xqo6mTFr61puKYRSoKuCd3/APp9EE14/tVRdMMNDdekKmqg8hxevKpLbFvfIN8RYBFCyMsOwGGsrQ/IvqMm0oEImWL1nlqFJfkwVYADWrgessRJrxUUlmklDDjbwb4b8r06w+I0K759NV0OvFzACX32yxgAgvCjN8PcO5fJv67t77naNXA1gFrK4Z+popgAWHasrPcPNWqRgSWao8ehKcbVuP7melDDDoaYDP0FQ9YQGMcn04nN4S9ZkkSWBhZLsy0ymtTVP8z7IOYT/yIwMqnt4tirYjA6mObpk5YMJ+Ivi7/lO9aUj3Oq9i+86GcD48s4q5RXu/dOes8MAD3dh7MtD5TNsroovwHazdcFShnnsE0d9amTQByTh9keJ3LWo8MFHkzfdKCy+36Wb/VRVU2Jh8wh9HWfscbaotJMonlS2uf6WxCK0NT4zk5rrt3OgGrl7S2nKYErMhBhNm4BaDDVZlBwHLXSapiGlWpVcg4hjDtHQAqlCmplsDSdDP+TwaPV6bfwUAeiG7zUom5Ia4x5NAFTWBZ9o/A+IhKJ5GG092e5H0qMUsRSzftZxg4SrVtEYGl2qMD4FWPqhep1O/BODNfheAZeNR3klMyrsOQpTtKk8AChGW/DMbILN3yhmmc9pwzy4BFUfkENQ4dWpSIwBpa/xfg6hGB1cemnHz89w9Pu1pvLrsuKqGivlCmey+LlLcll+d0/yuzRqKuRkZSl87Y3fEkOroC1VUPZDyRcKvsY5tbW2cH6tI05+znL4FPtwRarB9hZu/5ZSuPPCII1ilTb/pEY80pC4PM6UuW4aMt+Xcw+9A0619Cr/h0Rzq5yjCquczxmlPoXgjQxQfONfRq2PXy2VDF4O8tbR3X21FxuA/djD/O4EB12Abx2WbPSY4d7n7N3P7RMWF2yjzl3HOC9y+qkMDSzPjnSHGHutf7hhzS6Hy3Z+s9Od2IMnf4kEkWNIFlxC8H8W9VOofA33Wd9s+rxCxFLGHaspOJ8u53EYE1BKelvr5adIobwb1dDUMfAtokx9kaXqFWeWNSfm2gP3lO4p2hO2eQBYRpy2fpS1TpYWja2J6erZtV4UU4Q+iBiMAaQucX5tIRgdXnvjBNnbDwDiL0hpfUVR+PsthhedvB7bseRE+qLev1JOEmibdSGQxGW/J2MAfK7Atkvilqrluz4X2fDDQJwJxZG+8FoCZyiL2vLF155LeC6DDr5Duvrywb9+Egc/qSlXXFEttaoWuV51l1R7SuWnXmQc6eMfkHR/ieJ19qe2sDmWYDGmtPzXXp3vlMeNOyFS1/VwJW5CDCtH8N4L3qzKDtnpNQlw6nTrGCRDKMphk++Q8oVU4hgaWb9tMMHK1Uv31gRHjO1bxZ6N4ua4CV/ChkAsswGk/widYr3QSidi+VkKmsJZcOqspPhmG/xyf8RhXegTgRgRWGVzPC1EwzPsEDr1SaGt7H0qTh225P8ssZaZWlUKkSWLoV/wwzfy9Ltxw0jYjOdlOJFarwIpwh9EBEYA2h8wtz6YjA6mdfpk1YcCiIZBSWJotV23VnQNdzTdPK7BAwe9i67a43pHNlNndv3S7ZlKV0tlZVZ8b+PEikuTFr9Nh7H54b6KVt3lkvHuKQsxGAldnuDCiVMglNi1a07AqCdd5pD66yzMYzgszpS3Z351PspBIXrnn0fTL8r99x0rHXjvM0eojBdeVlh6O2anKuS/fO1wRPXHzXuMwryCtZtTBBRMx+D3ylL1C+V55uwM6dmRc4K0zX5EUrEULqlqoaWLoVn83Mskae8gs8Afe7ljGnFLoLZnpQCpnAkt8IhGnLiGClX6OI6Dw3lZDtZqNxsAdIN+2nwiKIIwJrqI/cqDJhpn4C4IrwNKFtnpMYEWazi1IlsAyjYbpP2oOq9kYj/mQ61X6dKrwIZwg9EBFYQ+j8wlxa+UNwYZqZjVbztWkTa1btj64xjNreaBMVneYy0Sbt7sS2nWsDkVgxqxn1NdPDeLfJROVQZBx3B9q3y5IdHAq+BNX1ym+uffSD84MuMGfWxtsAXBh0Xp/yhHVLV7QEyvucOXO+XkVv26FpsZxfcBLb79k8alz1EYsWvW3QegHTJyycz8Rfl+SVJLFUDAY1L2sdKwtnRwONI4VJspODsuszEX/GTbVHhdwHP10krPhWMCsrot+7pKIILN201zJw4uBmBJQget5LxaYDL8jaX8Nm7CMrjlFlsOdY5cBLMv1MyRCm/WcAb1cC9hoI/d5zEu9Wi1kqaONNYSYl0V8WhkURgRWGV4Nj6mb8q/+J7Jd1bkNpMx52rblSJbCgnqS40XOS/xP8hEQzCs4D6s/GTs9J1hWcnZFCGXtA2QtSxisWkeCUKd9vJEd7ifZF2KiMOMnEDWl3F3bu3gBJZg00iDRUlI1GdaXKsjmZaBiujEwZ3Np+J/wQUweJRKclRoy579G3JYNYc9GUdeWitm4rK/o6TuDPL2kd990gOpx3xpqTLL35/iBz+pJlTmPn7kfn3LvuHcsywZox6YejfHZfaGqYTUIoqXPdZdaPrV60iAYlzzLRrxRkhGlvl9nL6myhzZ6TaAmVCVan7BAi1dYK01BP4igisIRpywhNxe1lKeU55kjgJXnmhtUQpi0bcIxRZXQIBJYkrySJpXJ0egbGoTOZfZ0CldoUEJZhxC/3FdcdO9C8iMAqnM3WTftqBkJJ9SPgi66T/E5Y1pYsgYW6GmHqyiLFCXjMdZJq0gTC2swINzMPRARWZn4aRlIRgTXIZk+feO2S/3QWmbNfrKZqIirK8lsPuat7Czq7t8D1Og+oA0UQwoKh16G64mjouuJ3miH/ETB27nkc0vYwh2XGL1u9/l1/DLYG05xZG/8I0KXB5vUr3VVp+iP+sPyI3UHwLj7zma+SZnwzyJy+ZH3f6b71nmPKg+CceNz1bU2N58laKirGn5e2trxDBVCpYOim/TgDKhnptOegHkjK4uTR6M8Dln2EYDyr3EEKCCxhNV4IJhn1qXK4pImz3Z42GW087Iaw7CQYjaoMV01gWZZ9hBvCeSSi77upxGdV2V0aOL3RV/JDVmgPUxGBVVgnRZj2XwG8RblWzCu8dPvZynH3AZYugQXa1wG4RpHv2HMq6oEtykgxRXpFMEE9EBFYQT1W8vIRgTXIFo8ff7NZIV6SqU21UpSI0FB7GkxDYXBEgGMmo5Jkp0KhyQY5pbt9PU4btu9Ulgrfp4c1zXr1sCPPGL1o0QQnwBZg3szNzY7wZYqXqi5li5e2tgTukDNn1sa7AcwOontfsql0++Y77p0RiJU9beofX66vmaGk3bEGXLS4tUX1i3mubhnS+cKM3wKwsm48MvLKI+sopF56bkgNK/DFNcv+CDF+pFxNBQSWbtoPMzBVpW5EtNpNJdQ0oVCpWH6wNGHaPQAMVcupJrDkTV5Y9qtgqPpYsNdUQruXqhkFPJ9SZXux45hm0wQPfrjd4yAmOE7bk8Xuq9LRv6ZOmKaMwux9vlc4OjwnKUmYUJollDCBBWHZvwDj/cr2QqN3ez2J3yvDi4CGxgMRgTU0fi/gVUuXAVHo9OmTFl7NzK+FGsuUvaaGc6FppsJVIqj9HnC9LiS2SW4mvEFE7uHGhMZF688OVDRdajRn1qY7AD5XmXbMb166ctziIHjz5j1hOtvLZMRWzgXkOzuf+dmKBy78UJD1zzrp9h1V5Ufl/tBH8H23rOnWVSPbg6xf6rKa1fBhYu16pXYSfuWlkuoeDJUqVxhguhl/gsGyC4bakTOBNTomzK5dAKu86fR4Tk3tcCUxLCs+1mWWTTiUjRAILGiW/VFi/FCZkvuBCD/2UsmPKsctUkBhxFtBfFaY6kcRWGF6NztsEYtfDp9/m93s/mcJ+OMdZ9vTqnElXikTWIYxYopP7jqFfvuz5ySjCH+FDh0SqIjAGhK3F/KiEYGVwe7Mm3ez2PLMS7Kd9XGvPfuRQFPj2dAoZ/4gAw2Gk4iPxLZWSBIrzGGZ9k9Wr3/3/wZdY87sjRPBeDzovP7kCfi3UT+2JWj9p0vO2niVT/hprnrIiL7tu1e3rF73PvkVMqMxc+b1lTFvym7LtFVcPxyzy6xdtPZQZYWPMzKi0IXKG0cIl15RrKbnOfJLc5RG2Kdfy0YeKrz0C4p9vhcuVwKr6pAGkXJkJLCqqE8ZTnynl0qcF4q9RQAqTPttAP6iUtUwCCyU1R8qPBHGudzlOTMbgEXDvvagYdiTfcKjKs9CX1i5EFjG3oL+Ku658ImSXirxkbDtLQ78keXCTCcAKCno+V+b+R2e0666fl0vfCkTWEBvKq/8sCzTTBSM3vqfgTIMFCwaQaj2QERgqfZo0eMpuRkWvRcyMODESdfN8NiXBbNf61qiaQYa606DLqoyQIhEMvHAtl0PIJUKtxmdRvqz5z3+0WO+AQoU3j1vHgtn+6bHACiL0MimeLv048WzNt5HwKmZ+HQgGd93Nt96zzGBbu4zTvjFpKbamY/JSEQF48mlrS0TFOCUHIQwbZnuN06lYRqL6el028MqMUsFS1hNF4P9paHYkyOBZRjx43ziDSp1I82f5fZsW6kSs5iwhBX/GZivVKlzKAQWoAvTli/Y6usWDHMSc//e65a9ihlnqDwLfWHlQmAJ05alDhSlu9I2z0koq/0Wtt/Cxjespo/57P9A5ToEfNV1klerxNyPVdoEFjRh2VsV1iZkjf0Z6fS26LknjMOYL8yIwMqXp4tmnYjACrBV0yYt/DaYv3jgFI101NXMgGVGzwIBXNmn6M7dj6Cr58VcYQacTyQ6KqxDTrzn4bcGrkNxyazn3+ODfqNQQc9j9/DbVh71chDMeTMTlY7YI1m+QIXX+1rD555Ft648VkYiZDzOP/3hy02jXknIPYHev6R17K8yXnwYCQoz/juA36XY5L94TlJV8wHFqg0tnLDsv4NxQSha5Ehg6ab9eQbUdbUivOSlkocN566UwrTlC43SmmIhEVgQZvwtAMuC06qHqzGmpdNJpeSoaiXDxAuVuH6D4jkSWLIBh6ooobTnfDgGfCPQR7ww92EosUNplkD0Cy+V+GAYdpU4gSWvd38A+J0KfXeL5yTVF+tXqGAENYgHIgIrOiJv8EBEYAU4EjPHX1/ZqTn3gfh1bVmJBGqrJ6PMGhUALRI90AO7O55ER9fzITuFYOiVn7n/0Q8sCLrQm899aoTnWk8pLvZ5/dLWlsBh/HNnbVzAwKeC2tC3vH720tbDVwTBuvis5xYSaZ8IMqcvWQLSRv3YykWLKFAR/VzXLZb5wrDfA4JKwlSa7pvCGN3d/Uq4THGxOHm/nnsfjmTL03DuibkSWJb9d1ZLri32nGTgxhHFtq0D6StMW344UNKIYv86YRFYMvJmX3cuVQTGga7Z6Tne4cD2QF1wS+MsNFYJkx5RHenan29yI7Di2wCuV+V3ncyjUqmX1XdcVaVgXnFkjcFOSRCqS9EGLfacRCjX2FInsEyzaaIHX1mpjpxT+PN6Fod+scrKpni345+uShPSsNXtSd6XE15EYOXkvlKcHM7Deil6ap9NJ56w8BgvzfKB56D87KqKoyD/hfUOVJpuZezpfBp7OsNvjiZE2c0PbPjQ27Px45yzNv4BBJVfhKCRN37xiiMDF/mcM3vjK2CMyMaON8x5eWlrS2DWdc6sjTLt6Mzc1+dXlraOOyR3nFJFOKRBmM6r6tJG9vqJCR/1U8kfl6rXsrHLsOyP+mEUyt6vTI4E1r5OdM3Z2NbXHAK+4jrJb6nCKzqcymZbOF7bgSUBVNgQIoEFYdp/B0KKEAR+7TlJGS0yrOphCcv+MRiBa2Fme1ZyI7AUE64a3uv1JFV/IMnWNUM+T7ca72amnLs6v3bJJ9zjppKhNAUodQJL+lAYdhtIaffVt3tO8uYhP2hFoIBu2dcx4+PKVCX8yEslP5YTXkRg5eS+UpwcEVhZ7OqUyQvnah732TXOMhpRVzsdGikqVZCFfsUyhdnHro7H0NUdRn3a13tB04znmiqPn7Jszal7gvrn4jM3vpk0/C3ovIHkidG6ZGVL4IelN5+3cZqXxkMqdCGiny9ZMTZQDZgpU9YZo+rq2sGozlkHwt+Xrmh5U844JQwgrPgKMM9SamJv+ljNuOHafa4PXwrdtJ9g4Gilfj4QLCcCq7eobUqtbv5cz9kWTr0vtYqGgqab9rcY+JJq8DAJLNTXV4sOIbu1hvRwQe/2nOHTbl637POYsVz1GRgIL0cCS4aot6jSVwP9Pu0k3q0Kr9hxVKdpE+gh10nMCMMvw4LAsuxVUFmXjtDmpZLyg2mUNjvgoZTRiB27AFLW8ZiIznZTiUCZHgepGBFYYVxKihozIrBcZcV3AAAgAElEQVSy3L7pkxbexMx93vxlSmG8YRaEVpYleulPY/awbecaOOkdoRtLJFKVlU3Hrrz/0sAt0+fNe8J0tpdJhq1JpaK+EGNvvWv05iCY8+eztmH1JtmZTokuRNqZS1aMWRVEhzlnbboIxMuCzOlPluGds6z1yLtVYJUqhmY1XklMP1Nun8Yf8Hraf6kctwgBhdV0EdhXcqb7NT8XAmsvcSG7MikbAtokx9n6T2WAxQUkiwS/CkZctdqhElgyKsGy7wPn3ryjP7tJ4DS3O7latV8KD290rTC7NqpMycvExlwILN2yVzPjlEzWyUSGgH+5TjI80j4TJQpIRo81z2Tfu0eVSgRscJ3k8arwDsQZFgSWab/1Pw2TFin0n+9p6Rb07JSlAqLRjwdMMz7JA8tmVarGDs9J5p76HBFYqvajZHAiAivrrZyvTZ1Ys4GAiX1DEMpjo1BbLe9fkZsP9JHndSG54x/w/fyUPjJiI6ff//ClWXUgmTPr+XsAmpn1MelrItETS1eMmQQQB8GdN3vjYQ5DVZ2eZ5e2jj06qA5zZ2/8GzMU1HXgbUtbW+yg6wfxV0nIxppHC98LRHRmYjeBnnKdhLJumpmsWagyumWvZFaREjuAhbkQWHvT3WQXOmUjZlBzZ2ci3HavyrRVDdRb70ZG4uqqkcMmsEyzfrwHEbgBSQA7u3Ti41Op9pKujSRMW36UOjSAX5SI5kRgmfb/MfAFJYpIEELSSyWVk7jK9Ms3UFndYcLT/61qWQKedp3keFV4B+IMBwJLnlBh2S8rKpex131ECS+VkHUPh1WqdJAzKEz7RgBXBJkzoCzRDV4qcVXOeBGBlbMLSw0gYlZy2NEpU75erqVrNoD5iP5ghChDXdXxME07h5VKZ2pn92bs7ngKzG4ejCKOWfFL7lt3WVapMnNnb/wQM2StIE2hsi6DRi1rHRv45XHu7E2rmFlNq2/GF5aubLkmqF1zZm1U8uBPTP9YsnKsWmIwqDFFIi+s+F1gPlu1ukz0YT+V+Klq3GLCM4ymGT759yv+jR/sglwIrPLGkcKlQJ1KB9uDxjqtcuvWrZ2DyZXi34XZ9GvAf28YtoVNYEmdhWnfDuD8MPTf+5KHhA46KZVKbAptjSEDHm/qZvJhBiYNhQo5EViKI4TkS7zn2OXAU/n5kjgUDg+yZoXdLNKQEe5K3osiAiuI8/uWDaEbITSDJqc7EyojjHI3tEAQYrGmMWnflx8vlH3cIaLz3FTizpxNjAisnF1YagBKLtSl5pQg9kybsOBQBt1HhMP7n0eIWU2orpwAXYTRRCiIxkMj63MaO3etQ4+TzFPndmJdi71/7WNX3ZhNlM+8N714iNPtyJRDS63H6I6lrWMuCKrTxWduOoo0fkaVLuzT0cvuGfuvIHiXzHruJB/aGhUPeAS6cknr2J8HWX+4ygqr8UIw3RaC/Vs858Mtw7mVuuq0nH73KAcCq7y8cWRKMYE1Im6Vv/TSS90hnKkChxxVL8yUjGZT2G3svybng8CC2TRRwH80LBv2kVhbBfszHWebsnvO0B+Mpgph+XdCYRpeUJtyIbCAKYYwX+wAWGVtmk+7qcS1Qe0oSXn1BNajrpM8IQxfDZMILOhl8ZPZY/nMqXDQvz2n+qioBujBLtXNxvkM+ro6Z9M2zykfBWzpyRkzIrBydmGpAUQEloIdnXHs98f7mtYKYMAuUbI2VnnsMFRWHAmhHdTEUIEmhQfB8NHZtREdnc/Cz0vUlfQBsanXX73m0fd8LRuPnH/+c9Wmoz0FQHGHPO7wPW/MrauOkoV4Aw11qXu9nxfvXtLack4gBQDMnb3pTmYOPK+Pdfb45WXNt946siuoDsNTvrZWmGYbwIrJVBlRT9e6qcSnh6NfdT0+mzW+I1QiYL9jC4zAqixz6nft2hV+AcICO1iaFf8MMX8vLLXyQmD1duiK3wBi2TUwzLGHCG9zU0n5GynuUd44QrgkG7GcNJSG5EZg9UbfyY9qYxXa0OY5SdmJOEqpshqPFEyBPuoNtA9EuNdNJdVEzL9hIfUEFv7iOclLFZ4rZVDCtGX5j6nKACUQax/w0lujGqAHOjU24nDhu08AqFTla6XdjiMCS9W2lAxORGAp2sppk6+bBs+Xba4zyhWsLB+HirIxEKJckQaFBuOjJ7UVuzufgut25FE5YsOs/e7969+bVa2IvUXby/8AsCwgqXQQ8KslrS3vDwo658xnZ0ATDwSd1588MZ27ZOXYu4LizZm1Ub7w1gadd5A84/alK1suzBlnGAHoZvzrDJ4fgsl7POGNR/f2l0LALmhIYTZuAWiAyFmF6hcYgaUTtZRmitgAe7Y3wuJFlekRb1wtXwQWyupHCU88DqBO4SntC8pnos/5qcYfFWuqmWE0T/PJuxnA6JB9NSi8AgJLpuKo+Ii0X1fPs8wm7Hl526DKl7iAMOz3gvBrhWbe6jnJixXivQalnMAi3O6lkgX5TKZZ8auIWXWpgw5PExPR0xYVdN93qoQVvwGs9qOIgH+MsijeiMAK41JS1JgRgaVw+6ZNXjgZXu8X/Yy7xJXHDkVFeQsMvVpFZpZCa7KDkt0FnfQ27Op4Aq4r6+TmbxCRq2uVV9+/4QPfyG5VpjmzN30ejP/Lbn7/sxhoa96547Cfr5+aDobdq9MdYGUPrXuqRcWI393VHKj+zdyzNr6DCX8Mpnvf0kz++5atOELlg6IKtQobI4Q6SPsN3lfQXTajGC7tpUk37S8y8K28bXoOBBZCKOJOGk53e5L35c3+oV+IdCO+gIk/GaYqeSOweqOw7CtAkAV38zHu8DT9KvS8qqzIdR6U1jUj/gEi/mGYpGUQO3IlsDQr/iliXhBkzcFkGfii7yS/M5hcqf9deW05ol94qUQoUZLCiL8bxDep2hMC1rtOUm2Ukyrl0FglTG2L+o6htMxzErIh0bCPPtT1+Mms8b0qo9EJ9JDrJGYoOwYRgaXMlaUCFBFYinfy+KOuGWmY5hMMDvRlVEZi1VQeC9NshEbKShwotq5/ONlRsCf1KnZ3PgnfD8jRqNCSyDX1qo+seeT9N2QLN2fW5rcD/p+znT/APCbmjy9ZOe5HQbHnnLXpIhAvCzqvP3ki/tiSFcH0mDnzHr1GHCa/0EqWNbdB1OXv2G7fun5qlD4Y0JO6GX+QwdMDTstInImv8lPtsiZZoM6YGYEXmlBZ/aHCE7KzYyh1kPo0NxcCq/cBnnYrdSPjf7x0Ml/kh1LVswHTY01nse/LNP9QRz4JLPnFS7fi9zLzqaEa9Rq4rAGgXeE51X8t+PoxFXaznqYVDC6oTqu5ElhlZfWHOp6QUSMqG8t4niMjq5P5DJXPz5HNeBW7UphQ+sWVgC+5TlL5x1BpkjAbLwXoTxmbN5ggUbuXSmSUPTIYVBh/1634p1gxcSv1ZKJP+1ENOEM37ccYOEbl3ikvlh8RWCq3pySwIgIrhG2cOfrGWFfVzq0MzuqFX5JZddWTYRoFez95zWuuuws79jyCdFrt+1XQbTHNhrPWrH/PPUHn7Zd/01nPnSBIW5/t/EHm3b+0teWUbLDnzNoou6Uo65jkmH58+fIjZCX9jMfFZ78wkvy0TDHL+XrBwK+WZZFGmbGyJS3Y+5At0ziVdYg50F06xcalUi/KGislPEbHhNnxMkD1eTUyJwILQpi22ratjB956eTH8uqDIVtMFr9+QUYOjQhbBc8pqwdeyFttsbKyhkMcT8tv+i9RUgefkkolnwvbn8Hxx5vCbP8lwO8OPjf8GbkSWFJD3bQfZWCySm0F8HbHSco0y2E5DKNxqk8kay2pG6Rd7KW23qoO8L9Iwoy/BeC/qsT2HLMRKNBU0r3p36+qtHcfli+gTXacrf8MAbsoIIVpy9/9PLXKUo/nJKoAqHtuiQgstVtUAmg5v5CWgA9CMeGkk64tcztxdy4db2TRd02LodwaifLy0RDa0NfLkimC3akX0dm1BZ7XmcfC7H1vExF5Mb1h4r2PXP50tht5wQWbm40UPw1w7vWd+lDC893Jt91zVOC2vRfPev5zBLomW7v6mPeHpa0t8sE+UJTN3Nkb72bGbBV6MLxzlrUeebcKrGGIIVPfHmLVBU3/68jdnmW0YM8rgZsMFMteCMP+MQj/m3d9cyOw5EvrMwwcpUpvIqxxU8k8Re6o0jo7HGHatwC4JLvZwWbFjIoRnZ1b2oLNyk1ajzXMYl+T19R8Ps/JtJt/g/ARL5VcnpsFKmaPrRFmx48BnquyCLEKzQ7EUEJgWfHvM7PqxhvdXswahd0vbVdtczHgCSveCuazVOrqWYYd1r1UWE0XgX1lkfnSbhJ0qtudUNzxT51HddP+PAPqU10JWz3bGoNh2JVXmE0y6+QPiqPRmTScobxEQURgqfsxlQhSPh94SsRlmZsxDzeLLRNfnA/QVzOf1b+kplkQoqy3XpZlxmEaDaF2M2R24aR3IJVOwnG2w/O74fvdYA7Ef6gwvU8MTcSerLRqZ7U++M6t2S7yzlP/XddpubIleSjFnDVo8xe3jvlmUP3OOaetoszv3ARGPOjcfuQdDdbIxa2jAhVrnXve5tGc9mW6lYrxslnfPXbRogmOCrBhidFbC0vbrLKV+oF+JNBa1zFnAS91l5p/QyjSm7mLciSwhGX/AozADSD6V5BSNZXV8e3bnx/a0NnMPZiVpG7Fv8vMn8kXuWNo2tienq2qrpeZ2qwJK/5T1QV4M10cwBYQ/u5pxjXofkUWyc/TmK+Jsp9dCt//MBjHA1D6hY+AtQDqVRLHKggs02w+1oMnu4UpHUS4zk0lQ60Rp1RhRWC6bp/KGpTWAyTgGddJKk3JOtDcMFKimbRP+qmt1ylyawgwNXXCNGX2gPLUfwL+5TrJo0NQunAhY82jhe/JD/8xpUoS2rxUCJ1NIwJL6TaVAlhEYOVhF2dMvHaOD/wKQIPq5TTNgNDKeiO1hGZBEzEI2vu/RgaIdMhILjkIGnhfnWZJTsloKlm7ymcHvp+C5/fs+z8F3+uB56eCBuuoNq8fPPKFXnZ9rOaoT61adWbWIarnn/+cZTrakwBaQlGc8Ax3p6cvW3N04NoKc2dvvJlZZVgvPbC0dczJAAViH+fMfv5qMH1ZiX8In1q6omWhEqxhDCJMW355vSg8F9CfPCchI/VKpripsOwLwPQ3gNU+rGW6CbkSWGbDHEBbkulymcgR0efcVOJ7mcgWo4xu2l9g4P+FlXLbl0/Ip5NdNyGJj7wP3bQfDjE6MxN7PAb+qRHuZeAOz7ZWKY5q0AwjPtHTcDbtjZY5SUlX3L4t69aJJnrAj5n5vEyMz0RGBYEl1xFm/AGA1RVI3qu8D9LmeKmtt2ViS2nIjLN0c9caBqaotCdsMjCclEes8Qo8KlfE4pfD59+q3Kv9WAQ87DoVpwNbesLALyhMyx4nGI8AkGl+KgeT5s92e7atVAnaixURWMpdWuyAEYGVpx2cMuGHLUJzf8GMM/O0ZEkuQ6QlhKj4xNpHP5BTAct5MxOVaX3PI8w4IixHkaYdv+TuMRuC4l88e8vxBO8BMFRV809rwITFrS3PBtFl3lkvHuKQI2vHKPniJeC23NJ61KYgOkSyfXhgb0fCpwDUhOif33hOUkb8FD2J1dthh3AriPNb9+rAzcmRwMLeGiCvqIwkIuBp10mOD/EMDRW0pllNHyf2v5tP8qrXWMHv9Lrbc7o3Ze+0+mphClnHcVz2GEpnMoEeY/CjBDzL4H+Tpr/q+kjASe8C/A6gwgFiPtCjAbJeQlcZXK7RfVHHGpqZeBSh9x49Adxb9ymUNP+DraZLPCexRLfiywuSwIrZ74GP3yjdrb1gbR7hdBRkfTP11mqmfTUBaj7Qvf56f6GXSt6uXuO9iJZlj3MZqmvQscZiRjrdprYWmFInjLOEuUtGuIZTz5Bwr5dyLwZ27FKqdiGBWY1HCiZJMB2iWi0CHnGdpFIy+DUdIwJL9XYVPV5EYOVxC6dMucGgdNeXiPkLysM282jHUC0lNHOVaY66/N6H5+aUpnDRzFcaNdG9CkB4HYqYv7J05bhvBfXVvHksnO2b5IuqqtRBGXq3ZumKlsD1bubM2vQlgAPb0JfNBCxf0tpyQVB/RPJ9e0A3499j9KZGhTjoj/sisfwQFwkV2jCap/nk36G+BXdAtXMlsNBUIUxfFgc3Aq48sLjAPK87qbQYsFL9goOZuml/dl/kVd6fbwj8fddp/2xwtRXNsOJjBfPq0F7wFKlZ0DCE671U8qMy/LxQCSygrkaYuvy4pPwjRm/6m2Weij0FWtBb0eHZVwj9L6o+0B2gVofn8EigPXDkfeamja4VZmcYzSJu85xkiNHdmVvYn6RpNk3w4MvoIbX3wn0L9n7YEca5+U2Hzt0vGSEY9vGC6G6AlWcDAeRounZquiskAjQisDLa4uEklPcHvOHk3P5snTHhF00+7V4BkCRQoj0Y5FAQiV26Uf2l+9e/9ye5nh/ZUU/j9KpQI6+AZ+M7d0z4+fqp6WD6Ms2ZtUm2Xf58sHkDSntMYtqyFaNlna+Mx2XnP1fd4ZDs1laZ8aQBBf1jl7YeIaOGoqHEAzN1YT75LwBjlcD1A0JEd7up8ouLMaxeL7NPZQ93yeDzMH2UEXbOBBZImLZ8YT00o/UyFerV67BRwPqA16pMF8inXG2tMM0b9xXyzufCr60V6hfoTC0yGqcIotYwyI1MVShWORkx5jqJaQB6fw+FS2ABmmV/jBg/CMPXBDznWsbJYRUhD0PnQJhG0wxBvuxarfzewIQf+KnkJwLpk4WwMO2dIf3G53lOYX/UEJa9DBxmGQXs1BhnptPJwBkUWWxlXqboVvxsZtwWVv1UgH6/74NnOPZEBFY4fi1i1Ig8GcLNmz5pweXMJEmZiiFUo5CX9oUoW1c34vDTly+/QBbkymns7TYoi59SCF8f9qpGwK4lrS1ZpTlcMmvjkT4gSQmVY8XS1pazgwLOnb3p/zHzV4LO60uewB07vZa6Vaso63plKvQoNQxhNb4JTLIeVtjX8T2ekz4M2CkfmIthaMJouAykyVoZYfsmM3/kTmBBxOLvgs+/y2zBzKWI6C43lZB1fgLVx8t8hdAlyTDsyT7QCkJd6KsNsoDn1MSA53O+X+Vih2E0nuCTtja8l5VctCvUufSC5yRe18ylkAksVI1sFKm07HipJMW/j13p9BxjNFBiXWmNQyYLSssaYlYYJ1FjmpxOJwJ3nQ6qizBt2f1TWX22A9bv9ogmIJUo6HIPwrJfBmNkUL8FkWfCR/xU8qe99eGKdwjdtL/BYaTK/tcnO73DaprxfIj3vYjAKt4TGJLmhfFwH5JxxQB70knXlqU76BoCy5D1aOzzAJHeVm7Gz1617lJZZD3nF6s5s/49HuSuBaM6RCezL3j2rXeNC1zAcN68F8vS251XWXFKgCDtpFtWjHkgiM17o6802dlRScFrnbTz/rZizJ1BdIhkM/IACcv+ERj/m5F0bkI9pIkL3J42+dW6gMfomG50LWPiwKRtqEYpILAAaMK0ZVqK0m5r0m75cOs7yW+H6oOQwIUZ/z3Al4b4Ih9Ic094h6F7e05p7oEW7E+4N50QT0ckVgbeJLzqpSrGvjHStKAJLHlBsBqvIib5gh3WSEPDB7yeZCiFs8NSuj9czYp/hpi/E9a1Yl8E5lQVz6yD+UY37S8yENY1u1sTYma6u+2hwfQYqr/rseaZ7HthP48wARtcp+akof4okZ2fe2uGyY6lslFViO/72mWes/WP2emY4ayIwMrQUcNHLMQDPXycqMLSEycvHO15/tUAXaYCr1gxiPSdmh77CFm1t6xd+7ZuFXbMnfX8XAbdFELHjdepR+AfLGkdl1Xo+NxZG69j4OMq7N2PwYQ/LVvR8s6gmHPP2vgTJnwo6Lx+5Hft8l5ozKVbpCI9ShSmtxbKMwCa82Agg7DYS/EV4db3yM4S3Yqfy8y/BsL9KpuVdmoILOim/TgDE7PSYZBJDP6a77TLrn3FMEi34p9m8OfAsAtJ4YIiA8saDhGeJosyh1P0uJAcn60ukrwi/ST0vCpTdF83Cp3AQm9tPN4eNklJoIdcTXs7etq2ZOvmIZ1XdUiD6HFugSxQH+LQmKek0+2yPlPoY1+K/H0hLuQDtMxz0lcUalFz3bAXMiGrZ+6AfttD0K5xna2S/CyGxja6bsa/zeCPhJEm+wbf5afhT0RgBTyypS8eEViFtcc07bhrx8PHpwHINvZ6YakXnjZEoh3Qv1Bt2H9dsf5tijqAMM2dveVrDP9LCjv69ekEBpZb9WMvWrSIAt/cLp698UINWMYMTaGHPd/3j7v1niNkBFvGY94Fm5udlC+726ipfcX4ztKVLV/MWIFIMLAHQmmpPZAWhFc14Jp0KhlK/ZXADuh9sHF/CPCbwvqyHlinN05QRGDtSxu9NWd9+gWQhfvpg8DWzvDWyAV5dEy3uj7KjA8DPDoXpBDndnk6j0NX+6shrhEAurFKGLgFRLMDTBoWor21nggXIJV8vi+DC5/AAgyjebpP3v15uPZ1A/Q3T+hfRvcrLxTHARlv6mbyswz6VNiNPBhY7zvJEwHkp1RCbMThwnfzQSjuAUhGOv3Wc6r/XliRSKNjwuq8A4wz8nEeZYF30vD9dE9SdgAtxLRCYVjxD/rc2+An1Pqovf4mtHmmMTEvtfIiAisfR7yo1ogIrALdrt6ILB8fBPgDYDQWqJo5q6WR8YxG5vUon/irtWtPVhJxJZW66KJXyrWu7l8BeHu4obO96M9obJ26uHXUtqAOuWj2xsM0pgcBVhpBQ8C1S1pbJBEaaMydtWnJf9qezwk0qX/h7Wb92Hg2pJ6i9YcNjGbFP0zMPw79rB/gUQL+xRq+5/UkbxyKh7lYrGlMmvmLYH5XHr4y5naWFBFYUglh2pJgHpebQv3PJuBZBn3ecxJLwlojKG5vN0l474aGSwst4qpvW+hvnpOQ0a9OUFvDktfN+NcZ/hcBMsNao5hwCfSgK7y3oHvby/3pXQwElrzmC8u+DYx8dflNAfRXItzkphIrhuLaP/g5sys1iz5ILKPa+bDB5XOVIMcU7rju/KYOm8KM7wBYeUr5AN7oAuhxgJ8iYCMzXobG7US0hzTuRJpk1JYPw9eZNQtMMfZRBeYaEPd4TvLmXD190PxY7eGCDVkeJG9RpgR+0ie6wU9V3QRsUvTBPRfP1NVolvE+YpaZE6E9G7xRQ41xQjqdDNQgKmsrIwIra9eV6sSIwCrwnZ05+sZYV/VO+YL2HgAnMXNYBTvz6AktRdD+YRhVN6x55L23qF74ktlbjvHZWwRAdnkMedA2wDs9mw578+eztmH1JvkAeKZiJfewZhy97O7DXgmCe8nsZ4/xWcibkaLipnzT0tZx8txGI3wPCGHG/wLwW8Jf6qAVXmLiaw1oy1KpxMZw1x9n6dbu05lxBcDvyCdhl5NdCgks3bS/wIDsVhruYGqFxgu81LF3A6vyE1XwmkUzdcN45gQmf6YPfheFkzYpO83J+6nKyNcD9oRu8pzUJ4BdYbS7z2rvhWWfj96aSfy6YuVZgRX3pFs8Rz5TJTsGMqNICCwAM3VhPflCPl/ipd8Y2KyBfgcfd7mu/ijwStcQHgtD1+PTIDCHmWVdyPw1RyL6mZdKqCq7kLELhdX0I7Av08QKfhDwsOskp4eh6L4oxNUAjDDwB8DsAOO3JPAXt8d+EHgqjx8smip0i09h8DwwZOkZ5R01B7CbwXyll27/Rd78HRFYeXN1sSwUEVjFslMATp7003gaPV8Cs+w8IovyFVGKITGR9pzQjGVV5c3fu+v+NydUu37ePBap7RvnEfA7gML3DcHRgFmLV7TIG2fgEUbdK6mERnjf4hUtshZQxkOSaY+t2fQMM47IeNLAgnsqO/xRf3jwiN2K8CKYDDygm/ajDEzOQDQUEWKsYdJ+4pG3DqnYi8BLuUdVVsSbDIfGMPElDL4ypNbhB/rD1zS+yvfpemUPxAoJLPkT1037GYay3+pgZ6GTQN8j9m9Np91NIXSj1ICR9abpjfDgHw3QJQC/VZnv+7GONG02+/7nAJwzmANy+Lv8iPBJS+fVXV3tgT4o5LDmIFPtSmFCRidLsrsEPogF8RQ5BHzbdRKy1tugKUDFQ2ABeqzhLPa1v6tqvhLEq3tlKQXw7WBarIGfSBvchq72dgCSKA5jGCgbOULn9GgwzWEfV4C4PoyFBsKUEauukzwq3+v2rtfbqIFl+mvBv8uFSWBJVwir6U1gPx9dmfvb6h4Q/Y6ARS7R8+ipekVtumVTBSx/pAAfCdbeMYSNS2RTrZs9Jyk/IObcYCvj301EYGXsquEiWPAXveGyEUHtPOWUa6qc3eZnCfxuRm8R2/x9bcpcWQegbboWW1ZbfexXl993ejLzqcEkzz//uWorrd3IjDcHm5m1tCxZdcGy1jF3ZIMwZ/Zz5xK02xXXvQIRkinDP3T58iMCtXG/ZNbm83z4t6t6ECLgV0taW96fjW+iObl4YLwpzPZnAB6TC4qiuR4I9zGwWGda5eh+O4TpYE93GtA9wDjgBdIRQFpHhWXC08qE708G89nQ6K1gjivSJxMYn+B/yXW2XSPMeDfASjpxQi2BBRGLXwaff6fq95qJY/bLECCbBiyBpt3tUvo5CCOFjp40IOSeeoA44KE2rQGe/CdQWabDd3XL08pc+Mcwa1MJOBFgWVg5n2kwkuX/o9eTuEw37S8zcHUQ+7OXldG6uOM/X8yfBNH23od/Rq1GfAiz1uw5W+ULwaCkSvbrv2FmeeMU4dHtYOTz96VM/eBA9G9DE2f09FGsvT+sYiKwpA1700T5a0NxXeh/P+ghIl7LPh7VoP8zraeS0EQamuFiT6e8Xsh//uvvBxJNXjtcAVQIVDgGfN3SmUf7vn8KkX8OmE4Ou3h9BmesWyeenEq1P5uBbAgio0aGCIEAACAASURBVGPC7JQRnmruUyFoeMB9I7QIrP1raFbjlcT0k/CiagM5yAXRg8y8XNNwr0vGFggvhQ7DBbrcg8/8vvNeVWbAT+sxTytLszeBWJP3x3MZPKEwftd0v+ckTgnkCRXCEYGlwoslhRERWCWxnfO16cdVj2MPn4VGl4ddsHwwl5FmPqwbZdecve6Fxd/A1xmgUFn6i2b9a5oGXRaZzBuJJ0Dzbmkd+9fBfNHX36+YuTm2Q3A7wKr1ZcE05paVYw/qpjSQnvNmb6xxGPIhSNX1wCVPs5esGrMzG/9Ec3L0QPWoetGT2gygOkck1dP3Xwf6ux7sP3+qzmFg/Yl5pZtunyUnFjKBtVe/xqUAXRzYSPUTBttXueKBezpk+7vP9F2eY8dluodlxce6zCGnvWbicNrmOQlJJOWPwNqrFomY/V74uKG4Iroz8el/ZYhooZtKyJqQgZ5Fio3A2nfduhGQnWILehy4D4PtyZDfF/rzJBM+4qeSMlJ3yIZuxb/DzJ8fMgUyXDjsCKz9auhW42eZ6bsZqpVvsSD3yqG+Tx7kGwYe853k8UGvo0qcHBFYStxYSiAF9wMpJecOjS3ztcmTa6tFWqsG+RM18NkgnIUQaogQaR5BPEaathyi7NY0dr1gmofsXLv2bbmnDWXgvPPPf84y0uJOYpwK5K82GIP/37LWcfOzuYjvKy7/IoAwQt0XL20d+5aghOGc2Rt/CsZVGbg8QxH+4dLWcR/PUDgSC8EDlmWPcxkPA6gNAb4kIQn0gOskTtvfRarQCayysvpRjic2hZ1qV2KbvcNzvNHA9tdSm3XTfpiBqUNr55ARWPvMrq/WLf1KZhmNxqVT5J2o1SPnfejZGeijzn9fhuPLeW/JBiVDQExwnLZAnYGDLyyjcJOytuiFwedGMzL1ADEvcNPtn83mOTDTNTKUM4Rpyw+Qqj+IZrh8ZmL5IrCkNrrV+Blm+l5mmkVSmXiAgMdcR75rDVw3MBOsrGQiAisrt5XypIjAysPuStJC7+4+wSe22fc7hKh+bPFdzcprQA1kypQpNxha964G1s0a8lBNgqvA1AD4TWBu9EmrkjdAoekV+w+F73udpOkdRLyDyGjz/PRL0Gg3Qd9VplvbyxqbdixffkGgVDUV7u6t17R68ycZ+OL/b+9OoOOorryB/29VdbXk3bJaks1mSTb7BBKckA0QllkcsCUbNBmykhAyXzIJIZNkICtx5stGlvlCMpOZLMAkk5BEiReZxGAsMGEJEMIeErAl2WAbW+19kdRL1f2mZJstttWtruqurv7XORw4h6r77v29ltR9u+o9QKf4ETP3GPKVZd1Nn839/JfO9Bpu8bRxnwJnjOb6I1+j2+ya5mmdnZLXIpILW3te7wAP+ZhPFhltWvb7GV6TjkcJBWy74WQHzn1sYuUyCfKAk85e8PLGRtgbWF5Vpl3XDuiSXCrkOdjtqJyNTP/jL7ew7MQ1CnyttD6lbmAdqH78UVPMoXQ7DPxfKHzdGbeovoLfG65xTSaz5eGDDenRjF+Od2Dtr7N2vGmLd4d4kOu7jYY0Ktfc5KST3nqMQa3vlZeTGa9bBtUw3I172LyL2cAa/tsYS1wBGb6ztMLW+cvrpZPTyQL8IRuPzceeTd6adqU52MAqjXuIR2UDK8DJaT+v7zJ13Q8BeuYhtq5+TiB3Oa7zjeV3zQz4G7kAiyxy6PmtfRcCzpcF8roiD+09e/DVru7mz4xm3OugxuOtvT9U4P2juX6Ea/73pjDzkmV3Ts/rg+z+RxmdPwFysl85iejnl66aUaQ1ZfzKOrpxbHvKiY6Yt0ErftexI72xfty2dO7AwNYXXn5SOTSwDizo/mUFro3uq9iXyoYg2uGktt76N9GqpxxlDt/JVso7j0LSwHoRZ0bcjO9qheIKAG3l8SFw+MubX4mp/5UdTN7vx+OY5dvA8iZyeLH+XwGY68tPEIMcFPiVkzbeD2zZFx6SCTWmHfcWc58cnpxemUmxG1jDTaz9X/B4a0WOC6tL+POSLqc6dTl2lXg3XTawwv9SKXKGbGAFAO4tKG6njP+BYN7I4cUB3Jts0/pK58rp3ro1PA4hsHBO3xsd6KdL9S1TIc0rr5z5c3o/J6rezkdBHEuXdTcvyDdwW2vvZwD9cr7XHeH8PbZjHN+5unGzjzEZqmCBhoRlO7cpUPSmb8GpBx5AHrBN59LBwW0bXz1UmTSw/vcz+8m2GU8ugeJtgXOV5wADAN7rpJOHXbPQjCd+dKBZU6IKw9bAeolh/PhptUPpzGWuDj+S5i3eG6YPg94amw+qYLFruv+DVzWhC53M8m5gDVdvmXbdjYC+MyQLWxc6JaW+/iYnPfbDwLqhUify6vEtu+5LCv182PI6mE8pGlje2LHY1FmuOJ2ATg+rTYjzutFJxz4KbPL+hpb2YAOrtP4hHJ0NLJ8npeOC52syTvoB1Ty3OBekDcgN6jr/ufTOmSFYVNZnmFGE8x4VfPKetac7Ynz6wJbfpXi9qop+oauAu4raW9d+UCHercxBHFtswQmdq5p35RN8wQW9p7lZ/ZOv36yrXLnszqYf5ZMHzy2agGnaCe8OPe9DqFG0UUM9kPzBSWfmAjsO+bNTPg2sYWTTsmvvV8gbQk1e/OR2iGFcmh3acueRhrbt+lMduN6jhSX62QhvA+uVbvVjTdtbE0r/XoCTFWgq8g6SCoH3Bckzorg9a+lPMLB1U1Avqwg0sIZpDjQ3vPWaQr9bXVBzWWDcrCi+l80kvY0Air3RQs6pm3bdA/uf+AjfUaoG1rDEhAk1Zirufcnj7ejHY2SBrEL+1U33e1+6j7TJwsjR/DiDDSw/FCMVoxQNgUgBvryYjg410zv6Fhd4l5AC+kt1jS/u1vU9q1efm40s2GEK++AZGuuvWXcKXPdbiuEF6Et0iKNwr+jqnvHfo01g/pyeiwxIl6r6/8FI4KriPV3dzT/LJ7+WFrUmmr3e2kh+ftjdPWjunbZy5Wkhuq0+H5XKONey6xYp9F8q/IOM94ZspZNOenfIHnYNkzJrYA2/gE279gFAQvkBpug/YYItFnBWKpVck8vYZjxxAxQfzeVc/88plwbW31ZuVSXOgouLFDgHQB0EE6DDC0pXF+g0AMFeKPZApE/grrAk9puhoRdGtSD7aHKJSgPLq92qmjJb1bgFCm+3Sx65C+wFjCud9JZf5H5Jic6sqm80XfeRMK57WdIG1v7pEMtOfEUh/1zax8VL9NrIdVhB0nDdizKZbd4mQOE52MAKz1yEJBM2sHyciPmtay8UyAq/Qqpo0oK8bzDmrlqxYmbRF0v3q45c43R0qJ3e1XcBHPcmwFtgvqRHVg28qeuOZm8R2FEd8+b0vNVQWR3UDokK/Liru/kD+SbXNqf3G1D9ZL7XHel8dfD6rtWjt/IzF8Y6skAsljjdFawCUOqfsVJMlSvAF7Lp5IiPzpZjA8sDNe26ZYB6zbmK/fsugjXZVPw0YEMeO+JOnGzatre5ilX8F2b5NrAObzW9KhZLnSJm5kTXlUYVNEBRK16D62WHDjeosFVUNhsG+tTRP2cyE58G1pb8PU+UGlj7yVssM/60tyai98Vgxf5+yP3nW9aNiQ/O2rNnz7bcryntmcONStdY6evd9T6UFIIG1nAVY8bUTk058hAUR/tQVpRCqEAezKbPeSvQ6YSuMDawQjclpU6If8B8nIH21p7ugO4YGhCRP5qKq37T3fSEjymHIlTH3BcSqfTAjQI5F9AxIXhjtXcMZMYt3U1bRgs07/x1jYbjeIvzF/ot9CFTEJFkbF/suM4/HJPHBzTg4vN6Zpqu/hmQ2Ghr+5vrBM+d/pamxkWLJLS31vtWa2QCHV1t2ukfAfqOyJQ0ciE7TZhvSac3Pz3yqcONoEFA/XnkRtDvpJL1uYzrwzmmZdd9VqGLfIhVbiFcQ3B1JpX891E96mNPPclE1vu9XeT3RlFsYJXbS+dv87XiibtU0eJXJSbck9LpbX/1K94o4xhWVX2Lum7omhyjrCeQywSyKJuu/QrwdF47OweSTJ5BrfjUC1Wzvn2Znufwh37PCvwxm076edd/AWmdbFt28lMKcMOh/YouYLzDSW/x1okMX/PKy5ANrAJe79G8tMhv0qKJ6FW1oPUvU1wMf3vr/6NiL7F5j75sguhTJuS75uSm2zo7vUXgy+9on/1csyJ7DUTnAPAWVwzLa/Fp0zLnLL59+it2JMtHeH+TCI8Cw49RBHKIq7OW3jXDW8Mqr6Ottcd7/OLYvC468slp16k+avnqaaXbXtfHYioslGlVJ96kDrrCvHuRP3Mitzhx66p8toEu4waWRyZWVf1sdV1vbr0vBSJ/CPCEKXZHKrXx2QKKFSNed6Wo/mdx/yaxgVXAnAV2qWUn7lfgTX4NYImemEptfcaveIXFmTTJqrKvVnd44e8g37cWlmaRr1bgUQvmu9PpzeW8O7hYVt0b1VBvN85QHGG5A+sVGPG6JlP1OwAuDgVSSZKQnzqWe43fG2D4XgobWL6TlnvAsDQNyt0RbbPXvRnieOsKFe8Q7BDoE4Bxj6OZruXdJ4TrmeWXScyduyYezxgXq4uFEDkD0OOL+wFh5GkRwS0x4EP5Loj+8sjz56x7rajjvWnw586NQ6QtkA8s7W768cgVvXSGtyD+4/f2LVaotyW6n8fNy7qb3+dnQMYqtsD0qlh88EOuut5jdYHcMVjsil4cT7ABMD7spLb8Nt87csq8gbWfYGyiwczoNwDxdiGL6t/7nTDwCWdo4s/8euzMitd9QlWvL94HezawSvY74ggDW3bicQVe41dulmBmKpVc61c8X+LEEzNMyL9A1fs7XoLHZ32povAg3uYAKv/kpPu9pn801p6taphuue4ShZ5eOFBhEULZwNpfkmlVNZzlus63BXhtYVWWz9UKPGIYuDo7lLw3NAu1H4mPDazyeXEVKdOovqEtEt9Lwyxo7bvQhVvaW3ZFdsDVP8KQP0LxmAnzkcXdx/YBUtRdJLxmySN3P3u8YVmvE8UbvJ2xBDpLAf8eW/N3hh2oXnv6Wc3fLuQxuPbZa85Xw1wCHX4MMqBDlu9yGheuXi15vcFqP6/nMnXhLfbu58/8RnfnjuOX/2lW6bfYDUi7osKOqZ1mOXKNKq4I8u7B4phKWgz3a9khfBPYumc0Y0aigbW/cDHj9ReLut9Q4ITRWITzGkkJ9JvZqvi3sXvDdr9zNO3E2wF4jyIWYa04NrD8nj8/4pnxxPN+rpUTM8zGoaHN6/zIze8Ytj3lJEeMj0DxbgDj/Y4f4nh9Kvh/bir5/SNt6hHi/EdKzbLsun9W6GcATBzp5KD+f4gbWAdLFtOunw/Rq6DqPTYcybsSvXlQyNecdP/ioOY6kLhsYAXCWs5B/fwwW84OBec+77w15xiusbrgQD4HEGCXqj4sIk+pGI8D2U0K9FtZJM1U1bZ811A6mF7Hm56vduJDU9yYVauarQesaXDdv4PoawHvDquyeQP0HCDvWtbddE8h9G2ze+dB1PuDENw3mIK+Xdnnjs93Z8oFc9ad5KqT07o/eRh4Cz5eme+dYHnE56mlEqiuOdp0jc8BshCKRKnSGOW4uwH8xhnnXI3t273/HvURoQbWiwaxeN2HVPVjZd3IEmwUyM+zKf0SkNw76gnO5cKqqceZ6nwHOrwofoAfaNjAymU6inyOmHbCW2My7te4jukejcFtG/2KF0ycSZMM27rKgNGh0FODGaPkUb0vdR+EgR86Q8mb8707t+TZjyaBcfV1ZsZZBDU6AC1CU/6VSZZBA+vFhK3qureoo1cDuKCMPssc6VWRhcjdgH7LSSVLe6PFaF673jVsYI1WLrLXsYHl09R2tDzVkDbHbAK03Ey9uxOeg2IzBDtVsMuAvPKOGnXHK2Tc/p0B1ftA6+3eUbJvcnyaMu8NzL22M/i2ztWnFvQhqG3O2vcIjJtUNbgPOCI7jAH3xCX3z/DWWcv5aG/pm6SW+zjU13WvvPFXLetuPi/nRHhiGQpMr7LsfR8HcLkCM32+e89fD8HzAizOTh17LdatG/IjeBQbWAddzKr6K8TVjyv0pGAbM37MxHCMlAJ/FgP/7gwlb/Qtaq6B7PpTTXGvh8obfP7wlxGgFyq3ZjP9nyqLRzlyNSvz86qrpxyVdowNfpbh2GYd9m5O+hkzyFixWN1prnhrZMnrAfXe9wX3HifIQvbHVniPCULud9T8PNIv/CX4IcM4wtHVlp36mPdYuUK9v+u+NWiPVG05NbBeqqN2vGXjasD4B4V6dy+bYZzRw+Tkvd69ZvntjuF8EYPbff1dVnQHNrCKTh72Acut2RJqz/bWngcVCMkuG6GmKm1yIgMi7j8tvWOG981bAYdKe2vvtQp8pYAgOVyqWQOyYEl38605nPziKR0dama29d6igo58rhvxXEFaTT2l6/YZ4VrLY8TEecKoBcbUTjMd+S8o3nKgeR2GDzIDAvTAMD+WHdp816hrq+QLq2uOtlzzP1Rx1oF5DdN7ghS8dR5VfphNe+tRBXy3VY6vA6sqcba6+Agw/LPgPS7urXfoPR4/0oebjNeIg2BQVHpdcW9yE1U/wYYNee0km2OaPK1AASted56qejv1+XY4aZ0w2keafUtilIHi8bqmLHANvHU0FRPKZL1Eb5Oj3RB5VAx8LjvY/4dRlh/Zy2JVictdF1dCMBP64u+zkX6XHcnD2406deCfQRH5s0CXW4a9eHBwYxk3UaaNsezsF1X0nVDUBLnObQEvtoOv94dMSz6V3rflyQJi8VIKhFogTG9WQw2VS3Lts3suU8HPczmX55RGQARP1VVXn/mD5dMKXrepfU7Pr1Tl0qDvuhPgM0u7m7+ar9j8OX3XibpfzPe6Ec9X+dSyO5u+OeJ5PCGKAgbGNUyxMs7nVHFlKT7ECOQBGO612aGt3qYZea0FF8UJ8akmE9XTjjKd9FcA8dZ+Cu5R6BESFsj9KvplJ5W848D8FnUNxzw8vfdPXiPX+7dg/LSJdmpwqmvYCaju/wAo4orjbsuMzazDzp37Dtxh5X3A8/7hEWIBI177SVH5hp8pOuljbeBPXiOznA/v9W7adsMJjrjeekHvCuFOp5tU5N/c6vSPsHOn9yg5f95GfsV5v8sMYLpl2wPHq+oZKnqiQo4VQQN0eFmQg38XvLt79qhiF0Q2iKLPANaK6JOpVNLb6drz9n5vH/z3yKOXzxnDr3+rqv5sVf00dHgn9RIfsl3g3pCNx7+HPRt3AijL3elLjMjhy0yADSwfJ8zbac/OGE9BMcPHsAzli4BmDTGusCYP/KKz89R0ISEPzPMDUJxWhMeq/v307p9ctQiL8noD1jan5x2iuDmAhfMftmsG31KoYSH+vDY0AibGNdQgLbWWZC6GSvuBO1D9a36oJCG4DZDfOKb5KAadbcAWrxHAIzCBk22MTdbE0tZRamYvhSsXKfSUAB4fykL1PhG5TRS3Z2K6GQNVOwHekRTY1DJwzgKmXfdzQC/L+YKRThRd76S2Th/ptDL8/wJMnoBqmRDLxqapuC0KnAPImYB6d6oEebgCPA5INwxnRVbctRg0dwBbvWUhwtr4DtKDsYsuMCOOsbsn2RmzRjV7vivwGlpnA8N3Kfp/iDwH1TsBudUx5BEMpXYAO3fx9e4/NSOGW4ANLJ/nZ0Frz/Eu5GngwDewPsdnuFEIKH5uxt1rFq+YWfDty+0tfdPVdFYB0jyKTPK6RASLY/vsd+W70P6BRdsfCOIPqEJO6+pueiKvQnhyBQmcEcOY9Qk7a9S6hk5SV2oMlekqboOKTIB6a+dpHCIWFPsATYtgF1S2ieoGNfCCuMYOw3B2pKoySeza5X2byA8iJX8FTa+qrt5dm81aU9R0J6lr1BjiNKhKPcSYoMBYKMYdSDMLwZAAe6HuTlFjmyvYIoa7XRzsMQzZlbLt7diz0ds5kHNb8rllAocSsOzEnxR4nY86P3HSyff6GK8MQtWPra7OTHYce4KqTlATY9XViYa6CRWpgUjNy353mBBUDzfKh/82DH89uFtUd0JkuypeEEE/hn+HmDvTMWc79h2zPQJ3tJXBPDLFPAUM4NiJ8fhQjeu6k9W0xqvr1BqKBhXUqWDi/jvaxIZg7HDs/e+HhiDYJypbRZF0DdkojrtTBLtN09oxNJTdFpZH6fP04OkU8F2ADSzfSYEF5/ae5hrq7WpXSVsRByBZYEiRv6q6H39t909X5nsH06FGXjCnr82FexMUkwvMLJfLHzKQftuS7pO25XLywXMuuuiJydbQuKcAnZbPdbmcKzCuXtrd+J1czuU5FKAABShQuIBp179doP9ceKQXI/w+mx5eMJ7H4QVipp3YAa8x69NhmsY70oNbbvEpHMNQgAIUoAAFKlaADayApv6ii9ZPtgaz34NoByDeAq88iiew5X+/yfv6slXN/+bHkGec8XDsmMk1X1DVzxbhkUEv5ecNU2ctWZnfjoPDjzamjb8C8P0xBYE8O8mR025e3ejLDm9+zAtjUIACFIi6gBlPzIXid/7VKeuddL/vfyP8y6/0kUy7vg1wl/qYiTpxO4E9G/P6QsrH8RmKAhSgAAUoEBkBNrACnsqFLWve6JjG14HhXZ7oHaS3wPvG9OZdWeMzq31qtHTMfv6olJH6maicE2TqB2N7tw2LpE/K986rjjfdX50e23A/VE/3O08FhpyUNe239x7n+fKgAAUoQIEiCcTjtcdnVZ7xczhL9IRUauuzfsaMUizTTngNw7k+1jTgpBOTgacLWn/Tx3wYigIUoAAFKFC2AmyoFGnqFpy75hw1jB8oMJONLN/Rdwvwa3ds5uqurhP3+BW9bfa6N3sLgx7YMtqvsIePI7LDUHvmku6j8/qW1rvzKp4xfqqKDt+TFLgC+djSVU3f8z02A1KAAhSgwJEFxtRONbOyyU8mBT7nppNf9jNmlGKZduIFAA2+1STY6qSS9dwNzzdRBqIABShAgQoWYAOryJN/YIHtOwF4b2boX5h/WqE3x2uGPurnrngfPENjWyb3/Riq7y4svbyu3qNDmRO77jsxrw8q112nxmP39t0E6HvyGi33k3+/rLu5KHef5Z4Sz6QABShQKQJHV5t2asDfauUBJ93/Jn9jRiOaFa+bo6p3+FmNqKzKZvrP8zMmY1GAAhSgAAUqVYANlBLM/HVQ4+nZG6amjfTN0OEtV3nkJ7BXIFcPmGN+sXJlw/7danw6Ljl3zSlZw7wb0Ck+hcwlzB519HVdq2eszeXkl5/TNrv3Boh+NN/rcjz/+bTtzlyxYmYqx/N5GgUoQAEK+Cxg2Yk/KjDLx7Bu3NKjBwa2enca8XhJQEy7rgfQRn9RZKGT7l/ib0xGowAFKEABClSmABtYJZ73hbN7j3MM79Ev/XzRHlUrcc0FDH+Pwrxuoln10E99blztfwzPvEHVvXx4a9tiHYLdqnJWV3fTE/kO2dba6z3W92FAg/g5dtTQc7rumHFfvnnxfApQgAIU8E/AtBv+HnB+6V/E4Ui/dtJJ/x879znJooYbUzvNzMpzAEwfxx1w0skJABwfYzIUBShAAQpQoGIFgvjgW7GYhRR+/vmbx1Zn9p0DA+8HsJCPFx7U1H7A+A7gLD29+3/+ugiL3EKcD3Vt+5yeS6ByvUKb/I49QryNEHvuslXHPJnvuG1zem6E4vLAXidifHrZqsav5ZsXz6cABShAAb8FpleZ9sAuQP38cmWPUxevx4YNg35nW6bxTMtOPKbAqX7mL8BfsunkyX7GZCwKUIACFKBAJQuwgRXC2e+YuyaRTovXxGoH5FwA8RCmGWRKmxXaZQJLXvPW5pWLFonvTSsv+Xnnr2s0s8431UA7FEaQBR0i9nO2abZ0rpzel++47XN6f6Gqb8/3ulzPF5FlscmNl3R2Cr8xzhWN51GAAhQITsAw44kXoKjzdQjBcieVbAOgvsYtw2CxWP2ZrrgP+J26iF6fTW29xu+4jEcBClCAAhSoVAE2sEI+8wta/zLFRexSqMyH4HW+7owTotoVWCMiD4jr3hKb0rwyyOZJe0vfJNfSjwh0UQkaVxDBU6Lxlnx3G5w37+Ex5sCUXytcP7f3fvWr4DnbHjOrc8XUZIheHkyFAhSgQEULGHbdIoF+wWeErAP3NUhv+4vPccss3KRJZjz2NBRTfU48a5vu9MHBbRt9jstwFKAABShAgYoVYAOrrKZepX123+th6OWqeAuAowHUlFUJ+5NVFd0qivUQ3O4OyQ+W39vsrTsR6NHR8tS4tDn2IsC9CUB1oIMdJrhA/hCraTwr3wbd3LlrEnbGuBPq7+MNr0ozZYjz2iWrjq/wDzOleGVwTApQgAJHFDBNO7EngL9de52017hJ7q1Qf7HsxFcVCOAuKXnISfefWaGuLJsCFKAABSgQiAAbWIGwFi/owtb1TQ6y7wLw9uFvD0WqAFQFtLD3KAoTBTQNwYBANijcX9quc3PnnScU7RvJD57xcKx/4sRzYZi3qGqpGn4q0GVLu2csyBdx/gVrZ4hjPATVyflem8f5akDftqR7xm15XMNTKUABClCgSAJmPHEPFG/1fTgDv3SGku+sxIXGTTvhLWT/K99NvW/qRD7hpvq/HURsxqQABShAAQpUqgAbWBGa+Y4ONYE/m9g9cVwmk77ANTDPAOaoIlHkMgehuMswsVwy8VsHqweT48bNyOZ715EfOS9o7T3PBW4BhhtXJXu9i2DR0lVNiwCvoZf70dbaexagdwKwcr9qFGeKfnPZqhmfGsWVvIQCFKAABYogEBtTO8vNyh+DGEqAa7Pp5NeDiB3WmLZdc7ID09sB2M9dBw+Wu9dJT6wF1qbCWj/zogAFKEABCpSjQMk+0JcjVrnm3NLSV5WI7xvjpOJjsvGqKs2mJ1uGTHe9XfdcHAO4DRCZImpMVmCiAY0pME6hhtdwMYA9KhhQYB+ARK4DkgAAEzxJREFUbVBsVtFNBqRPYfS6BtbHsjqoljs4DuP2/XRl/UC+jRo/bVta1JoY67kCLr4AiLemRQlf55o1RC9dsmrmsnxrnNfa83oDchegY/O9Ns/z71nW3XROKecsz3x5OgUoQIGKFDDjibuhODuA4tUQ+adMqv/7AcQOXUjbbjjZQfZeQAK5s1kEN2RTyY+FrnAmRAEKUIACFChzgRJ+sC9zOaYfOoGOlr6GtKmfBtTbwdFbH6zUxwYI3rZsVfOTo0mkrbXnGQDHj+baXK8R4PFJjvHGm1c3DuV6Dc+jAAUoQIHSCFhVteeqK95duUEcWYF8NZvu93ux+CByHXXMWKzuNNfQVVDUjjrIkS/MOmasGYObAl/bM6D8GZYCFKAABSgQWgE2sEI7NUwsV4H5562Zb6jxXlVcCGBMrtcFeZ633pUgc8WS7pO2jWactjm9n4TqN0ZzbR7XrFPIG7u6m7bkcQ1PpQAFKECBEgqYdqILwLyAUlBAfuak+98HIBvQGKUKK6Zd9w5AfxDkewUR+VY21f/JUhXJcSlAAQpQgAJRFmADK8qzG9HaFCoLz+17jSu4GKJXAjguRKWmRfDV2OSmfy1kza/5rWufFcjM4OqSbRA9d7R3hwWXFyNTgAIUoMCRBGy74RQHzsP7N2wJ5hDgGVHz3ZnM5kDW3Aom6yNFrR1vxYwvqujHA15WYMgROQWp/t7i18gRKUABClCAAtEXYAMr+nMciQpbWu6yxmPaDMuKneWqfhTA34WuMMHzhrjvXnLHzLsLye2DZ2hsy+TevVDYhcQ57LWCAahcuKy76Z5A4jMoBShAAQoEKmDE6z4lqtcHOsjwdsbypWx16jvYtWtHwGMFFd6wqupb1NWbAD02qEEOxlXgWrfCFsMP2pTxKUABClCAAi8XYAOLr4fQCsyfnxxv7RtIOJrugBje7fhBrVdRmIHABbCqfseOi3/wp1mZwoIBbbPXvhki9xUa59DXa9aAOW9Jd+NtwcRnVApQgAIUKIJAzLITTyhwYvBjaQYq/+hk9NfA1j3Bj+fLCAbidY0W9MeqOMeXiCMH2eWk9ZgyMhq5Ip5BAQpQgAIUCJkAG1ghm5BKTqejQ81kcl1sgu20i2v8C1RfWwYejgG8d0l388/8yrV9Tu/fq+ov/Yr3sjgqYsxeuqpxdQCxGZICFKAABYopUNUw3XSdHgBGkYbNCoxvZtNbvEXevfWxtEjj5jOMEY/XNTqqtxanufdiaupU4QTsTq7JJ1meSwEKUIACFKBAfgJsYOXnxbN9FLgO1xmPzX73G0XkEgUuATAJwFgAlo/DBBhKHlPgQr8XQW+fvXauivzO58QVBi5edkfTCkDC+KHD53IZjgIUoED0Bayq2pYDuxIW8/1cCpCNgHOdk972i1As9j6uvs7M6HVQfTuAmoDXuTrUC+tGJ538QEibetH/QWCFFKAABShQMQLFfMNTMags9CUBr0n1ZOv7p6tkT1eV0wGdBWCaC60ViPdIYLwMvdKA8Z5dzvTfrF4tvu/S1N7SN0lNd7uPb8BdA8b7l3Q3/oRvrsvw1caUKUABChxewDCq6r4grl5XIqR9Almv0IcguthJVK3Chg2DQecyfvy02oGMMx+u2w7I3wHeo3swgx730PGl10n3e5uueMsJ8KAABShAAQpQIEABNrACxK2c0Crzzlt3tqF6iajOUOhkwJiI4X9jCoBYVCxUsdhwjU8sXd24Lsia2lp7NgGYWvAYgjSA9y1b1fzzgmMxAAUoQAEKhFLAtBOdAC4NQXLelzrPQbAeKpsU7jMCo1dMXW+psXHcOGfr1q0jr6OVSCTG7d4t9Y7oUerIdBE0KXA8ZLhR1QRFQxEfnTw8q6LfsWKzMLjp+RDYMwUKUIACFKBA5AXYwIr8FAdbYNu5PW+DiS9DcXqwI5U4umCtAVyzZFXz4mJk0ta69r8BeU9BY4kMqLpXdHXP8B7x4EEBClCAAtEVMMx43W+hemEZlOgA2ANB6lV3BQsUVWW0lMCgiLRnU/0ry8CcKVKAAhSgAAUiIcAGViSmsfhFdHQ8ZWd2jPm8qn6u+KMXdcQ9gPsfdk3Vos7OYwJ/LOJgZQceI/QWgx3lzouyzQAuW9LddEdRtTgYBShAAQqUSsAy43VdUJ1bqgQqaNyMofg/mUzyxgqqmaVSgAIUoAAFSi7ABlbJp6AcE1Bpm9P7LSg+Xo7Z55azOFB3dTqjl624Z2Yyt2v8PattTs87oPDeHOe3TphgrbixC5feeay3OxUPClCAAhSoHAHLjCeWQHFx5ZRc9EpdQ3B1JpX8btFH5oAUoAAFKECBChdgA6vCXwCjKb+ttfdSQL31NqJ4uAKsNaxUy+LbT36h1AXOb+15p0BvBMTOIZcsIL/c5TReHsTi8jmMz1MoQAEKUCAEAma89vtQ+UcfNwMJQVWhSME1DHwgM5S8KRTZMAkKUIACFKBAhQmwgVVhE+5Hue2tPc8ML6YauUM3iYn5S1c2PwKIhqW8hbN7j3NEuwE0Hy4ngfSOqTJn/fy3x+0IS97MgwIUoAAFSiYgpl37D4BwAw8fp0BELjyw5lVo3iP4WB5DUYACFKAABUIvwAZW6KcoXAnOm7OmzVBzCaCRee2IYI3rygcycefBFStmeovKhu7o6FAzlexpFEvnCYwLVXGUKLbA0KXImstPO2f6c4sWCbfwDt3MMSEKUIACJRMQ2FNONGE8DGBMybKIxsCDDowzkd7y1KsWno9GdayCAhSgAAUoUCYCkWlClIl32afZ3trzOwUisUCsQu81YXzJqhm4u7Pz1HTZTw4LoAAFKEABCrxaYMLRNeZQ6j8BdBAnfwEBHsmasXYMbno+/6t5BQUoQAEKUIACfgqwgeWnZgXEamvt+TOAk8u1VAEyECx1Vb/f1d28OkyPCparKfOmAAUoQIHwC5jVtZfBkW8DaAh/tqHIMCvA9dl0chEAfskViilhEhSgAAUoUOkCbGBV+isgz/rbW3t7FNqU52WlP13kBcD9tWZxQ9fqGWtLnxAzoAAFKEABChRZYPy0WjOd+RoUlwMwizx62QwnwJMw8eHsYPLeskmaiVKAAhSgAAUqQIANrAqYZD9LbJvT+xeonuhnzMBiCbw1oR6ByH/tyjTezJ35ApNmYApQgAIUKCeBeO0Jphr/DegbuFPhKyZupwDfO3DXVbacppS5UoACFKAABSpBgA2sSphlH2tsb+3pVmC2jyH9DeU1rRRbAfxOhyZc1XVfYo+/AzAaBShAAQpQIBoC8XjtCY4av1HoCQCsaFQ1qiqGBFidTU9sB9aGcjOXUVXFiyhAAQpQgAIRE2ADK2ITGnQ581vX/oNAbgl6nPzjiwNxf2u6xlWL72xan//1vIICFKAABShQmQJVVfWNWdf9lQJnVNgdWd6d2r9z0i3tQKdTmbPPqilAAQpQgALlI8AGVvnMVSgy7ehQM7PdWwcLx4UgIUeBm03g+nHm2I0/XdmwLwQ5MQUKUIACFKBAOQoYGFuXsDL4kEKvK8cC8sh5wBD9bCaVvRnYuTOP63gqBShAAQpQgAIlFGADq4T45Tp0+3lrL1dXbipF/go8LnB/aJhydzY+pnf58mkDpciDY1KAAhSgAAWiK1A/1qrW16ij/wjIZYDaEajVu9uqU1z5bjYrjwFb+KVXBCaVJVCAAhSgQGUJsIFVWfPtW7Xts9d+V0U+4lvAQwYSB9BHIXo7HLnftM1HF98+/YVgx2R0ClCAAhSgAAVeFJh47GRraPBMABco0A7F9LLRESQBWQq4tzrx9L3YvXt72eTORClAAQpQgAIU+BsBNrD4ohiVgPcoYXpH39eg+slRBfjbi7xm1bMixpNQfcyF83DGlgdXrJi526f4DEMBClCAAhSgQGEChm1POSEr5tmieqYAsxTwdiaOFRbWl6tdiKyH6sMi+qC4uDuT2foYAO4m6Asvg1CAAhSgAAVKL8AGVunnoKwzaD9vzfnqGl8HcFoOC796C6RuE0G/urpFxNigrvO4a1p/yMayj65YMZM7/5T1q4HJU4ACFKBA5QkcXW1VDZ0JNV6vitMheqwo6hRSC+gkAIbPJnsBb7dh2Qxgs0CfUtGHxsar7tu9ewPvsPIZm+EoQAEKUIACYRJgAytMs1HGuSxsfabJFes9ULxZgYnwbttX3aCCHhGsdQ19dk9qwzOrV5/Lb0LLeJ6ZOgUoQAEKUCB3gTNitr2uWURmuJDjVDFVRRJQnQKRCYBWQ+Wl9bVEM4AMQXUXgJ0C3Soim0Rlg6q7fvx499nt27fzzuzcJ4BnUoACFKAABSIlwAZWpKaTxVCAAhSgAAUoQAEKUIACFKAABShAgegJsIEVvTllRRSgAAUoQAEKUIACFKAABShAAQpQIFICbGBFajpZDAUoQAEKUIACFKAABShAAQpQgAIUiJ4AG1jRm1NWRAEKUIACFKAABShAAQpQgAIUoAAFIiXABlakppPFUIACFKAABShAAQpQgAIUoAAFKECB6AmwgRW9OWVFFKAABShAAQpQgAIUoAAFKEABClAgUgJsYEVqOlkMBShAAQpQgAIUoAAFKEABClCAAhSIngAbWNGbU1ZEAQpQgAIUoAAFKEABClCAAhSgAAUiJcAGVqSmk8VQgAIUoAAFKEABClCAAhSgAAUoQIHoCbCBFb05ZUUUoAAFKEABClCAAhSgAAUoQAEKUCBSAmxgRWo6WQwFKEABClCAAhSgAAUoQAEKUIACFIieABtY0ZtTVkQBClCAAhSgAAUoQAEKUIACFKAABSIlwAZWpKaTxVCAAhSgAAUoQAEKUIACFKAABShAgegJsIEVvTllRRSgAAUoQAEKUIACFKAABShAAQpQIFICbGBFajpZDAUoQAEKUIACFKAABShAAQpQgAIUiJ4AG1jRm1NWRAEKUIACFKAABShAAQpQgAIUoAAFIiXABlakppPFUIACFKAABShAAQpQgAIUoAAFKECB6AmwgRW9OWVFFKAABShAAQpQgAIUoAAFKEABClAgUgJsYEVqOlkMBShAAQpQgAIUoAAFKEABClCAAhSIngAbWNGbU1ZEAQpQgAIUoAAFKEABClCAAhSgAAUiJcAGVqSmk8VQgAIUoAAFKEABClCAAhSgAAUoQIHoCbCBFb05ZUUUoAAFKEABClCAAhSgAAUoQAEKUCBSAmxgRWo6WQwFKEABClCAAhSgAAUoQAEKUIACFIieABtY0ZtTVkQBClCAAhSgAAUoQAEKUIACFKAABSIlwAZWpKaTxVCAAhSgAAUoQAEKUIACFKAABShAgegJsIEVvTllRRSgAAUoQAEKUIACFKAABShAAQpQIFICbGBFajpZDAUoQAEKUIACFKAABShAAQpQgAIUiJ4AG1jRm1NWRAEKUIACFKAABShAAQpQgAIUoAAFIiXABlakppPFUIACFKAABShAAQpQgAIUoAAFKECB6AmwgRW9OWVFFKAABShAAQpQgAIUoAAFKEABClAgUgJsYEVqOlkMBShAAQpQgAIUoAAFKEABClCAAhSIngAbWNGbU1ZEAQpQgAIUoAAFKEABClCAAhSgAAUiJcAGVqSmk8VQgAIUoAAFKEABClCAAhSgAAUoQIHoCbCBFb05ZUUUoAAFKEABClCAAhSgAAUoQAEKUCBSAmxgRWo6WQwFKEABClCAAhSgAAUoQAEKUIACFIieABtY0ZtTVkQBClCAAhSgAAUoQAEKUIACFKAABSIlwAZWpKaTxVCAAhSgAAUoQAEKUIACFKAABShAgegJsIEVvTllRRSgAAUoQAEKUIACFKAABShAAQpQIFICbGBFajpZDAUoQAEKUIACFKAABShAAQpQgAIUiJ4AG1jRm1NWRAEKUIACFKAABShAAQpQgAIUoAAFIiXABlakppPFUIACFKAABShAAQpQgAIUoAAFKECB6AmwgRW9OWVFFKAABShAAQpQgAIUoAAFKEABClAgUgJsYEVqOlkMBShAAQpQgAIUoAAFKEABClCAAhSIngAbWNGbU1ZEAQpQgAIUoAAFKEABClCAAhSgAAUiJcAGVqSmk8VQgAIUoAAFKEABClCAAhSgAAUoQIHoCbCBFb05ZUUUoAAFKEABClCAAhSgAAUoQAEKUCBSAmxgRWo6WQwFKEABClCAAhSgAAUoQAEKUIACFIieABtY0ZtTVkQBClCAAhSgAAUoQAEKUIACFKAABSIlwAZWpKaTxVCAAhSgAAUoQAEKUIACFKAABShAgegJsIEVvTllRRSgAAUoQAEKUIACFKAABShAAQpQIFICbGBFajpZDAUoQAEKUIACFKAABShAAQpQgAIUiJ4AG1jRm1NWRAEKUIACFKAABShAAQpQgAIUoAAFIiXABlakppPFUIACFKAABShAAQpQgAIUoAAFKECB6AmwgRW9OWVFFKAABShAAQpQgAIUoAAFKEABClAgUgJsYEVqOlkMBShAAQpQgAIUoAAFKEABClCAAhSIngAbWNGbU1ZEAQpQgAIUoAAFKEABClCAAhSgAAUiJcAGVqSmk8VQgAIUoAAFKEABClCAAhSgAAUoQIHoCfx/jhgmkKQFYbIAAAAASUVORK5CYII=;imageBackground=#FFFFFF;" vertex="1" parent="1">
          <mxGeometry x="284.99999999999994" y="395" width="279.88" height="80" as="geometry" />
        </mxCell>
      </root>
    </mxGraphModel>
  </diagram>
</mxfile>
